<?xml version="1.0" encoding="utf-8"?>
<!-- Generator: Adobe Illustrator 23.1.1, SVG Export Plug-In . SVG Version: 6.00 Build 0)  -->
<svg version="1.1" id="売る" xmlns="http://www.w3.org/2000/svg" xmlns:xlink="http://www.w3.org/1999/xlink" x="0px" y="0px"
	 viewBox="0 0 769 533.6" style="enable-background:new 0 0 769 533.6;" xml:space="preserve">
<style type="text/css">
	.st0{fill:#2A8E9D;stroke:#2A8E9D;stroke-width:3;stroke-miterlimit:10;}
	.st1{font-family:'kinari-gothic-mini-83pv-RKSJ-H';}
	.st2{font-size:62px;}
	.st3{fill:#2A8E9D;stroke:#2A8E9D;stroke-miterlimit:10;}
	.st4{fill:#EB944D;}
	.st5{fill:#FFFFFF;stroke:#FFFFFF;stroke-width:5;stroke-miterlimit:10;}
	.st6{fill:#FFFFFF;stroke:#FFFFFF;stroke-miterlimit:10;}
	.st7{font-size:120px;}
	.st8{fill:#FFFFFF;}
	.st9{fill:#FFFFFF;stroke:#FFFFFF;stroke-width:10;stroke-miterlimit:10;}
</style>
<text transform="matrix(1 0 0 1 6.52 525.7666)" class="st0 st1 st2">総合ブックサイト</text>
<path class="st3" d="M765.5,444.5H3.5c-1.66,0-3-1.34-3-3V3.5c0-1.66,1.34-3,3-3h762c1.66,0,3,1.34,3,3v438
	C768.5,443.16,767.16,444.5,765.5,444.5z"/>
<g>
	<g>
		<path class="st4" d="M22.95,123.58c-0.83,0-1.5-0.67-1.5-1.5v-13.12c0-0.83,0.67-1.5,1.5-1.5h61.63c0.83,0,1.5,0.67,1.5,1.5v13.12
			c0,0.83-0.67,1.5-1.5,1.5H22.95z"/>
		<g>
			<path class="st4" d="M84.57,107.96c0.55,0,1,0.45,1,1v13.12c0,0.55-0.45,1-1,1H22.95c-0.55,0-1-0.45-1-1v-13.12
				c0-0.55,0.45-1,1-1H84.57 M84.57,106.96H22.95c-1.1,0-2,0.9-2,2v13.12c0,1.1,0.9,2,2,2h61.63c1.1,0,2-0.9,2-2v-13.12
				C86.57,107.86,85.68,106.96,84.57,106.96L84.57,106.96z"/>
		</g>
	</g>
	<g>
		<g>
			<path class="st4" d="M21.74,101.9c-0.07,0-0.2-0.01-0.26-0.1c-0.05-0.08-0.05-0.22,0-0.37l12.67-34.81
				c0.16-0.43,0.67-0.81,1.09-0.81h63.35c0.07,0,0.2,0.01,0.26,0.1c0.05,0.08,0.05,0.22,0,0.37l-12.67,34.81
				c-0.16,0.43-0.67,0.81-1.09,0.81H21.74z"/>
			<g>
				<path class="st4" d="M98.31,66.31l-12.6,34.61c-0.09,0.25-0.42,0.48-0.62,0.48l-63.06,0l12.6-34.61
					c0.09-0.25,0.42-0.48,0.62-0.48H98.31 M98.59,65.31H35.25c-0.63,0-1.33,0.51-1.56,1.14l-12.67,34.81
					c-0.23,0.63,0.1,1.14,0.73,1.14h63.35c0.63,0,1.33-0.51,1.56-1.14l12.67-34.81C99.55,65.82,99.22,65.31,98.59,65.31L98.59,65.31
					z"/>
			</g>
		</g>
		<g>
			<path class="st4" d="M92.66,101.9c-0.07,0-0.2-0.01-0.26-0.1c-0.05-0.08-0.05-0.22,0-0.37l12.67-34.81
				c0.16-0.43,0.67-0.81,1.09-0.81h0.57c0.07,0,0.2,0.01,0.26,0.1c0.05,0.08,0.05,0.22,0,0.37l-12.67,34.81
				c-0.16,0.43-0.67,0.81-1.09,0.81H92.66z"/>
			<g>
				<path class="st4" d="M106.44,66.31l-12.6,34.61c-0.09,0.25-0.42,0.48-0.62,0.48l-0.28,0l12.6-34.61
					c0.09-0.25,0.42-0.48,0.62-0.48H106.44 M106.73,65.31h-0.57c-0.63,0-1.33,0.51-1.56,1.14l-12.67,34.81
					c-0.23,0.63,0.1,1.14,0.73,1.14h0.57c0.63,0,1.33-0.51,1.56-1.14l12.67-34.81C107.69,65.82,107.36,65.31,106.73,65.31
					L106.73,65.31z"/>
			</g>
		</g>
	</g>
	<g>
		<g>
			<path class="st4" d="M35.25,165.24c-0.42,0-0.93-0.38-1.09-0.81l-12.67-34.81c-0.06-0.16-0.06-0.3,0-0.37
				c0.06-0.08,0.19-0.1,0.26-0.1h63.35c0.42,0,0.93,0.38,1.09,0.81l12.67,34.81c0.06,0.16,0.06,0.3,0,0.37
				c-0.06,0.08-0.19,0.1-0.26,0.1H35.25z"/>
			<g>
				<path class="st4" d="M85.09,129.65c0.19,0,0.53,0.23,0.62,0.48l12.6,34.61H35.25c-0.19,0-0.53-0.23-0.62-0.48l-12.6-34.61H85.09
					 M85.09,128.65H21.74c-0.63,0-0.96,0.51-0.73,1.14l12.67,34.81c0.23,0.63,0.93,1.14,1.56,1.14h63.35c0.63,0,0.96-0.51,0.73-1.14
					l-12.67-34.81C86.42,129.16,85.72,128.65,85.09,128.65L85.09,128.65z"/>
			</g>
		</g>
		<g>
			<path class="st4" d="M106.16,165.24c-0.42,0-0.93-0.38-1.09-0.81L92.4,129.62c-0.06-0.16-0.06-0.3,0-0.37
				c0.06-0.08,0.19-0.1,0.26-0.1h0.57c0.42,0,0.93,0.38,1.09,0.81l12.67,34.81c0.06,0.16,0.06,0.3,0,0.37
				c-0.06,0.08-0.19,0.1-0.26,0.1H106.16z"/>
			<g>
				<path class="st4" d="M93.23,129.65c0.19,0,0.53,0.23,0.62,0.48l12.6,34.61h-0.28c-0.19,0-0.53-0.23-0.62-0.48l-12.6-34.61H93.23
					 M93.23,128.65h-0.57c-0.63,0-0.96,0.51-0.73,1.14l12.67,34.81c0.23,0.63,0.93,1.14,1.56,1.14h0.57c0.63,0,0.96-0.51,0.73-1.14
					l-12.67-34.81C94.56,129.16,93.86,128.65,93.23,128.65L93.23,128.65z"/>
			</g>
		</g>
	</g>
</g>
<g>
	<path class="st5" d="M149.09,165.93c-0.86,0-1.77-0.14-2.72-0.43c-1.14-0.38-2.07-1.09-2.79-2.14c-0.72-1.05-0.98-2.24-0.79-3.58
		c0-0.67,0.29-1.38,0.86-2.14c0.57-0.76,1.72-1.29,3.43-1.57c0.19,0,0.36-0.02,0.5-0.07c0.14-0.05,0.31-0.07,0.5-0.07
		c3.81-0.19,7.65-0.76,11.51-1.72c3.86-0.95,7.98-2.38,12.37-4.29c4-1.72,8.44-3.79,13.3-6.22c4.86-2.43,9.58-5.46,14.16-9.08
		c1.91-1.43,3.79-3.03,5.65-4.79c1.86-1.76,3.45-3.79,4.79-6.08c1.91-3.34,2.24-6.39,1-9.15c-0.95-2.48-2.67-3.96-5.15-4.43
		c-1.91-0.48-3.81-0.76-5.72-0.86c-0.29-0.09-1.14-0.14-2.57-0.14c-1.72,0-3.55,0.05-5.51,0.14c-1.96,0.1-3.31,0.24-4.08,0.43
		c-0.19,0.1-0.41,0.14-0.64,0.14c-0.24,0-0.45,0.05-0.64,0.14c-1.43,0.48-2.96,0.76-4.58,0.86c-3.24,0-6.44,0.91-9.58,2.72
		c-3.24,1.81-4.86,4.29-4.86,7.44c0,1.43-0.1,2.86-0.29,4.29c-0.19,1.43-0.38,2.86-0.57,4.29c-0.19,0.67-0.31,1.31-0.36,1.93
		c-0.05,0.62-0.17,1.31-0.36,2.07c0,0.29-0.02,0.6-0.07,0.93c-0.05,0.33-0.07,0.69-0.07,1.07c-0.19,1.43-0.38,2.84-0.57,4.22
		c-0.19,1.38-0.19,2.74,0,4.08c0,2.1-0.86,3.48-2.57,4.15c-0.95,0.38-1.67,0.57-2.15,0.57c-1.14,0-2.15-0.43-3-1.29
		c-1.72-1.43-2.43-3-2.15-4.72c0.09-0.67,0.17-1.33,0.21-2c0.05-0.67,0.07-1.38,0.07-2.14c0.09-1.33,0.21-2.72,0.36-4.15
		c0.14-1.43,0.45-2.86,0.93-4.29c0.38-1.14,0.67-2.31,0.86-3.5c0.19-1.19,0.38-2.41,0.57-3.65c0.09-0.57,0.17-1.12,0.21-1.64
		c0.05-0.52,0.12-1.02,0.21-1.5c0.09-0.67,0.05-1.33-0.14-2c-0.19-0.67-0.43-1.38-0.72-2.14c-0.29-0.76-0.45-1.6-0.5-2.5
		c-0.05-0.9,0.4-1.79,1.36-2.65c0.57-0.57,0.95-1.67,1.14-3.29c0.09-1.33,0.19-2.65,0.29-3.93c0.09-1.29,0.19-2.6,0.29-3.93
		c0.19-2.48,0.4-5,0.64-7.58c0.24-2.57,0.45-5.1,0.64-7.58c0-0.38-0.02-0.76-0.07-1.14c-0.05-0.38-0.17-0.67-0.36-0.86
		c-0.38-0.38-0.86-0.57-1.43-0.57c-0.19,0-0.38,0.02-0.57,0.07c-0.19,0.05-0.38,0.07-0.57,0.07c-1.05,0.19-2.05,0.53-3,1
		c-0.95,0.48-2,1.1-3.15,1.86l-1.29,0.86c-1.05,0.76-2.24,1.57-3.58,2.43c-0.86,0.48-1.72,0.91-2.57,1.29
		c-0.86,0.38-1.67,0.71-2.43,1c-0.38,0.19-0.74,0.29-1.07,0.29c-0.33,0-0.64,0-0.93,0c-1.05,0-1.86-0.29-2.43-0.86
		c-0.57-0.57-1-1.14-1.29-1.72c-1.34-2.48-0.95-4.53,1.14-6.15c0.19-0.19,0.43-0.36,0.72-0.5c0.29-0.14,0.52-0.26,0.71-0.36
		c0.19-0.09,0.31-0.17,0.36-0.21c0.05-0.05,0.17-0.12,0.36-0.21c0.29-0.19,0.57-0.36,0.86-0.5c0.29-0.14,0.52-0.31,0.72-0.5
		c0.67-0.48,1.31-0.88,1.93-1.22c0.62-0.33,1.17-0.74,1.64-1.22c0.48-0.38,1-0.76,1.57-1.14c0.57-0.38,1.24-0.67,2-0.86v-0.14
		c0.09,0,1.17-0.5,3.22-1.5c2.05-1,4.79-2.12,8.22-3.36c3.24-1.14,7.24-2.26,12.01-3.36c4.77-1.09,9.87-1.64,15.3-1.64
		c0.57,0,1.14,0.02,1.72,0.07c0.57,0.05,1.14,0.07,1.72,0.07h0.14c3.62,0,6.91,1.38,9.87,4.15c2.29,2.29,2.86,5.05,1.72,8.29
		c-0.29,0.95-0.76,1.86-1.43,2.72c-1.81,2.77-3.72,5.41-5.72,7.94c-2,2.53-4.15,4.93-6.43,7.22l-4.29,5.43v0.14
		c0.09,0,0.17,0.02,0.21,0.07c0.05,0.05,0.17,0.07,0.36,0.07c0.29,0,0.71-0.09,1.29-0.29c2.38-0.57,5-0.86,7.86-0.86
		c2.38,0,4.53,0.14,6.44,0.43c6.67,0.57,11.77,2.91,15.3,7.01c2.95,3.53,4.38,7.49,4.29,11.87c-0.1,2.96-0.79,5.55-2.07,7.79
		c-1.29,2.24-2.65,4.32-4.08,6.22c-1.14,1.53-2.48,3-4,4.43c-1.53,1.43-3.34,2.86-5.43,4.29c-1.91,1.53-3.89,2.96-5.93,4.29
		c-2.05,1.34-4.08,2.67-6.08,4l-0.43,0.14c-0.29,0.19-0.98,0.6-2.07,1.22c-1.1,0.62-2.34,1.29-3.72,2
		c-1.38,0.71-2.77,1.41-4.15,2.07c-1.38,0.67-2.5,1.14-3.36,1.43c-0.67,0.19-1.29,0.43-1.86,0.72c-0.57,0.29-1.14,0.52-1.72,0.71
		c-1.91,0.76-3.81,1.5-5.72,2.22c-1.91,0.72-3.81,1.41-5.72,2.07c-2.19,0.76-4.48,1.38-6.86,1.86c-2.38,0.48-5.05,0.81-8.01,1
		C149.56,165.88,149.37,165.93,149.09,165.93z M169.96,99.86c0.09,0.95,0.24,1.57,0.43,1.86c0.57-0.48,1.55-1.38,2.93-2.72
		c1.38-1.33,2.88-2.76,4.5-4.29c1.62-1.52,3.19-3.03,4.72-4.5c1.52-1.48,2.67-2.65,3.43-3.5c0.09-0.09,0.17-0.19,0.21-0.29
		c0.05-0.09,0.12-0.19,0.21-0.29c2.38-2.86,4.38-5.58,6.01-8.15c0.29-0.48,0.55-0.95,0.79-1.43c0.24-0.48,0.45-0.95,0.64-1.43
		c0-0.29-0.05-0.48-0.14-0.57l-0.43-0.43c-0.38-0.09-0.74-0.19-1.07-0.29c-0.33-0.09-0.69-0.14-1.07-0.14
		c-0.67-0.09-1.31-0.14-1.93-0.14c-0.62,0-1.22,0-1.79,0c-4.67,0-9.06,0.86-13.16,2.57c-1.53,0.67-2.43,1.81-2.72,3.43
		c-0.48,3.43-0.86,6.58-1.14,9.44c-0.29,2.86-0.38,5.58-0.29,8.15v0.71v1.86C170.11,99.81,170.06,99.86,169.96,99.86z"/>
	<path class="st5" d="M323.55,102.72c0.19,3.62-0.1,7.13-0.86,10.51c-0.76,3.39-1.81,6.75-3.15,10.08
		c-2.48,6.48-5.48,12.54-9.01,18.16c-3.53,5.63-8.1,10.63-13.73,15.01c-4.2,3.24-8.6,5.67-13.23,7.29
		c-4.62,1.62-9.51,2.72-14.66,3.29c-3.15,0.38-6.24,0.21-9.29-0.5c-3.05-0.72-6.01-1.74-8.87-3.08c-4.2-1.91-7.53-4.91-10.01-9.01
		c-1.91-3.05-3.27-6.27-4.08-9.65c-0.81-3.38-1.45-6.84-1.93-10.37c-0.19-1.52-0.29-3.03-0.29-4.5c0-1.48-0.1-3.03-0.29-4.65
		c0.19-3.34,0.48-6.67,0.86-10.01c0.38-3.34,1.09-6.67,2.15-10.01c0.57-1.91,1.09-3.79,1.57-5.65c0.48-1.86,0.52-3.88,0.14-6.08
		c-0.19-1.62,0.12-3.17,0.93-4.65c0.81-1.48,1.74-2.88,2.79-4.22c4.67-6.29,9.99-11.44,15.94-15.44c5.96-4,12.94-6.29,20.95-6.86
		c6.77-0.48,13.04,0.31,18.81,2.36c5.77,2.05,10.84,5.93,15.23,11.66c3.05,4,5.43,8.15,7.15,12.44
		C322.4,93.14,323.35,97.77,323.55,102.72z M311.82,114.45c1.05-4.48,1.38-8.84,1-13.08c-0.38-4.24-1.77-8.41-4.15-12.51
		c-1.43-2.48-3.03-4.74-4.79-6.79c-1.77-2.05-3.74-3.93-5.93-5.65c-2.48-1.91-5.1-3.41-7.87-4.5c-2.77-1.09-5.72-1.69-8.87-1.79
		c-1.05,0-1.81,0.26-2.29,0.79c-0.48,0.53-0.48,1.17,0,1.93l0.14,0.14c0,0.19,0.09,0.38,0.29,0.57c0.19,0.38,0.38,0.74,0.57,1.07
		c0.19,0.33,0.38,0.69,0.57,1.07c0.67,1.43,1.26,3.17,1.79,5.22c0.52,2.05,0.5,4.08-0.07,6.08c-0.48,1.62-1.17,2.62-2.07,3
		c-0.91,0.38-1.84,0.43-2.79,0.14c-0.95-0.29-1.79-0.79-2.5-1.5c-0.71-0.71-1.12-1.45-1.22-2.22c-0.19-0.48-0.33-0.86-0.43-1.14
		c-0.1-0.29-0.14-0.57-0.14-0.86c-0.1-3.72-2-6.01-5.72-6.86c-1.43-0.38-2.62-0.19-3.58,0.57c-0.95,0.76-1.91,1.57-2.86,2.43
		c-1.72,1.72-3.2,3.58-4.43,5.58c-1.24,2-2.38,4.1-3.43,6.29c-3.24,6.58-5.46,13.35-6.65,20.31c-1.19,6.96-1.45,14.11-0.79,21.45
		c0.19,2.29,0.59,4.53,1.22,6.72c0.62,2.19,1.45,4.29,2.5,6.29c1.62,3.15,3.72,5.75,6.29,7.79c2.57,2.05,5.77,3.17,9.58,3.36
		c9.15,0.29,17.35-2.38,24.6-8.01c3.62-2.86,6.86-6.1,9.72-9.72c2.86-3.62,5.2-7.67,7.01-12.15c1.05-2.29,2.02-4.6,2.93-6.94
		C310.37,119.19,311.15,116.83,311.82,114.45z"/>
	<path class="st5" d="M426.65,102.72c0.19,3.62-0.1,7.13-0.86,10.51c-0.76,3.39-1.81,6.75-3.15,10.08
		c-2.48,6.48-5.48,12.54-9.01,18.16c-3.53,5.63-8.1,10.63-13.73,15.01c-4.2,3.24-8.6,5.67-13.23,7.29
		c-4.62,1.62-9.51,2.72-14.66,3.29c-3.15,0.38-6.24,0.21-9.29-0.5c-3.05-0.72-6.01-1.74-8.87-3.08c-4.2-1.91-7.53-4.91-10.01-9.01
		c-1.91-3.05-3.27-6.27-4.08-9.65c-0.81-3.38-1.45-6.84-1.93-10.37c-0.19-1.52-0.29-3.03-0.29-4.5c0-1.48-0.1-3.03-0.29-4.65
		c0.19-3.34,0.48-6.67,0.86-10.01c0.38-3.34,1.09-6.67,2.15-10.01c0.57-1.91,1.09-3.79,1.57-5.65c0.48-1.86,0.52-3.88,0.14-6.08
		c-0.19-1.62,0.12-3.17,0.93-4.65c0.81-1.48,1.74-2.88,2.79-4.22c4.67-6.29,9.99-11.44,15.94-15.44c5.96-4,12.94-6.29,20.95-6.86
		c6.77-0.48,13.04,0.31,18.8,2.36c5.77,2.05,10.84,5.93,15.23,11.66c3.05,4,5.43,8.15,7.15,12.44S426.46,97.77,426.65,102.72z
		 M414.92,114.45c1.05-4.48,1.38-8.84,1-13.08c-0.38-4.24-1.76-8.41-4.15-12.51c-1.43-2.48-3.03-4.74-4.79-6.79
		c-1.76-2.05-3.74-3.93-5.93-5.65c-2.48-1.91-5.1-3.41-7.87-4.5c-2.77-1.09-5.72-1.69-8.87-1.79c-1.05,0-1.81,0.26-2.29,0.79
		c-0.48,0.53-0.48,1.17,0,1.93l0.14,0.14c0,0.19,0.09,0.38,0.29,0.57c0.19,0.38,0.38,0.74,0.57,1.07c0.19,0.33,0.38,0.69,0.57,1.07
		c0.67,1.43,1.26,3.17,1.79,5.22c0.52,2.05,0.5,4.08-0.07,6.08c-0.48,1.62-1.17,2.62-2.07,3c-0.91,0.38-1.84,0.43-2.79,0.14
		c-0.95-0.29-1.79-0.79-2.5-1.5c-0.71-0.71-1.12-1.45-1.21-2.22c-0.19-0.48-0.33-0.86-0.43-1.14c-0.1-0.29-0.14-0.57-0.14-0.86
		c-0.1-3.72-2-6.01-5.72-6.86c-1.43-0.38-2.62-0.19-3.58,0.57c-0.95,0.76-1.91,1.57-2.86,2.43c-1.72,1.72-3.2,3.58-4.43,5.58
		c-1.24,2-2.38,4.1-3.43,6.29c-3.24,6.58-5.46,13.35-6.65,20.31c-1.19,6.96-1.45,14.11-0.79,21.45c0.19,2.29,0.59,4.53,1.22,6.72
		c0.62,2.19,1.45,4.29,2.5,6.29c1.62,3.15,3.72,5.75,6.29,7.79c2.57,2.05,5.77,3.17,9.58,3.36c9.15,0.29,17.35-2.38,24.6-8.01
		c3.62-2.86,6.86-6.1,9.72-9.72c2.86-3.62,5.2-7.67,7.01-12.15c1.05-2.29,2.02-4.6,2.93-6.94
		C413.47,119.19,414.25,116.83,414.92,114.45z"/>
	<path class="st5" d="M454.82,129.61c0.19,3.53,0.33,7.22,0.43,11.08c0.09,3.86,0.24,7.79,0.43,11.8c0,1.53,0.05,3.03,0.14,4.5
		c0.09,1.48,0.14,2.93,0.14,4.36c-0.1,1.62-0.88,3-2.36,4.15c-1.48,1.14-3.03,1.48-4.65,1c-1.24-0.29-2-0.95-2.29-2
		c-0.67-1.43-1.05-2.81-1.14-4.15c-0.29-2.1-0.5-4.19-0.64-6.29c-0.14-2.1-0.12-4.19,0.07-6.29c0.29-5.62,0.45-11.2,0.5-16.73
		c0.05-5.53-0.02-11.06-0.21-16.59c0-0.67-0.02-1.31-0.07-1.93c-0.05-0.62-0.02-1.26,0.07-1.93c0.86-7.44,0.91-14.75,0.14-21.95
		c-0.76-7.2-1.62-14.46-2.57-21.81c-0.19-0.57-0.29-1-0.29-1.29c-0.29-2,0.09-3.46,1.14-4.36c1.05-0.91,2.52-1.02,4.43-0.36
		c1.33,0.48,2.41,1.12,3.22,1.93c0.81,0.81,1.31,1.98,1.5,3.5c0.48,3.53,0.83,7.06,1.07,10.58c0.24,3.53,0.45,7.1,0.64,10.72
		c0.19,2.77,0.33,5.58,0.43,8.44c0.09,2.86,0.19,5.67,0.29,8.44c0.19,2.19,1.19,3.62,3,4.29c1.43,0.67,2.55,0.95,3.36,0.86
		c0.81-0.09,1.79-0.67,2.93-1.72c4.77-4.96,9.44-9.91,14.01-14.87c4.58-4.96,8.87-10.3,12.87-16.02c1.24-1.81,2.55-3.55,3.93-5.22
		c1.38-1.67,2.83-3.31,4.36-4.93c0.38-0.38,0.79-0.72,1.22-1c0.43-0.29,0.93-0.38,1.5-0.29c0.57,0.19,1.12,0.64,1.64,1.36
		c0.52,0.71,0.83,1.41,0.93,2.07c0,0.29-0.02,0.6-0.07,0.93c-0.05,0.33-0.07,0.64-0.07,0.93c-0.19,1.34-0.53,2.57-1,3.72
		c-0.48,1.14-1.05,2.24-1.72,3.29c-3.15,4.86-6.46,9.56-9.94,14.08c-3.48,4.53-7.22,8.94-11.23,13.23
		c-2.96,3.05-5.77,6.15-8.44,9.29c-0.76,0.95-1.14,1.72-1.14,2.29s0.43,1.24,1.29,2c2.57,2.29,5.17,4.58,7.79,6.86
		c2.62,2.29,5.36,4.43,8.22,6.43c2.19,1.53,4.41,2.91,6.65,4.15c2.24,1.24,4.55,2.48,6.94,3.72c2.19,1.24,4.36,2.48,6.51,3.72
		c2.15,1.24,4.31,2.53,6.51,3.86c1.05,0.57,2,1.24,2.86,2c0.86,0.76,1.72,1.53,2.57,2.29c1.05,1.05,1.36,2.19,0.93,3.43
		c-0.43,1.24-1.36,2.05-2.79,2.43c-0.76,0.19-1.5,0.26-2.22,0.21c-0.71-0.05-1.41-0.31-2.07-0.79c-4.67-3.05-9.46-5.81-14.37-8.29
		c-4.91-2.48-9.8-5.15-14.66-8.01c-2.96-1.72-5.72-3.65-8.29-5.79c-2.57-2.14-5.1-4.31-7.58-6.51c-1.72-1.43-3.43-2.84-5.15-4.22
		c-1.72-1.38-3.43-2.74-5.15-4.08c-0.48-0.38-0.93-0.69-1.36-0.93c-0.43-0.24-0.93-0.26-1.5-0.07c-0.67,0.19-1,0.55-1,1.07
		c0,0.52-0.05,1.03-0.14,1.5c-0.1,1.14-0.17,2.34-0.21,3.58C455.13,126.56,455.01,127.99,454.82,129.61z"/>
	<path class="st5" d="M603.25,84.99c-0.86,0.48-1.36,1.12-1.5,1.93c-0.14,0.81-0.31,1.6-0.5,2.36c-0.76,3.81-1.5,7.63-2.22,11.44
		c-0.71,3.81-1.45,7.63-2.22,11.44c-0.67,2.96-1.34,5.86-2,8.72c-0.67,2.86-1.38,5.72-2.15,8.58c-0.67,2.38-1.57,3.88-2.72,4.5
		c-1.14,0.62-3,0.79-5.58,0.5c-2-0.19-3.29-1.33-3.86-3.43c-0.19-0.57-0.33-1.14-0.43-1.72c-0.1-0.57-0.19-1.14-0.29-1.72
		c-0.29-2.76-0.88-5.43-1.79-8.01c-0.91-2.57-1.88-5.15-2.93-7.72c-1.34-3.05-2.65-6.08-3.93-9.08s-2.6-6.03-3.93-9.08
		c-0.57-1.14-1.24-2.38-2-3.72c-0.1-0.19-0.48-0.38-1.14-0.57c-0.48-0.09-0.79,0-0.93,0.29c-0.14,0.29-0.26,0.57-0.36,0.86
		c-0.38,1.05-0.69,2.05-0.93,3c-0.24,0.95-0.5,1.96-0.79,3c-2.1,7.15-4.24,14.25-6.44,21.31c-2.19,7.06-4.53,14.16-7.01,21.31
		c-1.05,2.77-1.96,5.58-2.72,8.44c-0.76,2.86-1.62,5.72-2.57,8.58c-0.76,2.19-1.69,3.62-2.79,4.29c-1.1,0.67-2.74,0.81-4.93,0.43
		c-0.95-0.19-1.74-0.62-2.36-1.29c-0.62-0.67-0.84-1.52-0.64-2.57c0.19-1.05,0.43-2.05,0.71-3c0.29-0.95,0.57-1.91,0.86-2.86
		c3.24-9.82,6.53-19.59,9.87-29.31c3.34-9.72,6.34-19.59,9.01-29.6c0.76-3.05,1.41-6.08,1.93-9.08c0.52-3,0.55-6.08,0.07-9.22
		c-0.48-2.29,0.14-4.15,1.86-5.58c0.38-0.19,0.79-0.43,1.22-0.71c0.43-0.29,0.83-0.38,1.21-0.29c1.43,0.29,2.86,0.6,4.29,0.93
		c1.43,0.33,2.67,1.17,3.72,2.5c0.86,1.05,1.69,2.12,2.5,3.22c0.81,1.1,1.55,2.27,2.22,3.5c2,3.91,3.88,7.84,5.65,11.8
		c1.76,3.96,3.45,7.94,5.08,11.94c0.29,0.67,0.5,1.36,0.64,2.07c0.14,0.71,0.36,1.38,0.64,2c0.29,0.62,0.67,1.19,1.14,1.72
		c0.48,0.53,1.14,0.93,2,1.22c1.05-1.05,1.64-2.24,1.79-3.58c0.14-1.33,0.36-2.67,0.64-4c0.86-3.81,1.62-7.63,2.29-11.44
		c0.67-3.81,1.38-7.63,2.14-11.44c0.38-1.91,0.83-3.79,1.36-5.65c0.52-1.86,1.02-3.74,1.5-5.65c0.19-0.76,0.45-1.52,0.79-2.29
		c0.33-0.76,0.79-1.43,1.36-2c1.52-1.33,3.19-1.76,5-1.29c1.81,0.48,3.36,1.19,4.65,2.14c1.29,0.95,2.26,2.29,2.93,4
		c0.38,1.05,0.79,2.12,1.21,3.22c0.43,1.1,0.79,2.22,1.07,3.36c1.33,5.43,2.62,10.87,3.86,16.3c1.24,5.43,2.38,10.92,3.43,16.44
		c1.05,5.53,2,11.06,2.86,16.59c0.86,5.53,1.72,11.11,2.57,16.73c0.57,4.1,1.29,8.15,2.14,12.15c0.86,4,1.81,8.01,2.86,12.01
		c0.38,1.24,0.74,2.45,1.07,3.65c0.33,1.19,0.64,2.41,0.93,3.65c0.48,2.1,0.14,4.1-1,6.01c-0.76,1.33-1.93,2.05-3.5,2.14
		c-1.57,0.09-2.84-0.52-3.79-1.86c-0.48-0.86-0.91-1.77-1.29-2.72c-0.38-0.95-0.76-1.91-1.14-2.86c-2-5.81-3.62-11.68-4.86-17.59
		c-1.24-5.91-2.34-11.87-3.29-17.88c-1.14-8.01-2.46-15.92-3.93-23.74c-1.48-7.82-3.03-15.68-4.65-23.59
		C604.97,87.42,604.3,86.04,603.25,84.99z"/>
	<path class="st5" d="M725.23,110.01c1.14,1.05,1.48,2.38,1,4c-0.48,1.72-1.48,2.72-3,3c-1.05,0.29-2.29,0.33-3.72,0.14
		c-1.24-0.19-2.43-0.21-3.58-0.07c-1.14,0.14-2.29,0.31-3.43,0.5c-0.29,0.1-0.6,0.17-0.93,0.21c-0.33,0.05-0.64,0.17-0.93,0.36
		c-1.05,0.48-1.93,1.12-2.65,1.93c-0.71,0.81-1.07,1.93-1.07,3.36c0,0.48,0.02,1.19,0.07,2.15c0.05,0.95,0.12,1.96,0.21,3
		c0.09,1.05,0.19,2,0.29,2.86c0.09,0.86,0.19,1.43,0.29,1.72c0.48,2.29,0.93,4.58,1.36,6.86c0.43,2.29,0.88,4.58,1.36,6.86
		c0.48,2,0.95,3.96,1.43,5.86c0.48,1.91,1.19,3.81,2.15,5.72c0.57,1.05,0.95,2.24,1.14,3.58c0.29,1.43-0.02,2.57-0.93,3.43
		c-0.91,0.86-2.12,1.19-3.65,1c-3.62-0.57-5.86-2.52-6.72-5.86c-0.48-1.52-0.91-3.05-1.29-4.58c-0.38-1.52-0.67-3.1-0.86-4.72
		c-0.76-4.19-1.34-8.39-1.72-12.58c-0.19-0.38-0.29-1-0.29-1.86c0-0.57-0.05-1-0.14-1.29v-2.43c-0.38-2.67-0.95-4.93-1.72-6.79
		c-0.76-1.86-1.29-3.03-1.57-3.5c-0.1-0.29-0.24-0.62-0.43-1c-2.29,0.76-4.5,1.53-6.65,2.29c-2.15,0.76-4.03,1.43-5.65,2
		c-1.91,0.67-3.72,1.34-5.43,2c-1.05,0.57-2.05,1.14-3,1.72c-0.95,0.57-1.96,1.1-3,1.57c-3.62,1.62-6.34,4.43-8.15,8.44
		c-1.62,3.34-3.2,6.67-4.72,10.01c-1.53,3.34-2.96,6.77-4.29,10.3c-0.1,0.29-0.19,0.57-0.29,0.86c-0.1,0.29-0.19,0.57-0.29,0.86
		c-1.05,2-2.1,3.17-3.15,3.5c-1.05,0.33-2.53-0.02-4.43-1.07c-1.81-1.05-2.53-2.43-2.15-4.15c0.38-1.62,0.76-3.26,1.14-4.93
		c0.38-1.67,0.81-3.31,1.29-4.93c0.09-0.38,0.62-1.36,1.57-2.93c0.95-1.57,1.98-3.26,3.08-5.08c1.09-1.81,2.05-3.55,2.86-5.22
		c0.81-1.67,1.12-2.79,0.93-3.36c-1.24-3.62-0.19-5.91,3.15-6.86c1.52-0.48,2.72-1.14,3.57-2c0.86-0.86,1.62-1.95,2.29-3.29
		c2.48-4.86,4.98-9.65,7.51-14.37c2.52-4.72,5.03-9.51,7.51-14.37c0.95-1.91,1.98-3.72,3.07-5.43c1.09-1.72,2.02-3.62,2.79-5.72
		c0.19-0.57,0.5-1.41,0.93-2.5c0.43-1.09,0.86-2.22,1.29-3.36c0.43-1.14,0.83-2.26,1.22-3.36c0.38-1.09,0.67-1.93,0.86-2.5
		c0.48-2,0.88-3.98,1.22-5.93c0.33-1.95,0.74-3.93,1.22-5.93c0.19-0.86,0.45-1.67,0.79-2.43c0.33-0.76,1.02-1.24,2.07-1.43
		c1.33-0.19,2.57-0.14,3.72,0.14c1.14,0.29,2.19,0.95,3.15,2c1.05,1.24,1.67,2.81,1.86,4.72c0.19,3.34,0.43,6.6,0.71,9.8
		c0.29,3.2,0.52,6.46,0.71,9.79c0.09,1.91,0.07,3.81-0.07,5.72c-0.14,1.91-0.26,3.81-0.36,5.72c-0.1,0.19-0.14,0.41-0.14,0.64
		c0,0.24-0.05,0.45-0.14,0.64c0.19,1.43,0.43,3.1,0.71,5c0.29,1.91,0.57,3.72,0.86,5.43c0.38,2,0.71,4.05,1,6.15
		c0.57,0.19,1.12,0.33,1.64,0.43c0.52,0.1,1.07,0,1.64-0.29c0.95-0.48,1.93-0.83,2.93-1.07c1-0.24,2.02-0.55,3.08-0.93
		c1.62-0.67,3.17-0.79,4.65-0.36C722.49,108.23,723.89,108.97,725.23,110.01z M678.9,119.31c0.76-0.19,1.38-0.29,1.86-0.29
		c1.52-0.29,3.15-0.74,4.86-1.36c1.72-0.62,3.31-1.24,4.79-1.86c1.48-0.62,2.81-1.24,4-1.86c1.19-0.62,2.07-1.07,2.65-1.36
		c0.19-0.76,0.29-1.52,0.29-2.29c0.19-1.43,0.14-2.67-0.14-3.72c-0.1-0.48-0.17-0.98-0.21-1.5c-0.05-0.52-0.07-1.02-0.07-1.5
		c-0.19-3.34-0.38-6.44-0.57-9.29c-0.19-2.38-0.33-4.65-0.43-6.79c-0.1-2.14-0.14-3.45-0.14-3.93c-0.1-0.67-0.24-1.02-0.43-1.07
		c-0.19-0.05-0.38,0.02-0.57,0.21c-2.57,2.29-4.93,5.39-7.08,9.29c-2.14,3.91-3.98,7.77-5.5,11.58c-1.53,3.81-2.74,7.25-3.65,10.29
		c-0.91,3.05-1.41,4.86-1.5,5.43c0.09,0,0.17,0.02,0.21,0.07c0.05,0.05,0.12,0.07,0.21,0.07
		C678.04,119.45,678.51,119.41,678.9,119.31z"/>
</g>
<text transform="matrix(1 0 0 1 445.2765 409.0774)" class="st6 st1 st7">売る</text>
<g>
	<path class="st8" d="M90.32,309.83c39.34,1.04,78.81-2.56,117.32-10.69c25.82-5.45,51.19-12.93,77.04-18.25
		c60.85-12.52,123.44-12.92,185.56-13.28c14.29-0.08,28.66-0.16,42.78,2.09c14.71,2.35,28.89,7.18,43.4,10.57
		c43.58,10.2,90.19,7.04,131.99-8.94"/>
	<g>
		<path class="st8" d="M90.32,311.33c39.88,1.01,79.84-2.66,118.86-10.99c19.55-4.17,38.84-9.47,58.29-14.08
			c19.8-4.69,39.79-8.33,59.99-10.8c39.87-4.88,80.08-5.85,120.2-6.2c19.98-0.17,40.33-1.22,60.2,1.22
			c19.65,2.41,38.29,9.6,57.69,13.25c36.44,6.85,74.54,4.66,109.96-6.35c4.48-1.39,8.91-2.94,13.3-4.6c1.79-0.68,1.01-3.58-0.8-2.89
			c-35.39,13.43-74,17.85-111.51,12.62c-19.2-2.68-37.41-9.09-56.32-13c-19.48-4.03-39.41-3.46-59.19-3.34
			c-39.95,0.25-79.97,0.76-119.75,4.76c-19.49,1.96-38.91,4.76-58.09,8.75c-19.57,4.08-38.86,9.35-58.3,14.02
			c-39.19,9.4-79.14,14.66-119.47,14.8c-5.02,0.02-10.03-0.04-15.05-0.17C88.39,308.28,88.39,311.28,90.32,311.33L90.32,311.33z"/>
	</g>
</g>
<ellipse class="st9" cx="308.5" cy="206.5" rx="60" ry="36.47"/>
<ellipse class="st3" cx="294" cy="193.5" rx="15.5" ry="9"/>
</svg>
