<?xml version="1.0" encoding="utf-8"?>
<!-- Generator: Adobe Illustrator 23.1.1, SVG Export Plug-In . SVG Version: 6.00 Build 0)  -->
<svg version="1.1" id="レイヤー_1" xmlns="http://www.w3.org/2000/svg" xmlns:xlink="http://www.w3.org/1999/xlink" x="0px"
	 y="0px" viewBox="0 0 816 800.79" style="enable-background:new 0 0 816 800.79;" xml:space="preserve">
<style type="text/css">
	.st0{fill:#87B73E;}
	.st1{fill:#FEFEFE;}
	.st2{fill:#C3DB9F;}
	.st3{fill:#D4E5BA;}
	.st4{fill:#B1D081;}
	.st5{fill:#C6DDA3;}
	.st6{fill:#DAE8C3;}
	.st7{fill:#E1EDD0;}
	.st8{fill:#C9DFA8;}
	.st9{fill:#D3E4B7;}
	.st10{fill:#CCE0AD;}
	.st11{fill:#D1E3B5;}
	.st12{fill:#BFD897;}
	.st13{fill:#C0D999;}
	.st14{fill:#C9DFA9;}
	.st15{fill:#C2DA9D;}
	.st16{fill:#BCD692;}
	.st17{fill:#C3DB9E;}
	.st18{fill:#BDD794;}
	.st19{fill:#BDD795;}
	.st20{fill:#C2DB9D;}
	.st21{fill:#CEE1AF;}
	.st22{fill:#BFD999;}
	.st23{fill:#C4DCA0;}
	.st24{fill:#B8D48D;}
	.st25{fill:#C5DCA1;}
	.st26{fill:#C2DA9C;}
	.st27{fill:#BED897;}
	.st28{fill:#BED896;}
	.st29{fill:#BFD998;}
	.st30{fill:#BFD898;}
	.st31{fill:#C5DCA2;}
	.st32{fill:#C6DCA3;}
	.st33{fill:#BDD793;}
	.st34{fill:#BAD690;}
	.st35{fill:#BCD793;}
	.st36{fill:#C4DB9F;}
	.st37{fill:#C4DCA1;}
	.st38{fill:#BBD692;}
	.st39{fill:#D4E5BB;}
	.st40{fill:#D6E6BD;}
	.st41{fill:#D9E8C3;}
	.st42{fill:#DEEBCB;}
	.st43{fill:#D6E6BE;}
	.st44{fill:#C6DDA4;}
	.st45{fill:#C0D99A;}
	.st46{fill:#D3E4B8;}
	.st47{fill:#DDEAC9;}
	.st48{fill:#E1EDCF;}
	.st49{fill:#D5E5BB;}
	.st50{fill:#C1DA9C;}
	.st51{fill:#C4DBA0;}
	.st52{fill:#D2E4B7;}
	.st53{fill:#D5E6BC;}
	.st54{fill:#D5E6BB;}
	.st55{fill:#C7DDA4;}
	.st56{fill:#D9E8C2;}
	.st57{fill:#D7E7BE;}
	.st58{fill:#C7DDA5;}
	.st59{fill:#D7E6BE;}
	.st60{fill:#DBE9C5;}
	.st61{fill:#C8DEA6;}
	.st62{fill:#D0E3B4;}
	.st63{fill:#FBFCF9;}
	.st64{fill:#F4F8EE;}
	.st65{fill:#DCEAC7;}
	.st66{fill:#D2E3B6;}
	.st67{fill:#CADFA9;}
	.st68{fill:#BBD690;}
	.st69{fill:#FDFDFC;}
	.st70{fill:#FEFEFD;}
	.st71{fill:#FDFEFD;}
	.st72{fill:#DBE9C6;}
	.st73{fill:#FCFDFC;}
</style>
<g>
	<g>
		<path class="st0" d="M0.12,297.19c0-27.98,0-55.96,0-83.94c1.46-0.41,4.02,0.88,3.64-2.37c-0.45-3.82,1.07-7.43,2.64-10.49
			c4.34-8.47,7.49-17.63,13.7-25.09c2.72-3.27,2.59-9.56-0.68-12.71c-3.3-3.18-3.33-5.73,0.11-8.63c1.27-1.07,2.19-2.46,2.36-4.25
			c0.12-1.34,0.61-2.64,1.47-3.66c6.69-8.01,8.26-18.52,13.44-27.28c2.7-4.57,4.11-9.65,5.19-14.89c1.37-6.64,6.01-11.77,9.46-17.36
			c7.86-12.72,19.13-22.7,30.41-32.02c6.99-5.78,15.64-10.39,24.29-14.24c4.85-2.16,9.48-4.8,14.28-7.06
			c4.61-2.17,9.02-4.54,14.27-5.54c5.39-1.03,9.48-5.87,15.07-7.2c6.35-0.45,12.59-0.71,18.54-3.86c3.38-1.78,7.79-0.4,11.73-0.64
			c1.87,0.1,3.57-0.32,5.17-1.36c3.89-2.54,7.59-1.77,10.88,1.09c2.17,1.9,4.55,2.4,7.31,2.35c5.97-0.1,11.96,0.3,17.9-0.09
			c14.91-0.98,29.53,3.14,44.43,2.22c3.27-0.2,6.21,2.1,9.51,2.51c6.24,3.21,12.6,5.97,19.86,5.35c3.14-0.27,5.89,1.28,8.57,2.33
			c3.73,1.46,7.41,1.63,11.22,1.63c34.64,0,69.28,0.34,103.91-0.19c11.36-0.17,22.69-2.44,34.14-1.91c1.42,0.07,2.51-0.78,3.71-1.33
			c7.06-1.19,14.17-0.4,21.26-0.53c7.27-0.14,14.55-0.15,21.81,0.02c3.33,0.08,6.2-0.57,8.53-3.02c2.29-1.34,4.84-0.99,7.31-0.99
			c20.95-0.03,41.9-0.08,62.84,0.04c4.05,0.02,6.05-0.51,7.48-5.38c4.11-13.98,17.58-19.57,30.39-9.13
			c2.68,2.18,5.25,4.62,7.05,7.68c1.48,6.77,1.48,6.77,8.51,6.77c5.64,0,11.28,0.02,16.91,0c6.45-0.02,6.45-0.03,6.48-6.71
			c0.01-1.33-0.01-2.65,0.01-3.98c0.13-8.02,5.34-13.18,13.41-13.28c2.82-0.03,5.64,0.11,8.46-0.03c3.74-0.19,6.86,0.87,9.23,3.83
			c3.74,4.68,8.08,8.8,12.51,12.82c0.91,0.79,1.75,1.63,2.34,2.7c0.55,1.6,1.3,3.1,2.22,4.52c0.22,0.48,0.36,0.98,0.46,1.49
			c2.75,6.43,2.09,13.2,2.08,19.91c0.08,1.81-0.47,3.75,1.04,5.29c1.93,2.15,4.11,4.05,6.01,6.23c0.93,1.3,2.48,1.5,3.81,2.11
			c0.99,0.58,1.77,1.38,2.51,2.23c4.92,5.42,10.13,10.55,15.52,15.5c0.87,0.75,1.67,1.55,2.25,2.55c0.59,1.39,0.92,2.94,2.29,3.87
			c5.25,3.88,8.14,9.67,11.95,14.72c1.21,5.44,4.32,10.34,4.56,16.05c0,1.97-0.13,3.92,1.5,5.53c7.61,7.51,15.16,15.08,21.71,23.57
			c3.56,6.26,8.8,11.08,13.91,15.98c2.32,2.22,3.45,5.21,5.33,7.72c1.88,2.52,3.44,4.95,6.42,6.52c4.18,2.21,1.37,5.34,0.34,8.12
			c-4.84,5.37-10.67,9.9-14.12,16.47c-4.09,3.81-8.05,7.75-11.88,11.81c-3.29,3.49-6.99,6.4-10.96,9.05
			c-7.28,4.84-14.72,8.5-23.71,4.35c-1.78-0.82-3.95-0.26-5.95-0.32c-1.99-0.05-4.16,0.3-5.86-0.86
			c-4.86-3.33-10.29-3.22-15.82-3.16c-10.16,0.12-20.32,0.04-30.48,0.02c-2.23,0-4.28,0.21-5.96,1.92
			c-6.25,6.42-13.88,5.28-20.8,2.4c-5.89-2.45-11.62-2.25-17.55-2.21c-2.01,0.01-3.21,1.59-4.66,2.68
			c-1.43,1.02-3.11,1.15-4.77,1.21c-1.66,0.06-2.84,0.9-3.8,2.1c-9.26,11.64-20.89,20.15-34.34,26.33
			c-2.03,0.93-4.05,1.69-6.23,1.45c-9.71-1.07-14.78,5.35-17.48,12.72c-3.16,8.6-6.71,16.94-10.88,25.06
			c-1.34,2.61-1.91,5.23-1.85,8.13c0.1,4.66,0.04,9.33,0.02,13.99c-0.01,1.5,0.31,3.3-0.64,4.38c-3.53,3.99-3.51,8.74-3.44,13.57
			c0.02,1-0.13,2.05-0.65,2.9c-4.03,6.62-4.94,14.4-7.94,21.31c-2.49,5.72-3.62,11.28-3.36,17.32c0.05,1.17-0.18,2.32-0.66,3.41
			c-2.29,8.52-7.58,16.06-7.58,25.39c0,3.1-1.42,6.47-3.06,9.33c-5.04,8.83-7.34,18.65-10.8,28.07c-4.04,11-7.22,22.25-10.65,33.41
			c-2.15,7.01-3.94,14.31-3.1,21.86c0.32,2.89,1.7,5.35,3.51,7.53c3.05,3.68,7.1,6.49,9.21,11.01c0.66,1.42,2.29,1.65,3.86,1.84
			c5.96,0.69,9.23,4.57,11.24,9.84c0.1,2.1,0.18,4.21-0.22,6.29c-0.12,0.51-0.31,0.99-0.56,1.45c-1.2,1.38-1.37,3.32-2.56,4.71
			c-4.34,4.1-7.9,9.04-13.13,12.16c-2.78,1.66-5.78,2.26-9.05,2.23c-10.65-0.1-21.3-0.09-31.95,0.01c-2.02,0.02-4.65-1.02-5.9,1.41
			c-1.42,2.76,0.82,4.63,2.32,6.58c0.42,0.69,0.55,1.44,0.4,2.24c-2.5,3.23-4.56,6.72-6.09,10.51c-4.64,4.65-8.72,9.96-14.95,12.76
			c-7.45,3.45-15.05,3.4-22.73,0.94c-0.81-0.26-1.62-0.51-2.44-0.42c-4.85,0.54-8.21-1.93-11.19-5.33
			c-2.34-2.66-4.89-5.07-8.84-4.88c-4.41-1.64-9.17-2.48-12.52-6.39c-1.88-2.19-5.05-1.13-7.47-2.13
			c-8.2-6.67-18.33-10.84-25.11-19.37c-0.96-4.11-0.65-8.29-0.42-12.4c0.41-7.38-1.59-14.02-5.11-20.34
			c-1.28-4.07-2.35-8.22-4.06-12.16c-1.27-3.14-0.25-7.11-3.48-9.54c-1.02-1.16-1.08-2.81-2.05-4c-0.25-0.33-0.46-0.69-0.63-1.06
			c-0.41-1.14-0.68-2.34-1.55-3.28c-0.26-0.36-0.45-0.74-0.61-1.15c-0.15-0.43-0.25-0.87-0.32-1.32c0.05-2.05-1.41-3.54-1.97-5.36
			c-0.6-5.13-0.68-10.33-0.18-15.4c0.81-8.23-2.89-15.91-2.26-24.06c0.17-2.17-2-3.32-3.02-4.99c-1-1.95-0.76-4.08-0.85-6.15
			c-2.79-8.7-0.77-17.88-2.37-26.54c-1.19-6.45-1.34-12.77-1.67-19.18c-0.26-5-2.18-6.67-7.06-6.91
			c-7.94-0.39-15.33,1.54-22.56,4.65c-4.71,2.03-9.51,3.85-14.84,3.38c-11.46-1.02-22.59,3.08-34.1,2.14
			c-4.46-0.37-4.62,3.36-4.51,6.7c-0.04,26.42,0.3,52.84-0.18,79.25c-0.16,9.05,3.89,13.57,14.49,15.03
			c0.82,0.11,1.66,0.07,2.47,0.19c1.79,0.27,3.03,1.75,4.76,2.17c0.42,0.16,0.82,0.38,1.2,0.62c1.09,1.12,2.62,1.39,3.99,1.99
			c0.39,0.24,0.74,0.53,1.08,0.85c2.66,2.82,6.48,3.04,9.83,4.13c3.92,1.29,6.61,3.47,8.01,7.3c0.3,2.1,0,4.34,1.45,6.17
			c0.84,2.04,0.72,4.41,2.19,6.23c0.65,1.81,0.68,3.62-0.05,5.42c-3.78,4.02-7.12,8.51-12.01,11.38
			c-12.59,0.41-25.18,0.66-37.76-0.11c-3.25-2.75-6.99-3.41-11.24-3.9c-6.79-0.79-13.23-3.58-19.54-6.34
			c-2.46-1.98-5.4-1.5-8.16-1.37c-7.88,0.37-14.27-2.91-19.55-8.26c-4.04-4.09-9.09-7.36-11.47-12.95
			c-0.23-4.42-1.97-8.41-3.64-12.42c-1.02-3.2-0.4-6.5-0.61-9.75c-0.11-1.77,0.28-3.63-0.95-5.2c-0.99-4.12-4.31-6.48-7.01-9.32
			c-1.24-1.3-2.76-2.37-3.52-4.09c-0.85-2.89-0.38-5.85-0.51-8.77c-0.19-7.22-4.5-13.01-9.86-13.22c-5.47-0.22-8.29,2.03-9.26,7.43
			c-0.23,1.3-0.12,2.64-0.11,3.97c-0.21,4.22,0.5,8.47-0.52,12.65c-2.22,2.78-4.31,5.61-3.47,9.52c-0.01,6.26,0.98,12.71-0.26,18.72
			c-1.58,7.66-1.68,15.25-1.74,22.91c-0.63,9.23,6.49,12.66,12.64,16.79c3.85,2.28,7.9,4.17,11.95,6.05
			c4.35,4.15,8.72,8.29,12.72,12.8c1.18,3.04,3.52,5.85,1.97,9.46c-3.06,6.36-8.13,10.92-13.55,15.2
			c-4.34,0.26-8.35,1.13-11.97,3.97c-2.61,2.04-5.94,2.71-9.4,2.49c-5.77-0.36-11.59,0.56-17.34-0.56
			c-3.39-2.15-7.48-2.39-11.16-3.08c-4.14-0.79-8.2-1.87-12.3-2.77c-1.55-0.66-2.88-1.8-4.57-2.18c-0.45-0.18-0.87-0.41-1.28-0.66
			c-5.65-0.93-10.74-3.03-15.26-6.65c-1.5-1.2-3.46-1.86-5.45-2.34c-3.25-0.79-6.26-2.23-8.67-4.67
			c-7.36-7.46-14.96-14.68-22.16-22.3c-1.24-2.9-2.68-5.7-4.25-8.44c-0.84-4.17-0.11-8.87-4.01-12.03c-0.98-2.56-0.5-5.23-0.64-7.86
			c-0.07-1.48,0.31-3.1-0.53-4.38c-3.36-5.1-3.95-10.77-3.44-16.61c0.27-3.08-1.88-4.78-3.32-6.91c-1.45-5.74-0.65-11.59-0.62-17.38
			c0.02-4.02-0.64-7.56-3.39-10.58c-1.39-5.19-0.55-10.49-0.68-15.74c-0.15-5.93-0.19-11.88,0.02-17.81
			c0.14-3.81-0.54-7.18-3.16-10.03c-1.84-6.18-0.59-12.51-0.84-18.77c-0.13-3.18-0.2-6.26-2.04-9.02
			c-2.26-3.38-1.98-7.24-2.02-11.05c-0.09-7.53,0.83-15.07-3.28-22.21c-1.94-3.36-0.65-7.83-0.66-11.8
			c-0.01-2.89-0.23-5.61-2.2-7.93c-1.99-2.35-1.7-5.24-1.86-8.05c-0.27-4.74,0.73-9.51-1.37-14.21
			C3.32,300.1,2.1,298.45,0.12,297.19z"/>
		<path class="st1" d="M815.52,799.83c0,3.33,1.3,7.95-0.37,9.62c-1.66,1.66-6.29,0.37-9.62,0.37c-266.87,0-533.74-0.01-800.61,0.1
			C1,809.92,0,809.31,0,805.13c0.14-168.65,0.12-337.3,0.12-505.95c4.5-2.13,3.44,2.12,4.51,3.93c0.26,0.51,0.48,1.04,0.67,1.58
			c1.76,6.14-0.19,12.58,1.49,18.72c3.41,4.85,4.32,10.27,3.82,16.06c-0.33,3.87,0.46,7.47,2.35,10.95c1.42,2.63,1.64,5.67,1.65,8.7
			c0.03,8.04-0.74,16.06,3.07,23.79c2.21,4.48,0.62,9.82,0.92,14.76c0.17,2.79-0.57,5.63,0.53,8.36c3,4.28,3.57,9.05,3.54,14.18
			c-0.07,9.78-0.53,19.58,0.29,29.35c4.69,6.19,3.53,13.42,3.64,20.43c0.04,2.46-0.3,4.94,0.24,7.37
			c2.88,5.54,3.61,11.51,3.54,17.64c0.27,0.44,0.49,0.9,0.68,1.38c2.37,5.28,3.51,10.8,3.23,16.59c0.22,0.42,0.45,0.85,0.69,1.26
			c1.86,3.52,3.4,7.14,3.5,11.21c0.26,0.39,0.45,0.82,0.6,1.26c1.7,5.23,4.13,9.98,8.23,13.84c4.56,4.29,8.93,8.8,13.3,13.29
			c2.74,2.81,5.88,4.73,9.8,5.28c3.99,1.11,7.58,3.1,10.89,5.47c2.64,1.89,5.45,2.79,8.58,3.03c4.9,2.28,9.97,4.13,15.09,5.83
			c2.87,0.9,5.93,0.66,8.82,1.49c0.49,0.16,0.95,0.36,1.41,0.6c2.44,0.95,5.14,0.81,7.58,1.77c7.3,0.47,14.59,0.14,21.89,0.17
			c2.86,0.01,5.45-1,7.82-2.69c2.73-1.95,5.69-3.44,9.19-3.27c0.5,0.03,1-0.03,1.48-0.17c7.01-1.26,9.91-6.41,11.83-12.5
			c0.12-0.43,0.3-0.84,0.52-1.23c0.78-2.36,0.75-4.73-0.01-7.09c-0.22-0.41-0.38-0.84-0.52-1.28c-2.17-7.79-7.43-12.93-14.65-15.87
			c-10.36-4.22-17.73-11.9-24.8-20.08c0-0.55,0-1.09,0-1.65c-0.17-14,3.28-27.8,2.04-41.83c4.03-6.8,4.46-14.26,3.96-21.88
			c0.63-3.46,1.8-6.64,4.47-9.15c3.68-3.46,6.24-3.61,9.8-0.12c3.1,3.03,5.42,6.61,6.63,10.83c-1.12,8.03,1.41,14.5,7.82,19.65
			c3.28,2.63,4.32,6.64,4.16,10.75c-0.17,4.36,0.41,8.55,1.83,12.65c1.12,2,1.5,4.25,2.19,6.4c0.01,0.96,0.06,1.92,0.48,2.82
			c1.44,6.14,6.66,9.2,10.95,12.82c2.69,2.27,6.17,3.76,9.78,4.52c0.47,0.18,0.92,0.39,1.35,0.64c6.58,0.04,13.07,0.52,19.17,3.32
			c6.19,1.93,12.12,4.91,18.85,4.64c6.41,4.59,13.78,3.87,21.05,3.83c7.32-0.04,14.63-0.01,21.95-0.01
			c11.65,0,17.57-7.89,14.39-19.15c-0.14-0.48-0.25-0.97-0.38-1.44c-0.1-0.49-0.25-0.98-0.42-1.45c-0.96-1.91-1.22-4.04-1.89-6.05
			c-0.17-0.42-0.27-0.87-0.29-1.32c-1.03-6.12-6.64-5.85-10.73-7.68c-5.73-2.58-10.74-6.6-16.91-8.3c-4.01,0.19-7.53-1.32-10.8-3.34
			c-4.32-2.67-7.08-6.31-7.06-11.78c0.06-25.94-0.02-51.89,0.06-77.83c0.02-5.95,3-8.83,8.87-9.06c4.48-0.18,8.98,0.31,13.44-0.29
			c0.54-0.23,1.08-0.47,1.61-0.71c7.22-1.9,14.61-0.53,21.89-1.14c0.49-0.16,0.97-0.35,1.44-0.57c1.8-0.75,3.89-0.57,5.56-1.74
			c0.43-0.23,0.87-0.42,1.33-0.58c3.83-0.75,7.21-2.88,11.05-3.62c0.47-0.26,0.95-0.44,1.47-0.58c3.54-0.74,7.11-0.92,10.71-0.71
			c5.55,1.26,6.97,5.86,6.83,10.3c-0.36,11.49,3.46,22.66,2.22,34.18c-0.3,2.83,1.3,5.45,1.74,8.23c0.56,2.19-0.22,4.49,0.52,6.67
			c2.49,5.07,3.35,10.52,3.79,16.07c0.29,0.49,0.49,1,0.63,1.54c1.48,7.33,0.46,14.74,0.77,22.1c0.08,1.96-0.22,3.94,0.29,5.88
			c1.17,1.79,1.36,3.94,2.12,5.87c1.6,4.3,3.71,8.34,6.24,12.16c1.21,1.83,1.7,3.87,1.95,6.01c2.19,5.71,3.17,11.86,6.38,17.19
			c4.31,8.79,3.49,18.22,3.48,27.54c0.43,2.33,1.23,4.76,3.31,5.81c5.64,2.87,10.16,7.21,15.17,10.9c1.9,1.4,4.13,2,6.26,2.84
			c1.81,0.16,3.64,0.44,5.02,1.7c4.28,3.91,9.57,5.44,15.05,6.59c1.5,0.32,2.91,0.95,3.87,2.12c7.09,8.61,16.98,9.32,26.99,9.57
			c3.63,0.09,7.29,0.34,10.91-0.21c13.13-2.78,19.3-12.6,24.07-23.82c0.77-2.62-0.74-4.65-1.73-6.82c-0.72-1.59-1.89-3.15-0.37-4.91
			c13.23-0.39,26.47-0.14,39.71-0.13c4,0,7.41-1.24,10.44-3.68c3.74-3.02,6.98-6.56,10.07-10.24c2.72-3.24,3.7-6.93,2.49-11.08
			c-0.46-1.17-0.21-2.46-0.58-3.64c-0.62-2.93-1.88-5.31-5.11-6.05c-0.43-0.19-0.85-0.41-1.26-0.63c-3.95-0.3-6.71-2.34-8.71-5.67
			c-1.35-2.26-3.03-4.3-5-6.07c-5.19-4.67-8.14-10.27-7.17-17.47c0.03-1.26,0-2.53,1.08-3.46c1.62-1.9,0.62-4.18,0.91-6.28
			c0.03-1.17-0.06-2.36,0.75-3.35c1.71-1.31,1.86-3.34,2.36-5.2c0.11-0.42,0.28-0.83,0.48-1.21c0.87-1.53,1.2-3.22,1.53-4.92
			c0.1-0.43,0.27-0.84,0.48-1.23c0.65-2.34,0.99-4.75,1.41-7.14c0.13-0.44,0.31-0.85,0.53-1.25c1.2-2.68,2.81-5.18,3.49-8.08
			c0.12-0.43,0.28-0.85,0.48-1.25c0.91-1.53,1.26-3.24,1.59-4.95c0.1-0.43,0.26-0.84,0.46-1.24c0.68-2.1,0.81-4.33,1.45-6.44
			c0.11-0.44,0.26-0.86,0.45-1.27c0.5-0.78,0.67-1.69,1.01-2.53c1.93-5.27,5.62-9.78,6.6-15.45c1.23-1.89,0.29-4.51,2.06-6.22
			c1.66-2.22,0.41-4.85,1-7.22c0.68-2.88,2.65-5.33,2.87-8.37c0.73-3.93,2.76-7.49,3.33-11.47c0.26-0.44,0.6-0.8,1.02-1.08
			c0.96-1.31,0.73-2.85,0.58-4.25c-0.49-4.87,0.81-9.33,2.8-13.66c0.12-0.45,0.28-0.89,0.47-1.32c1.12-1.72,1.56-3.69,1.92-5.68
			c0.13-0.45,0.31-0.87,0.54-1.27c0.29-4.64,3.36-8.33,4.31-12.75c0.1-0.8,0.39-1.52,0.92-2.13c0.75-0.74,1.09-1.68,1.01-2.69
			c-0.35-4.37,0.48-8.39,2.86-12.17c2.15-3.42,1.02-7.39,1.16-11.12c0.14-3.78,0.03-7.57,0.03-11.35
			c0.71-6.61,4.74-11.75,7.67-17.38c1.49-1.65,2.07-3.72,2.54-5.82c1.43-8.56,6.58-14.68,13.07-19.9c1.58-1.27,3.4-2.36,5.45-2.14
			c7.28,0.78,13.07-2.94,19.09-6.03c6.9-3.54,12.11-9.23,18.09-13.94c1.33-0.62,2.79-1.09,3.21-2.78c0.29-0.6,0.69-1.12,1.19-1.57
			c1.82-1.38,3.28-3.17,5.11-4.55c0.42-0.26,0.87-0.43,1.34-0.55c4.03,0.17,6.84-2.81,10.34-4.02c4.2-0.3,8,0.82,12.05,2.05
			c9.22,2.8,18.79,4.58,27.16-2.78c1.5-1.32,3.32-1.35,5.16-1.35c10.45,0,20.91,0,31.36-0.01c2.03,0,4.1,0.12,5.8,1.14
			c4.32,2.61,8.98,3.17,13.86,2.9c1.61,0.07,3.12,0.65,4.69,0.94c0.5,0.12,0.96,0.32,1.39,0.59c4.13,0.75,8.26,0.57,12.4,0.09
			c0.41-0.26,0.85-0.47,1.31-0.63c6.85-1.95,12.79-5.63,17.97-10.31c10.24-9.26,18.69-20.19,27.66-30.64
			c2.44-2.84,4.42-7.67,9.88-5.06c0,203.85,0,407.71,0,611.56c-2.39-0.16-2.24-2.12-2.25-3.6c-0.02-3.15-0.87-6.1-1.63-9.09
			c-0.82-2.51,0.17-5.33-1.39-7.71c-1.62-3.99-2.72-8.1-3.06-12.4c-0.21-2.56,0.58-5.23-0.95-7.63c-0.82-1.48-1.04-3.08-1.07-4.73
			c-0.38-4.29,0.8-8.68-0.8-12.9c-0.84-1.45-1.13-3.03-1.17-4.67c-0.23-2.52,0.56-5.15-0.87-7.53c-0.8-1.39-1.07-2.9-1.11-4.48
			c-0.1-2,0.3-4.08-1.04-5.87c-0.81-1.48-0.98-3.09-1.01-4.73c-0.35-5.51,0.72-11.08-0.7-16.54c-0.88-1.43-1.19-3-1.24-4.64
			c-0.14-1.99,0.35-4.07-0.94-5.88c-0.79-1.39-1.04-2.91-1.07-4.47c-0.22-2.49,0.55-5.09-0.92-7.43c-0.8-1.41-1.05-2.94-1.09-4.53
			c-0.22-2.52,0.56-5.17-0.96-7.53c-0.81-1.45-1.04-3.03-1.07-4.66c-0.34-3.68,0.76-7.46-0.84-11.04c-0.81-1.44-1.1-3.01-1.14-4.64
			c-0.23-2.52,0.57-5.16-0.9-7.54c-0.8-1.41-1.06-2.94-1.09-4.53c-0.27-2.72,0.62-5.54-0.73-8.17c-0.53-0.61-1.17-1.04-1.93-1.32
			c-22.07-0.32-44.13-0.42-66.17,0.07c-3.52,1.46-3.07,4.96-3.97,7.77c-1.03,3.6-0.03,7.35-0.82,10.96c-0.39,1.5-0.74,3-1.1,4.51
			c-0.72,1.92-0.55,4.01-1.04,5.97c-0.41,1.49-0.67,3.02-1.03,4.53c-1.05,3.64-0.02,7.44-0.84,11.09c-0.43,1.54-0.72,3.11-1.09,4.66
			c-1.06,3.1-0.17,6.39-0.94,9.52c-0.45,1.58-0.69,3.2-1.09,4.79c-1.21,5.55,0.08,11.21-0.79,16.77c-0.41,1.59-0.76,3.19-1.13,4.79
			c-1.11,3.09-0.2,6.39-0.97,9.52c-0.43,1.54-0.7,3.11-1.09,4.66c-1.12,3.63-0.07,7.44-0.87,11.09c-0.39,1.5-0.74,3.01-1.1,4.52
			c-0.72,1.92-0.55,3.99-1.04,5.95c-0.4,1.48-0.68,2.99-1.03,4.48c-0.97,3.06-0.12,6.3-0.89,9.37c-0.44,1.56-0.69,3.16-1.08,4.73
			c-1.19,4.91,0.06,9.95-0.82,14.88c-0.42,1.57-0.75,3.16-1.12,4.75c-1.1,3.07-0.2,6.36-0.96,9.47c-0.43,1.55-0.72,3.13-1.1,4.69
			c-0.79,2.39-0.48,4.86-0.54,7.29c-0.16,6.77-1.47,7.85-8.41,6.86c-0.55-0.32-0.99-0.74-1.36-1.25c-1.42-2.65-0.94-5.53-0.95-8.32
			c-0.03-56.17-0.02-112.33-0.03-168.5c0-2.48,0.24-4.99-0.33-7.44c-0.39-0.81-0.95-1.47-1.73-1.93c-2.77-0.9-5.63-0.47-8.44-0.46
			c-16.65,0.04-33.3-0.21-49.93,0.13c-0.73,0.2-1.37,0.58-1.93,1.08c-1.2,1.3-0.93,3.06-1.41,4.59c-0.38,1.44-0.62,2.9-0.96,4.35
			c-0.98,3.62,0.01,7.38-0.81,11.01c-0.43,1.54-0.71,3.13-1.09,4.68c-1.14,3.66-0.07,7.49-0.89,11.17c-0.42,1.52-0.73,3.07-1.1,4.61
			c-0.93,2.48-0.34,5.17-0.99,7.69c-0.42,1.52-0.69,3.08-1.06,4.61c-1.09,3.67-0.03,7.51-0.87,11.2c-0.45,1.58-0.71,3.2-1.11,4.8
			c-0.68,1.86-0.4,3.8-0.58,5.71c-0.16,1.72-0.01,3.64-2.25,4.29c-2.28-0.47-2.16-2.35-2.39-4.03c-0.34-3.18,0.7-6.49-0.85-9.56
			c-0.82-1.45-1.1-3.02-1.13-4.65c-0.22-2.55,0.57-5.23-0.97-7.61c-0.82-1.48-1.03-3.09-1.06-4.74c-0.4-4.33,0.86-8.77-0.89-13.01
			c-0.86-1.54-1.09-3.22-1.12-4.95c-0.41-3.94,1-8.08-1.34-11.8c-2.04-4.68-1.8-9.78-2.59-14.67c-0.52-3.18-1.74-4.86-5.03-4.87
			c-17.81-0.06-35.62-0.04-53.44-0.01c-3.37,0-4.86,1.64-4.77,4.93c0.04,1.5-0.01,3-0.01,4.49c0,56.77-0.01,113.53,0.02,170.3
			c0,2.31-0.37,4.67,0.52,6.9c1.8,1.68,4.07,1.22,6.17,1.24c8.98,0.06,17.96,0.06,26.94,0.02c6.67-0.03,7.34-0.66,7.35-7.52
			c0.05-30.1,0.01-60.2,0.02-90.3c0-2.16-0.1-4.33,0.18-6.48c0.27-2.04,0.74-4.27,3.2-4.41c2.53-0.15,3.19,2.04,3.48,4.09
			c0.99,6.9,1.84,13.81,3.03,20.69c2.88,16.68,4.31,33.57,7.21,50.26c1.59,9.17,2.59,18.44,3.72,27.68
			c0.48,3.95,2.39,5.53,6.03,5.81c5.46,0.42,10.99-0.15,16.4,1.08c6.33,0.47,6.49,0.45,7.84-5.43c1.59-6.96,1.89-14.13,2.74-21.18
			c1.01-8.41,2.46-16.72,3.77-25.07c1.03-6.54,1.33-13.18,2.09-19.75c0.83-7.23,1.74-14.47,2.65-21.71
			c0.71-1.58,0.49-3.83,2.95-4.18c2.26,1.94,1.57,4.6,1.58,7c0.06,27.43,0.03,54.86,0.04,82.28c0,2.15-0.2,4.32,0.31,6.44
			c0.27,0.51,0.63,0.96,1.1,1.32c7.04,1.19,14.12,0.33,21.17,0.51c5.76,0.15,11.52,0.02,17.29,0.03c1.16,0,2.32,0.01,3.48,0.02
			c3.12,0.01,6.24,0.09,9.35-0.39c0.6-0.04,1.19,0.01,1.77,0.13c14.38,0.54,28.76,0.14,43.13,0.2c1.18,0.01,2.3-0.24,3.3-0.89
			c2.47-1.38,3.22-3.53,3.21-6.27c-0.03-6.99-0.13-13.99,0.04-20.98c0.13-5.17,1.51-6.49,6.54-6.76
			c12.54-0.67,16.14,2.75,16.19,15.4c0.02,4.16-0.02,8.33,0.01,12.49c0.05,5.63,0.41,6.03,5.93,6.05
			c12.65,0.03,25.31-0.01,37.96,0.03C811.15,798.45,813.57,798.08,815.52,799.83z"/>
		<path class="st0" d="M815.52,790.83c0,2.66,0,5.33,0,7.99c-1.56,0.89-3.26,0.46-4.89,0.46c-13.98,0.04-27.97-0.12-41.95,0.12
			c-3.83,0.06-4.86-1.08-4.69-4.78c0.3-6.31,0.17-12.65,0.06-18.97c-0.14-8.49-2.03-10.35-10.33-10.3
			c-12.13,0.07-10.56-1.49-10.65,10.58c-0.04,4.66,0.13,9.33-0.04,13.98c-0.2,5.56-2.35,10.34-10.04,10.04
			c-11.97-0.47-23.97-0.1-35.95-0.15c-2.08-0.01-4.51,0.5-5.34-2.4c-0.54-9.82,1.67-19.32,3.32-28.89c0.23-1.31,0.75-2.61,0.57-3.94
			c-1.24-8.71,1.74-17.07,2.36-25.63c0.32-4.39,1.05-9.16,2.8-13.48c0.44-1.09,0.79-2.33,0.68-3.4c-0.81-7.72,1.47-15.17,2.52-22.61
			c1.73-12.27,1.34-24.76,3.9-36.83c2.19-10.32,2.08-20.95,5.2-31.14c1.67-5.46,0.19-11.49,2.16-17.16
			c1.05-3.03,2.16-4.41,5.42-4.39c20.64,0.07,41.27,0.07,61.91,0c3.62-0.01,5.12,1.38,5.04,5.02c-0.18,7.9,1.69,15.51,3.77,23.06
			c0.22,0.81,0.3,1.68,0.16,2.48c-1.27,7.37,1.61,14.35,2.44,21.47c0.86,7.33,1.67,14.99,3.93,22c2.09,6.47,0.9,12.78,1.72,19.09
			c0.69,5.29,1.67,10.56,3.26,15.68c0.15,0.47,0.58,0.88,0.51,1.38c-0.98,6.21,2.21,11.85,2.28,18.01
			c0.12,10.65,2.38,20.98,5.24,31.3c1.36,4.92,2.35,10.27,2.59,15.54C813.58,787.18,813.57,789.31,815.52,790.83z"/>
		<path class="st1" d="M192.98-5.6c163.88,0,327.76,0,491.64,0c1.31,1.67,1.37,3.38,0.22,5.15c-1.4,1.58-3.29,1.31-5.1,1.32
			c-4.64,0.02-9.29-0.05-13.93,0.02c-5.75,0.08-9.56,3.9-9.68,9.62c-0.05,2.32,0.04,4.65-0.02,6.97c-0.13,5.14-2.17,7.28-7.24,7.36
			c-6.3,0.1-12.61,0.02-18.9,0.03c-3.27-0.31-5.63-1.77-6.51-5.11c-0.28-0.7-0.27-1.44-0.31-2.17c-1.58-5.03-4.96-8.42-9.71-10.54
			c-4.76-2.03-9.36-5.04-14.87-2.39c-0.39,0.25-0.8,0.45-1.23,0.61c-6.42,1.19-9.7,5.39-11.01,11.5c-0.28,0.48-0.48,0.98-0.6,1.53
			c-0.7,4.75-3.74,6.14-8.15,6.12c-20.96-0.07-41.91-0.04-62.87-0.02c-1.99,0-3.99-0.2-5.96,0.28c-0.52,0.33-1.07,0.61-1.63,0.86
			c-5.33,3.61-11.39,2.83-17.3,2.85c-9.47,0.03-18.94-0.01-28.4,0.02c-1.97,0.01-4.01-0.36-5.79,0.91c-1.38,0.68-2.96,1.01-4.36,0.9
			c-13.16-1.02-26.05,2.25-39.15,2.21c-32.11-0.09-64.23-0.04-96.34-0.02c-4.17,0-8.17-0.39-12.17-2c-3.47-1.4-7.19-2.32-11.14-2.08
			c-5.7,0.35-10.44-2.87-15.52-4.79c-4.4-2.06-8.95-3.02-13.88-3.23c-19.53-0.8-39-2.55-58.59-2.05
			c-7.22,0.18-12.88-6.36-12.79-13.68C191.68,1.15,190.63-2.47,192.98-5.6z"/>
		<path class="st1" d="M0.12,211.25c0-70.86,0.03-141.72-0.09-212.59C0.02-4.9,0.7-5.71,4.34-5.7c62.21,0.14,124.42,0.1,186.63,0.1
			c2.02,5.04,0.58,10.29,0.94,15.43c-0.04,0.55-0.21,1.06-0.5,1.53c-1.91,1.79-5.1,0.68-6.79,2.99c-1.92,1.45-4.27,1.79-6.47,2.51
			c-6.23-0.03-12.44-0.39-18.23,2.87c-2.93,1.64-6.41,1.18-9.7,1.14c-0.51-0.03-1.02,0.05-1.5,0.22c-1.78,0.77-3.87,0.53-5.53,1.7
			c-0.42,0.23-0.85,0.44-1.3,0.63c-4.45,1.67-8.23,4.91-13.1,5.56c-13.03,5.75-25.63,12.32-38.12,19.2
			c-9.94,5.47-18.01,12.77-25.9,20.65C53.3,80.29,44.45,93.17,40.64,109.15c-2.81,7.1-7.47,13.36-9.47,20.84
			c-0.14,0.46-0.33,0.89-0.55,1.32c-0.7,3.05-2,5.74-4.21,8.04c-1.82,1.89-3.08,4.15-3.32,6.85c-0.16,0.45-0.36,0.88-0.59,1.3
			c-1.09,2.28-2.66,4.19-4.37,6.03c-3.79,4.07-3.75,5.39,0.09,9.65c0.56,0.62,1.13,1.22,1.67,1.85c2.44,2.84,2.42,5.68,0.01,8.53
			c-2.14,2.53-4.47,4.97-4.77,8.54c-0.15,0.44-0.34,0.87-0.56,1.29c-2.53,4.86-6.54,8.96-7.43,14.65c-0.14,0.44-0.32,0.86-0.54,1.27
			c-1.08,1.58-1.17,3.47-1.64,5.25c-0.21,0.45-0.41,0.9-0.6,1.36C3.64,208.23,4.99,212.21,0.12,211.25z"/>
		<path class="st1" d="M684.61-0.59c0-1.67,0-3.34,0.01-5.01c42.47,0,84.94,0.04,127.41-0.08c2.98-0.01,3.59,0.6,3.58,3.58
			c-0.11,59.12-0.08,118.25-0.08,177.37c-1.05,0.98-2.29,1.05-3.6,0.72c-6.16-3.17-11.08-7.47-14.78-13.56
			c-5.28-8.67-13.83-14.76-19.43-23.26c-6.08-9.23-15.04-15.91-21.69-24.64c-0.75-1.54-0.15-3.29-0.8-4.85
			c-0.2-0.41-0.38-0.84-0.55-1.26c-0.4-1.75-0.58-3.58-1.61-5.14c-0.21-0.42-0.39-0.85-0.53-1.3c-0.31-1.65-0.64-3.29-0.98-4.93
			c0.22-4.8-3.01-8.2-5.7-11.2c-7.37-8.25-13.6-17.61-22.32-24.56c-5.05-4.03-10.06-8.01-14.6-12.64c-2.39-2.44-3.42-4.94-3.42-8.36
			c0.01-6.07,0.2-12.04-1.66-18.15c-2.72-8.95-9.2-14.24-15.94-19.56c-1.02-0.81-2.31-1.29-3.06-2.45
			C684.78-0.12,684.69-0.35,684.61-0.59z"/>
		<path class="st2" d="M14.04,183.09c-0.05-0.28-0.03-0.55,0.06-0.82c0.73-3.08,2.37-5.63,4.47-7.97c4.05-4.5,3.98-5.93-0.27-10.35
			c-0.23-0.24-0.47-0.47-0.7-0.7c-4.23-4.33-4.3-5.63-0.13-9.76c1.91-1.89,3.49-3.94,4.55-6.39c-0.04-0.28-0.01-0.55,0.08-0.81
			c0.69-2.87,1.95-5.5,4.1-7.49c2.3-2.11,3.34-4.7,3.84-7.63c-0.05-0.3-0.03-0.59,0.07-0.88c2.55-7.41,6.95-13.95,9.92-21.16
			c0.49-8.07,4.36-14.79,8.19-21.65c7.67-13.74,18.86-24.74,30.92-33.82c10.45-7.86,22.57-14.31,35.04-19.31
			c4.93-1.98,8.96-6.14,14.74-6.03c5.05-0.47,8.76-3.89,13.09-5.94c0.27-0.1,0.55-0.12,0.83-0.08c1.53-1.15,3.45-1.26,5.17-1.92
			c0.33-0.03,0.67-0.05,1-0.08c0.35,0.24,0.46,0.48,0.35,0.72s-0.23,0.36-0.35,0.36c-4.47,2.58-8.73,6.77-13.46,7.4
			c-8.33,1.1-14.75,5.83-21.84,9.12c-8.74,4.05-16.83,9.63-25.25,14.24C75.29,59.36,66.8,71.04,56.71,81.1
			c-5.66,5.65-10.81,13.24-12.77,20.84c-2.8,10.88-9.13,20.06-12.05,30.39c-1.68,5.94-6.21,9.38-7.76,14.77
			c-1.08,3.76-2.52,7.29-5.74,9.88c-2.33,1.87,0.25,2.94,1.11,3.9c5.01,5.62,5.19,11.54-0.07,16.67c-1.87,1.82-3.11,4.13-3.72,6.21
			c-2.3,7.79-8.23,13.8-10.12,21.75c-0.43,1.83-0.28,3.61-0.54,5.39c-0.2,1.38,0.62,3.14-1.15,4.01c-1.82,0.89-2.56-1.01-3.78-1.65
			c0-0.33,0-0.67,0-1c4.43-0.65,3.07-4.5,3.93-7.12c-0.05-0.3-0.03-0.59,0.07-0.88c0.66-1.72,0.77-3.63,1.92-5.17
			c-0.05-0.28-0.02-0.56,0.08-0.83C7.47,192.52,11.48,188.18,14.04,183.09z"/>
		<path class="st3" d="M815.52,790.83c-1.41-0.15-2.82-0.55-2.81-2.23c0.04-3.81-1.35-7.41-1.75-11.02
			c-0.73-6.54-2.43-12.69-3.97-19c-1.1-4.5-2-9.46-1.99-13.93c0.01-8-1.24-15.85-2.75-23.41c-2.16-10.82-2.66-21.69-4.16-32.46
			c-1.2-8.62-3.15-17.46-4.89-26.13c-1.19-5.93-2.67-12.08-2.73-18.39c-0.07-7.11-1.61-14.11-3.43-21.04
			c-0.74-2.82-0.48-5.95-0.39-8.93c0.08-2.6-0.89-3.48-3.48-3.47c-21.14,0.07-42.27,0.06-63.41,0.01c-2.26-0.01-2.85,0.81-3.41,3.06
			c-2.28,9.22-1.78,18.8-3.99,27.99c-2.33,9.7-2.19,19.79-4.27,29.41c-1.57,7.28-0.01,14.71-1.99,21.45
			c-1.86,6.36,0.01,13.14-3.36,19.16c-0.86,1.54-0.25,3.92-0.25,5.91c0,6.74-1.84,13.13-3.7,19.52c-0.09,0.32-0.27,0.66-0.22,0.96
			c1.16,7.5-2.42,14.49-2.23,21.98c0.21,8.61-1.61,17.09-3.58,25.51c-0.82,3.48-0.25,7.29-0.31,10.95c-0.67,0.32-1.1,0.12-1.3-0.59
			c0.13-4.15-0.51-8.32,0.38-12.44c0.11-1.35-0.49-2.88,0.99-3.88c1.49-3.26-0.22-6.83,1.01-10.11c0.11-1.35-0.49-2.87,0.98-3.88
			c1.56-5.29-0.26-10.8,1.01-16.11c0.11-1.35-0.48-2.88,0.99-3.88c1.5-3.25-0.22-6.83,1.01-10.11c0.11-1.35-0.49-2.88,0.99-3.88
			c1.43-1.86-0.14-4.21,1.01-6.12c0.11-1.35-0.49-2.87,0.99-3.88c1.58-3.93-0.3-8.16,1.01-12.11c0.11-1.35-0.49-2.88,0.99-3.88
			c1.5-3.26-0.22-6.83,1.01-10.11c0.11-1.35-0.49-2.88,0.99-3.88c1.23-4.2,0.28-8.49,0.59-12.73c0.13-1.79-0.4-3.64,0.42-5.38
			c0.11-1.35-0.49-2.88,0.99-3.88c1.49-3.26-0.22-6.83,1.01-10.11c0.11-1.35-0.49-2.87,0.99-3.88c1.58-3.93-0.3-8.16,1.01-12.11
			c0.11-1.35-0.49-2.88,0.99-3.88c1.43-1.86-0.14-4.21,1.01-6.12c0.11-1.35-0.48-2.87,0.99-3.88c1.58-3.93-0.3-8.16,1.01-12.11
			c0.16-2.94,0.22-5.92,2.92-7.93c1.75-0.79,3.61-0.4,5.42-0.4c19.8-0.03,39.59-0.03,59.39,0c1.8,0,3.66-0.39,5.42,0.4
			c0.31,0.31,0.62,0.62,0.93,0.93c1.18,2.95-0.36,6.16,0.88,9.1c0.31,1.36-0.3,2.95,1.06,4.03c1.29,2.54-0.31,5.42,0.95,7.96
			c0.3,1.36-0.3,2.95,1.05,4.03c1.32,3.91-0.33,8.05,0.95,11.96c0.3,1.36-0.3,2.95,1.05,4.03c1.29,2.54-0.31,5.42,0.94,7.96
			c0.31,1.36-0.3,2.95,1.06,4.04c1.29,2.54-0.31,5.42,0.94,7.96c0.31,1.36-0.3,2.95,1.06,4.04c1.22,1.84-0.24,4.1,0.94,5.95
			c0.31,1.36-0.3,2.96,1.06,4.04c1.37,5.93-0.38,12.02,0.94,17.94c0.31,1.36-0.3,2.96,1.06,4.04c1.22,1.84-0.24,4.11,0.94,5.96
			c0.31,1.36-0.3,2.95,1.06,4.03c1.3,2.54-0.31,5.42,0.95,7.96c0.3,1.36-0.3,2.95,1.05,4.03c1.34,4.58-0.36,9.37,0.95,13.96
			c0.3,1.36-0.3,2.95,1.05,4.03c1.29,2.54-0.31,5.42,0.94,7.96c0.5,4.14,1.32,8.2,3.05,12.03c1.32,2.54-0.37,5.45,0.99,7.98
			c1.6,2.59,1.89,5.47,1.96,8.43c0.04,1.56-0.65,3.35,1.04,4.56C815.52,789.5,815.52,790.17,815.52,790.83z"/>
		<path class="st4" d="M691.66,796.97c0.27-0.06,0.54-0.14,0.81-0.23c0.38,2.36,2.2,2.07,3.84,2.07c12.82,0,25.63,0.04,38.45-0.02
			c4.52-0.02,7.65-3.83,7.77-9.53c0.13-6.82,0.15-13.65-0.02-20.47c-0.08-3.09,1.09-4.13,4.08-3.99c3.99,0.18,7.99,0.07,11.98,0.05
			c4.14-0.03,6,2.02,5.98,6.12c-0.05,7.82,0.18,15.65-0.06,23.46c-0.11,3.59,1.19,4.48,4.59,4.45c15.48-0.15,30.96-0.06,46.43-0.05
			c0,0.33,0,0.67,0,1c-16.12,0.05-32.24,0.06-48.36,0.18c-2.79,0.02-3.84-0.99-3.79-3.78c0.13-6.31,0.18-12.63,0-18.95
			c-0.28-9.87-4.13-12.26-11.13-11.3c-1.14,0.16-2.34,0.15-3.48,0c-3.96-0.52-5.28,1.13-5.12,5.08c0.27,6.97,0.01,13.96,0.09,20.94
			c0.04,3.43-0.91,6.21-4.17,7.81c-4.56,1.1-9.2,0.49-13.8,0.45c-11.4-0.1-22.81,0.59-34.19-0.37c-0.32-0.02-0.63-0.08-0.94-0.17
			C689.6,798.29,690.38,797.54,691.66,796.97z"/>
		<path class="st5" d="M18.17,406.09c-0.06-3.81-0.28-7.63-0.15-11.44c0.18-5.53-0.09-10.86-3.31-15.71
			c-1.22-1.84-0.64-4.2-0.72-6.34c-0.33-8.32,1.31-16.8-3.51-24.67c-1.35-2.21-0.45-5.84-0.47-8.82c-0.04-4.29,0.53-8.64-3.15-12.07
			c-0.77-0.72-0.56-2.49-0.8-3.77c-1.3-6.3,0.89-12.95-1.94-19.09c-0.07-0.3-0.09-0.6-0.06-0.9c-0.48-2.34-0.3-5.18-3.93-5.1
			c0-0.33,0-0.67,0-1c4.46,0.2,6.45,2.8,6.88,9.38c0.21,3.15,0.11,6.32,0.09,9.48c-0.02,3.46-0.48,6.94,2.96,9.42
			c1.71,1.23,0.92,3.41,0.99,5.16c0.27,6.8,0.05,13.29,3.36,20.02c2.32,4.72,0.62,11.42,0.68,17.24c0.04,3.27-0.42,6.62,1.94,9.41
			c2.46,2.92,2.05,6.45,2.06,9.88c0.02,5.99,0.01,11.97,0.01,17.96C19.36,406,19,406.27,18.17,406.09z"/>
		<path class="st6" d="M811.56,175.24c1.32,0.01,2.64,0.02,3.96,0.03c0,0.67,0,1.33,0,2c-4.96-0.7-7,3.34-9.44,6.23
			c-10.71,12.7-20.53,26.29-34.45,35.78c-3.47,2.37-7.26,5.32-12.1,4.93c-0.44-2.21,1.51-1.86,2.57-2.63
			c1.92-1.39,4.48-1.71,5.97-3.73c5.87-2.15,9.42-7.08,13.55-11.32c3.12-3.2,6.42-6.22,9.42-9.54c3.44-5.68,8.28-10.13,12.89-14.79
			c1.15-0.51,1.09-1.89,1.91-2.64c1.77-1.3,3.09-3.13,5.05-4.2C811.12,175.32,811.34,175.28,811.56,175.24z"/>
		<path class="st7" d="M191.02,11.43c-0.01-5.68-0.03-11.35-0.04-17.03c0.67,0,1.33,0,2,0c0,3.33,0,6.65,0,9.98
			c0,7.3,5.57,12.89,13.04,13c4.82,0.07,9.67,0.33,14.47-0.04c16.14-1.26,32,2.95,48.12,2.18c2.88-0.14,5.81,1.1,8.3,2.86
			c-0.76,0.69-1.66,0.59-2.57,0.48c-7.34-2.75-15.14-0.98-22.53-2.19c-16.33-2.67-32.7-1.36-49.05-1.85
			C197.52,18.67,194.26,14.96,191.02,11.43z"/>
		<path class="st8" d="M4.05,205.12c-0.31,2.93,1.71,7.14-3.93,7.12c0-0.33,0-0.67,0-1C4.52,211.19,2.29,206.87,4.05,205.12z"/>
		<path class="st9" d="M0.12,298.19c4.35-0.65,4.25,2.14,3.93,5.1c-1.34-1.33-0.29-4.96-3.93-4.1
			C0.12,298.85,0.12,298.52,0.12,298.19z"/>
		<path class="st10" d="M628.61,230.18c-0.33,0.34-0.66,0.69-1,1.03c-0.65,1.34-1.69,2.29-2.96,3.02
			c-7.86,8.06-16.83,14.51-27.12,19.18c-1.95,0.89-3.85,0.85-5.78,0.91c-7.92,0.25-17.14,6.69-20.11,14.19
			c-1.01,2.55-1.96,5.13-2.94,7.69c-1.22,1.8-1.2,4.02-2.05,5.95c-3.55,4.9-6.23,10.23-7.93,16.04c-1.13,4.21-0.31,8.5-0.52,12.75
			c-0.09,1.81,0.37,3.74-0.08,5.44c-1.85,6.94-4.09,13.77-5.34,20.86c-0.04,0.64-0.07,1.27-0.11,1.91c-2.25,4.11-4.39,8.25-4.95,13
			l0.01-0.01c-0.83,1.95-0.94,4.14-2,6l0.01-0.01c-3.81,6.15-3.39,13.15-4.03,19.93c-0.28,0.1-0.56,0.17-0.85,0.23
			c-0.3-0.24-0.42-0.49-0.36-0.77c0.06-0.29,0.13-0.43,0.22-0.43c-1.3-9.31,3.08-17.4,5.07-26.06c2.02-8.81,9.24-16.23,7.07-26.09
			c-0.17-0.75-0.08-2.01,0.39-2.38c5.01-3.86,4.05-9.43,3.34-14.25c-1.7-11.54,4.08-20.63,8.86-30.02c1.35-2.66,2.4-5.64,2.88-8.15
			c1.32-6.79,5.92-10.74,10.21-15.23c1.8-1.88,3.91-1.83,5.98-1.63c8.71,0.81,14.93-4.67,22.05-8.14c6.37-3.11,9.51-10,16.16-12.62
			c1.42-0.56,3.07-2.08,3.43-3.47c1.51-5.8,5.78-6.08,10.47-5.87c0.46-0.3,0.87-0.25,1.23,0.18c-0.54,2.57-3.15,0.43-4.2,1.84l0,0
			C631.6,226.5,630.01,228.25,628.61,230.18z"/>
		<path class="st11" d="M274.88,22.43c0.68-0.01,1.35-0.03,2.03-0.04c4.53,0.34,7.8,3.96,12.44,4.39
			c13.23,1.24,25.95,5.36,39.59,4.93c26.42-0.83,52.88-0.47,79.33-0.15c13.79,0.17,27.33-3.39,41.16-2.19
			c2.06,0.18,4.21-0.65,6.32-1.01c0.36-0.34,0.76-0.38,1.2-0.15c0.25,0.43,0.2,0.82-0.16,1.17c-0.76,1.6-2.16,1.99-3.74,1.86
			c-15.88-1.31-31.5,2.49-47.38,2.22c-30.58-0.53-61.17-0.28-91.75-0.02c-4.79,0.04-9.22-1.1-13.32-2.72
			c-3.31-1.31-6.38-1.17-9.61-1.41c-5.93-0.43-11.35-2.23-16.06-5.94c-0.35-0.19-0.47-0.4-0.37-0.61
			C274.66,22.54,274.77,22.43,274.88,22.43z"/>
		<path class="st12" d="M540.71,377.12c0.05,0.4,0.09,0.8,0.14,1.2c-0.08,4.19-2.54,7.74-3.19,11.79c-0.94,2.78-2.68,5.23-3.39,8.11
			c-0.44,2.58,0.62,5.28-0.62,7.79c-0.66,2.03-1.32,4.05-1.98,6.08c-1.84,4.58-4.11,8.96-6.46,13.29c-0.87,1.44-0.63,3.24-1.51,4.68
			l-0.01,0.02c-1.67,2.41-0.9,5.42-1.99,7.98l-0.01,0.02c-1.35,1.76-0.79,4.16-1.99,5.98l-0.01,0.02c-1.18,3.07-2.81,5.96-3.9,9.07
			c-0.02,0.31-0.06,0.62-0.12,0.92c-1.62,2.42-0.92,5.41-1.97,7.97l-0.01,0.02c-1.35,1.76-0.79,4.16-1.99,5.98l-0.01,0.02
			c-1.37,1.73-0.73,4.15-2.03,5.9c-1.07,0.8-0.72,2.05-0.98,3.11c-1.27,2.16,0.41,4.76-1.02,6.9c-1.08,0.79-0.72,2.04-0.98,3.1
			c-1.59,5.63,0.25,10.25,3.97,14.49c3.16,3.59,6.66,6.89,9.21,11.02c1.75,2.84,5.01,2.77,7.82,3.51l0.01,0.01
			c2.67,1.31,4.65,3.31,5.97,5.97c0.05,1.3,0.09,2.59,0.14,3.89c-0.15,0.14-0.31,0.28-0.46,0.41c-0.18-0.11-0.35-0.22-0.53-0.32
			c-1.48-4.98-5.71-8.7-10.78-8.96c-2.11-0.11-3.95-0.98-4.48-2.52c-1.43-4.19-4.69-6.81-7.73-9.42
			c-5.85-5.03-6.22-15.65-3.81-22.31c1.47-4.08,0.62-8.62,2.64-12.79c4.19-8.65,4.39-18.67,9.28-27.23
			c2.6-4.55,3.01-10.11,4.43-15.18c1.65-5.91,5.25-10.73,7.25-16.34c1.07-3,3.08-6.12,2.86-9.06c-0.56-7.32,3.45-13.02,5.75-19.29
			C538.95,381.01,537.26,377.87,540.71,377.12z"/>
		<path class="st13" d="M295.9,382.11c-0.31,0.07-0.62,0.1-0.93,0.08c-4.1,0.96-8.25,0.36-12.37,0.37
			c-3.66,0.01-7.24,0.21-10.68,1.55c-0.31,0.07-0.62,0.1-0.93,0.08c-4.19,0.94-8.45,0.5-12.65,0.35c-4.89-0.17-8.2,1.57-9.95,6.16
			c-0.28,0.6-0.72,0.74-1.31,0.44c-0.11-7.02,0.71-8.24,7.48-7.92c12.56,0.59,24.8-3.31,37.42-2.26c2.83,0.24,6.05-1.18,8.71-2.57
			c7.71-4.02,15.85-5.18,24.44-5.41c5.42-0.15,7.69,3.11,7.46,6.81c-0.67,10.64,3.45,20.89,2.19,31.41
			c-0.67,5.61,2.37,10.5,1.95,15.93c-0.3,0.46-0.62,0.47-0.94,0.02c-1.22-1.23-1.99-2.76-1.85-4.45
			c1.04-11.89-2.41-23.49-2.25-35.33c0.07-5.22-1.21-10.2-6.85-12.55c-3.78-0.61-7.41-0.02-10.95,1.31
			c-0.31,0.07-0.62,0.1-0.93,0.08c-4,0.42-7.24,2.98-11.06,3.92c-0.29,0.07-0.59,0.11-0.89,0.11
			C299.5,381.38,297.59,381.45,295.9,382.11z"/>
		<path class="st14" d="M613.66,6.4c5.06,1.1,9.56,6.04,10,10.99c-0.34,0.49-0.68,0.48-1.03,0.01c-2.15-2.05-4.32-4.08-6.45-6.15
			c-4.74-4.61-10.67-7.41-16.84-5.39c-7.08,2.32-12.35,7.52-12.69,15.8c-0.17,4.2-3.02,3.67-5.61,3.68
			c-19.27,0.03-38.53,0.02-57.8,0.03c-4.82,0-9.63,0.03-14.45,0.05c-0.36,0.34-0.74,0.4-1.17,0.14c-0.26-0.42-0.24-0.8,0.12-1.16
			l0,0c1.72-0.93,3.59-0.46,5.38-0.46c21.11-0.04,42.23-0.02,63.34-0.03c6.83,0,7.93-0.9,9.22-7.5l0,0
			c1.71-6.28,5.71-10.28,11.99-11.99l0,0C603.55,0.73,608.48,4.59,613.66,6.4z"/>
		<path class="st15" d="M622.63,17.4c0.34,0,0.69-0.01,1.03-0.01c0.02,0.63,0.03,1.27,0.05,1.9c0.46,2.9,2.14,4.58,5.04,5.04
			c6.16-0.02,12.32-0.02,18.48-0.06c5.69-0.04,8.21-2.52,8.3-8.08c0.25-15.9,0.25-15.87,16.21-15.92c4.3-0.01,8.65,0.5,12.87-0.86
			L684.6-0.6c5.18,3.7,10.01,7.83,14.19,12.64c2.99,3.43,5.95,6.98,5.2,12.07c-0.35,0.43-0.76,0.51-1.25,0.26
			c-0.08-0.3-0.13-0.6-0.15-0.9c-1.82-0.78-0.98-2.91-2.06-4.06c-0.92-0.39-1.58-1.04-1.92-1.99c-3.94-4.06-7.93-8.09-12.02-12
			c-6.74-7.03-15.36-4.05-22.99-3.3c-3.23,0.32-7.18,4.55-7.06,10.12c0.27,13.16,0.02,13.16-13.3,13.16
			c-4.16,0-8.33,0.05-12.49-0.01C621.36,25.25,622.93,26.16,622.63,17.4z"/>
		<path class="st16" d="M637.7,223.32c-0.36-0.03-0.72-0.06-1.07-0.1c1.03-2.83,3-4.07,6.05-4c6.34,0.14,12.64-0.72,18.48,3.39
			c3.83,2.7,14.81,0.29,18.29-3.21c1.68-1.69,3.48-2.21,5.76-2.19c12.98,0.07,25.96,0.03,38.94,0.03c0.17,0,0.36-0.05,0.5,0.02
			c7.03,3.53,14.9,3.63,22.37,5.4c3.82,0.9,7.81,1.4,11.59-0.41c3.34-1.61,6.64-3.32,9.95-4.99c0.25,0.22,0.34,0.44,0.25,0.66
			s-0.17,0.33-0.26,0.33c-2.32,3.02-6.72,2.91-9.02,5.96v0.01c-4.65,0.85-9.29,0.85-13.94,0v-0.01c-1.62-1.02-3.45-1.26-5.3-1.48
			c-4.98,0.11-9.87,0.22-14.32-2.82c-1.7-1.16-4.02-1.24-6.24-1.22c-10.12,0.09-20.24,0.12-30.36-0.01
			c-2.69-0.04-4.83,0.69-6.71,2.52c-2.76,2.68-6.03,3.66-9.92,3.6c-6.93-0.11-13.89,0.53-20.2-3.36c-2.23-1.38-4.88-0.52-7.33-0.71
			c-2.47-0.1-4.13,1.7-6.15,2.66C638.59,223.63,638.14,223.6,637.7,223.32z"/>
		<path class="st15" d="M712.57,57.36c-2.37-1.62-4.38-3.6-5.98-6c-1.89-1.04-1.48-2.82-1.43-4.48c0.13-0.51,0.47-0.78,0.98-0.86
			c0.32,0.08,0.7,0.15,0.91,0.38c8.45,9.3,19.94,15.47,27.41,25.59c4.54,6.16,11.3,10.63,13.98,18.17c0.2,2.55,3.04,4.32,2.11,7.2
			c-4.8-3.96-7.24-9.96-12-13.96c-1.83-0.77-0.97-2.91-2.07-4.05c-0.91-0.4-1.57-1.05-1.91-2c-5.27-5.4-10.59-10.75-16.02-16
			c-0.96-0.33-1.58-1.02-1.98-1.93C715.43,58.37,713.3,59.23,712.57,57.36z"/>
		<path class="st17" d="M247.07,391.13c0.26-0.01,0.52-0.02,0.77-0.02c1.12,1.68,0.54,3.55,0.55,5.33
			c0.05,23.74,0.47,47.5-0.17,71.23c-0.28,10.39,5.85,16.34,16.87,17.9c0.66,0.09,1.32,0.09,1.91,0.43
			c6.29,0.77,11.03,4.61,15.98,8.03c-3.67,1.68-5.8-0.77-8.03-2.98l-0.04-0.02c-1.21-0.89-3.27-0.08-3.98-1.98l-0.02-0.02
			c-1.25-0.85-3.25-0.16-4.05-1.96c-6.02,0.99-11.32-1.18-16.16-4.27c-2.6-1.66-3.73-4.7-3.73-7.95
			C247.01,446.94,247.04,419.03,247.07,391.13z"/>
		<path class="st18" d="M89.85,568.08c-7.29,1.11-11.61-4.99-17.52-7.23c-0.76-0.29-1.5-0.59-2.26-0.88
			c-3.18-0.55-5.73-2.36-7.96-4.48C56,549.7,50.15,543.65,44.2,537.7c-0.98-0.98-1.68-2.02-1.79-3.41c0.09-0.49,0.31-0.9,0.66-1.25
			c5.81,3.85,10.22,9.22,14.95,14.18c5.81,6.1,12.15,10.9,20.2,13.79c5.34,1.92,9.47,6.92,15.89,6.4c0.27-0.02,0.63,1.02,0.94,1.57
			C93.19,569.43,91.51,568.79,89.85,568.08z"/>
		<path class="st19" d="M533.82,525.93c4.74,6.63-0.67,10.93-3.97,15.25c-5.55,7.26-12.39,11.81-22.51,11.11
			c-12.09-0.84-24.28-0.22-36.43-0.24c-1.23,2.01-0.05,3.54,0.99,5.12c0.77,1.17,1.93,2.26,0.86,3.85c-1.75-0.1-2.68-1.57-3.4-2.68
			c-2.45-3.78-0.26-7.34,4.35-7.35c10.82-0.02,21.65-0.32,32.45,0.1c7.01,0.27,12.31-2.06,16.9-7.19c2.26-2.52,4.36-5.41,7.64-6.88
			c0.98-1.17,0.13-3.28,2.03-3.98l0.01-0.01c1.99-2.09-0.54-4.79,0.95-6.94L533.82,525.93z"/>
		<path class="st20" d="M274.88,22.43c0.03,0.31,0.04,0.63,0.04,0.94c-9.45-2.79-19.45-0.42-28.74-2.34
			c-13.68-2.82-27.25-0.75-40.83-1.59c-3.92-0.24-7.64,0.2-10.8-3.37c-2.39-2.7-6.23-2.38-9.08-0.14c-1.84,1.45-3.57,1.41-5.54,1.28
			c-0.41-0.27-1.01-0.32-1.14-0.93c1.03-2.21,3.82-1.28,5.17-2.91c2.07-1.64,4.76-1.04,7.04-1.93h0.02c7.64,7.9,17.42,7.41,27.21,7
			c3.15-0.13,6.32,0.14,9.46-0.05c13.43-0.82,26.58,3.31,40.05,2.17C270.05,20.35,272.5,21.76,274.88,22.43z"/>
		<path class="st21" d="M472.8,287.28c1.25-3.89,2.46-7.75,2.17-11.96c-0.18-2.6,1.5-3.73,4.05-4.02c4.58-0.51,8.94,0.15,12.74,2.69
			c6.4,4.26,13.28,6.13,20.94,5.29c1.96-0.21,3.98,0.03,5.97,0.07c0.3,0.63,0.14,1.12-0.46,1.47c-5.67,1.55-11.46,0.42-17.17,0.73
			c-5.83-0.27-10.26-4.05-15.34-6.21c-3.53-1.49-6.35-1.6-8.05,2.45c-1.13,4.32,0.01,9.17-3.23,13c-1.04,1.22-1.68,2.78-3.19,3.59
			c-0.5,0.2-1.01,0.21-1.52,0.02C468.25,290.96,471.04,289.34,472.8,287.28z"/>
		<path class="st15" d="M449.77,587.81c-10.12,0.57-20.19,0.49-30.14-1.81c-2.4-0.55-4.15-1.92-5.85-3.57
			c-2.26-2.19-4.66-4.24-7-6.35c-0.33-0.22-0.44-0.43-0.32-0.64c0.12-0.2,0.23-0.3,0.35-0.3c4.51-1.25,7.11,1.74,9.54,4.59
			c3.03,3.55,6.56,4.8,11.23,5.68c5.15,0.98,10.21,1.27,15.35,1.75c3.71,0.35,6.39-2.32,9.84-2.17c0.4-0.32,0.8-0.33,1.18,0.03
			C453.73,587.68,451,586.62,449.77,587.81z"/>
		<path class="st22" d="M161.93,449.1c-1.63-2.47-3.13-5.06-4.93-7.4c-4.89-6.35-9.46-5.81-12.89,1.49c-0.63,1.33-0.87,2.85-2,3.92
			c-0.33,0.46-0.64,0.43-0.94-0.02c-0.24-9.44,4.08-13.34,13.24-11.91c0.78,0.12,1.9,0.27,2.21,0.79c2.47,4.18,7.24,7.29,6.27,13.1
			C162.57,449.57,162.26,449.56,161.93,449.1z"/>
		<path class="st5" d="M295.93,508.99c3.54,4.98,3.2,10.9,1.11,15.63c-2.14,4.85-6.62,8.05-13.21,7.69
			c-11.09-0.6-22.23-0.32-33.34-0.09c-4.56,0.1-8.5-0.71-11.65-4.15c3.7-1.75,5.82,0.84,8.12,2.94c13.3,0,26.61,0,39.91,0
			c3.64-3.03,6.98-6.37,10.01-10.02c0-1.98,0-3.96,0-5.94C294.66,513.34,295.19,511.18,295.93,508.99z"/>
		<path class="st23" d="M386.83,568.01c-4.01,0.32-7.09-1.99-9.6-4.4c-3.38-3.25-7.01-5.95-11.17-7.95
			c-2.89-1.39-4.24-3.53-4.22-6.65c0.34-0.5,0.68-0.47,1.03-0.01c5.63,5.84,14.18,7.84,19.15,14.43c1.37,1.81,4.47,0.75,4.82,3.56
			c0.35,0.23,0.46,0.46,0.35,0.69C387.07,567.9,386.95,568.01,386.83,568.01z"/>
		<path class="st24" d="M472.8,287.28c-0.81,2.39-3.4,4-3.03,6.91c1.24,1.99,2.69,2.76,4.76,0.98c1.5-1.29,3.12-2.44,4.84-3.44
			c0.41-0.21,0.84-0.35,1.28-0.47c2.14-0.4,4.47,0.09,6.39-1.38c0.39-0.22,0.81-0.39,1.24-0.53c3.89-0.05,7.39-1.35,10.64-3.41
			c0.39-0.23,0.81-0.41,1.24-0.55c2.36-0.59,5,0.03,7.11-1.64c0.4-0.21,0.83-0.37,1.26-0.49c2.11-0.45,4.25-0.31,6.38-0.31
			c2.02,0,3.59-0.46,3.87-2.79c-0.03-0.27-0.07-0.54-0.11-0.8c3.04,0.24,2.05,2.52,1.93,4.13c-0.13,1.81-1.73,1.73-3.06,1.73
			c-7.74,0.02-15.03,1.68-21.81,5.58c-2.22,1.28-5.02,0.78-7.56,1.46c-4.71,1.25-8.82,2.53-12.26,6.29
			c-1.31,1.43-5.15,1.69-6.37-0.15c-1.7-2.55-1.4-6.04,0.19-8.9C470.3,288.5,471.17,287.16,472.8,287.28z"/>
		<path class="st25" d="M177.97,502.04c-0.02-1-0.03-1.99-0.05-2.99c0.31-0.49,0.62-0.49,0.93,0.01
			c6.25,8.42,13.39,15.95,23.42,19.69c3.06,1.14,6.86,0.21,10.32,0.36c1.65,0.07,3.84-0.76,4.36,1.96c0.31,0.63,0.13,1.04-0.55,1.21
			c-5.19-2.82-11.02-1.03-16.43-2.24l0,0C190.29,516.9,183.23,510.57,177.97,502.04z"/>
		<path class="st18" d="M806.47,180.23c-0.64,0.69-1.29,1.38-1.93,2.08c-0.26-0.23-0.35-0.47-0.27-0.71
			c0.08-0.24,0.16-0.36,0.25-0.36c1.92-4.49,0.93-7.4-3.95-9.37c-2.62-1.06-3.59-4.63-4.89-7c-2.38-4.34-5.87-7.4-9.19-10.69
			c-3.26-3.23-6.19-6.59-7.89-10.89c0.39-0.31,0.83-0.47,1.32-0.47c5.02,5.4,10.45,10.49,14.88,16.34
			c4.36,5.76,8.27,11.8,14.23,16.1C809.58,177.64,807.31,178.57,806.47,180.23z"/>
		<path class="st26" d="M161.93,449.1c0.31-0.01,0.63-0.02,0.94-0.02c0.04,3.31,0.09,6.62,0.14,9.93c2.98,4.3,8,6.9,9.95,12.05
			c2.36,0.37,1.95,2.22,1.97,3.77c0.06,4.05,0.05,8.1,0.07,12.15c2.21,1.73,1.69,3.9,0.97,6.1c-3.19-3.31-1.95-7.48-2.03-11.33
			c-0.09-4.3-0.8-8.66-4.14-11.2C162.41,464.94,160.81,457.62,161.93,449.1z"/>
		<path class="st13" d="M343.81,485.07c-1.49-1.35-1.92-3.11-1.93-5.03c-1.09-6.41-0.34-12.87-0.44-19.31
			c-0.05-3.66-0.2-7.23-1.56-10.67l0,0c-0.71-0.86-0.63-1.93-0.46-2.85c0.89-4.69-1.35-8.58-3.02-12.63
			c-0.04-0.57,0.12-1.08,0.48-1.52c2.29,0.93,3.62,2.41,3.98,5.06c1.82,13.57,2.43,27.19,2.02,40.86c2.14,1.11,1.01,3.42,1.84,5.01
			c0.05,0.35,0.11,0.7,0.16,1.05C344.53,485.42,344.17,485.42,343.81,485.07z"/>
		<path class="st23" d="M163,572.02c-1.63,0.16-3.5-0.25-4.77,0.92c-6.51,5.96-14.46,5.35-22.36,5.18
			c-4.61-0.1-9.23-0.09-13.84-0.13c-0.25-0.23-0.35-0.48-0.31-0.75c0.05-0.27,0.11-0.41,0.18-0.41c0.42-0.26,0.81-0.2,1.16,0.14
			c5.99,0.01,12-0.31,17.96,0.14c3.59,0.27,7.23-0.62,9.16-2.63c3.87-4.04,8.28-3.4,12.82-3.49c0.26,0.23,0.35,0.46,0.26,0.69
			C163.17,571.91,163.09,572.02,163,572.02z"/>
		<path class="st27" d="M779.57,143.29c-0.33,0-0.65,0-0.98-0.01c-4.26-1.51-5.18-5.98-7.89-8.86c-4.38-4.67-8.96-9.16-13.6-13.58
			c-1.97-1.87-2.94-3.87-2.39-6.54c0.4-0.28,0.78-0.26,1.16,0.05c0.49,0.75,1.11,1.41,1.61,2.15c2.08,3.47,5.18,6.05,8.1,8.69
			c5.21,4.71,9.05,10.52,13.52,15.82C779.65,141.66,779.98,142.42,779.57,143.29z"/>
		<path class="st5" d="M18.17,406.09c0.31-0.32,0.62-0.64,0.93-0.97c3.11,1.11,4,3.43,3.99,6.57c-0.07,12.47,0,24.94,0.01,37.4
			c0.26,0.88-0.1,1.15-0.93,0.97c-0.06-9.73-0.16-19.47-0.17-29.2c0-4.29,0.45-8.62-3.26-11.95
			C18.17,408.39,18.34,407.05,18.17,406.09z"/>
		<path class="st28" d="M507.73,25.37c0.35,0.01,0.71,0.03,1.06,0.04c-1.22,3.36-3.85,4.03-7.1,4.01
			c-14.97-0.07-29.94-0.03-44.91-0.03c0.02-0.31,0.05-0.61,0.1-0.92c3.03-1.24,6.19-0.48,9.28-0.53c7.61-0.13,15.23-0.23,22.83,0.01
			C495.43,28.15,501.71,27.82,507.73,25.37z"/>
		<path class="st12" d="M768.55,218.24c0-0.33,0-0.66,0-0.99c8.21-5.7,13.91-14.16,22-19.99c0.32-0.48,0.64-0.49,0.97-0.01
			c-5.86,6.4-11.65,12.89-18.16,18.66C771.98,217.14,770.43,218.04,768.55,218.24z"/>
		<path class="st29" d="M123.06,576.97c-0.36,0.01-0.71,0.02-1.07,0.04c-2.55,1.19-4.66-0.82-7.03-0.96
			c-0.31,0.02-0.62-0.01-0.93-0.08c-2.9-1.21-6.03-1.34-9.06-1.92c-5.4-1.08-10.69-2.45-15.13-5.96c1.83-0.24,3.59-0.06,5.21,0.91
			l0,0c1.24,0.9,3.26,0.2,4.07,1.99c5.64,0.83,11.35,1.51,16.64,3.75C118.14,575.73,121.58,573.22,123.06,576.97z"/>
		<path class="st17" d="M386.83,568.01c0-0.34,0-0.69,0-1.03c4.53-0.52,8.37,0.52,11.31,4.35c2.12,2.77,6.32,1.26,8.67,3.8
			c0,0.32-0.01,0.63-0.03,0.94c-5.62,0.07-10.59-1.66-14.78-5.46C390.51,569.26,388.87,568.26,386.83,568.01z"/>
		<path class="st30" d="M216.94,522.05c0-0.33,0-0.66,0-0.99c5.47,0.57,10.36,3.16,15.44,4.89c2.82,0.96,5.41,0.92,8.09,1.01
			c3.12,0.1,5.39,0.98,6.49,4.05c-2.71-0.96-4.76-3.78-8.12-2.94c-6.79,0.94-12.8-1.7-18.88-4.06
			C219.36,522.74,216.7,524.63,216.94,522.05z"/>
		<path class="st5" d="M27.09,477.08c2.77,1.04,4.04,2.98,3.96,6c-0.15,6,0.2,11.64,3.42,17.32c1.86,3.28,0.52,8.37,0.61,12.65
			c0.26,0.22,0.36,0.47,0.32,0.73c-0.05,0.27-0.11,0.4-0.18,0.4c-0.42,0.25-0.8,0.21-1.15-0.14l0,0c-0.38-6.21-0.68-12.44-4-17.99
			v0.01c-0.42-0.56-0.51-1.2-0.46-1.87c0.41-5.46,0.02-10.76-2.99-15.56C26.58,478.06,26.74,477.54,27.09,477.08z"/>
		<path class="st15" d="M362.87,549c-0.34,0-0.69,0-1.03,0.01c0.5-9.89-0.31-19.6-4.02-28.9c-0.64-1.63-1.97-3.12-0.97-5.07
			c4.15,3.98,5.34,9.35,5.83,14.62C363.27,536.06,362.85,542.55,362.87,549z"/>
		<path class="st5" d="M138.12,469.14c0.01,7.29,0.37,14.6-0.07,21.85c-0.45,7.35-2.69,14.56-2.01,22.03
			c-0.31,0.46-0.61,0.45-0.9-0.03c-0.01-5.6-1.29-11.58,0.25-16.72c2.73-9.11,0.8-18.19,1.78-27.21c0.17-0.11,0.33-0.22,0.5-0.33
			C137.82,468.88,137.97,469.01,138.12,469.14z"/>
		<path class="st20" d="M178.79,16.27c0.38,0.31,0.76,0.62,1.14,0.93c-6.45,0.16-12.65,0.31-18.75,3.7
			c-3.17,1.76-8.06,0.42-12.17,0.49c0-0.36,0-0.72,0-1.07c4.83,0.18,9.13-1.11,13.62-3.18C167.57,14.86,173.37,16.47,178.79,16.27z"
			/>
		<path class="st26" d="M274.96,491.04c2.65,1.07,4.7,3.74,8.03,2.98c8.53,0.86,10.81,2.73,10.96,8.99
			c-0.3,0.33-0.61,0.34-0.92,0.02c-2.18-5.91-7.94-6.36-12.73-7.88C277.76,494.35,275.84,493.6,274.96,491.04z"/>
		<path class="st5" d="M27.09,477.08c-0.01,0.35-0.02,0.7-0.03,1.05c-0.35,0.4-0.68,0.37-0.99-0.05
			c-0.59-9.44,1.68-19.27-3.91-28.01c0.31-0.32,0.62-0.65,0.93-0.97c3.11,1.11,4.03,3.43,3.99,6.56
			C26.98,462.79,27.08,469.93,27.09,477.08z"/>
		<path class="st23" d="M343.81,485.07c0.36-0.01,0.71-0.02,1.07-0.03l-0.01-0.01c1.83,0.77,1.11,2.77,1.96,4.02l0.02,0.03
			c1.91,0.7,1.1,2.75,1.97,3.97c5.18,1.78,3.8,6.21,4.03,9.99c-0.34,0.36-0.69,0.36-1.03,0c-1.24-4.8-4.8-8.4-6.7-12.9
			C344.42,488.44,343.83,486.88,343.81,485.07z"/>
		<path class="st31" d="M163,572.02c0-0.34,0-0.69,0-1.03c3.39-5.18,8.8-8.63,11.99-13.98c0.36,0.36,0.52,0.79,0.48,1.29
			c-1.29,6.68-5.52,10.92-11.45,13.73C163.68,572.03,163.34,572.03,163,572.02z"/>
		<path class="st32" d="M351.83,503.04c0.34,0,0.69,0,1.03,0c2.74,3.53,3.89,7.59,4,12c0.32,1.69,0.65,3.38,0.97,5.07
			C354.41,514.91,352.95,509.03,351.83,503.04z"/>
		<path class="st33" d="M791.52,197.26c-0.32,0-0.64,0.01-0.97,0.01c2.82-6.94,8.24-11.62,13.96-16.02
			c0.01,0.36,0.01,0.71,0.02,1.07C800.2,187.29,795.86,192.27,791.52,197.26z"/>
		<path class="st34" d="M135.14,513c0.3,0.02,0.6,0.03,0.9,0.03c0.08,0.29,0.13,0.58,0.16,0.87c3.37,5.47,8.43,9.35,12.89,13.8
			c0.21,0.44,0.18,0.88-0.07,1.3C143.03,528.27,135.01,519.01,135.14,513z"/>
		<path class="st31" d="M755.52,114.33c-0.27-0.01-0.54-0.02-0.8-0.04c0.4-3.93-1.77-7.28-2.85-10.8c-0.63-2.06-1.12-4.03-1.3-6.13
			c-0.67-2.49-3.41-4.1-2.98-7.05c3.91,0.55,4.34,3.46,4.48,6.57c0.32,1.86,0.34,3.8,1.48,5.44c0.07,0.29,0.11,0.59,0.11,0.89
			c1.1,1.53,0.64,3.63,1.89,5.1c0.07,0.3,0.1,0.61,0.09,0.92C756.23,110.96,756.38,112.65,755.52,114.33z"/>
		<path class="st12" d="M718.56,61.36c6.19,4.48,11.51,9.83,16.02,16C728.56,72.7,723.24,67.35,718.56,61.36z"/>
		<path class="st18" d="M453.8,584.99c-0.34,0-0.68-0.01-1.02-0.01c4.67-3.99,9.33-7.99,14-11.98c0.29,0.41,0.38,0.87,0.31,1.36
			C463.72,579.23,460.66,584.48,453.8,584.99z"/>
		<path class="st5" d="M141.16,447.1c0.31-0.01,0.63,0,0.94,0.02c0.01,3.3-0.18,6.62,0.08,9.91c0.37,4.68-0.5,8.82-4.07,12.12
			l-0.16-0.14c-1.49-3.62,0.95-5.72,3.05-7.96C141.06,456.39,141.11,451.75,141.16,447.1z"/>
		<path class="st28" d="M702.73,24.37c0.34-0.01,0.68-0.02,1.03-0.03c2.45,0.55,2.21,2.76,2.22,4.33
			c0.04,5.87,0.51,11.76-0.24,17.62l-0.21,0.12c-0.3,0.41-0.58,0.42-0.83-0.04c-0.04-2.12-0.33-4.28-0.08-6.37
			C705.29,34.6,703.57,29.55,702.73,24.37z"/>
		<path class="st31" d="M149.02,529c0-0.33,0-0.66,0-0.99c5.05,0.98,9.48,3.17,13.22,6.72c-0.31,0.53-0.71,0.62-1.21,0.27
			C156.48,534.1,152.39,532.26,149.02,529z"/>
		<path class="st35" d="M161.03,535c0.33,0,0.67-0.01,1-0.01c5.41,1.81,8.52,6.05,11.29,10.67c0.07,0.48-0.04,0.92-0.31,1.32
			C168.26,543.74,164.27,539.75,161.03,535z"/>
		<path class="st22" d="M172.96,471.07c-2.88-4.38-7.93-6.96-9.95-12.05C167.05,462.43,172.07,465.04,172.96,471.07z"/>
		<path class="st28" d="M686.58,5.4c4.84,3.17,8.83,7.18,12.02,12C693.92,14.08,689.94,10.05,686.58,5.4z"/>
		<path class="st12" d="M175.97,493.09c0.08-2.1,0.16-4.19-0.97-6.1c2.46,3.64,4.4,7.46,3.85,12.07l-0.47-0.01h-0.47
			C176.6,497.29,175.71,495.37,175.97,493.09z"/>
		<path class="st12" d="M296.89,521c-2.18,4.5-5.52,7.83-10.01,10.02C289.55,527,292.89,523.67,296.89,521z"/>
		<path class="st5" d="M35.06,514.09c0.01-0.35,0.02-0.69,0.03-1.04c6.02,2.43,3.35,7.76,4,11.98c0.26,0.23,0.36,0.47,0.32,0.73
			c-0.05,0.27-0.11,0.41-0.18,0.41c-0.42,0.26-0.8,0.21-1.15-0.13h0.01C38.26,521.75,35.81,518.14,35.06,514.09z"/>
		<path class="st36" d="M466.77,573.98c0.01-0.33,0.01-0.66,0-0.99c0.76-4.07,1.88-7.93,6-9.98c0.32,0.38,0.46,0.82,0.41,1.32
			C471.3,567.72,469.94,571.45,466.77,573.98z"/>
		<path class="st10" d="M472.8,564.01c0-0.33-0.01-0.67-0.02-1c-0.01-0.67-0.01-1.33-0.02-2c0.04-3.12-5.66-5.06-1.85-8.97
			c0.87,4,4.24,7.41,2.87,11.95C473.46,564.48,473.14,564.46,472.8,564.01z"/>
		<path class="st37" d="M39.06,526.08c0.01-0.35,0.02-0.7,0.03-1.05c2.64,2.02,3.69,4.83,3.99,8.01c-0.02,0.34-0.04,0.69-0.06,1.03
			C39.95,532.27,38.39,529.72,39.06,526.08z"/>
		<path class="st31" d="M173,546.98c0-0.33,0.01-0.67,0.01-1c3.25-0.36,1.79,2.84,3.02,4v0.01c0.71,2.68,0.71,5.37,0,8.05v0.02
			c-0.3,0.38-0.63,0.41-0.99,0.07c-0.02-0.37-0.04-0.74-0.06-1.1C176.13,553.31,172.94,550.47,173,546.98z"/>
		<path class="st22" d="M141.01,461.04c-0.97,2.67-3.63,4.69-3.05,7.96c-0.26,0.04-0.53,0.06-0.79,0.08
			C136.71,465.57,137.04,462.44,141.01,461.04z"/>
		<path class="st19" d="M533.68,526.08c-0.97,2.23,2.75,5.09-0.95,6.94c0.03-2.33,0.07-4.67,0.1-7
			C533.12,526.03,533.4,526.04,533.68,526.08z"/>
		<path class="st12" d="M293.02,503.03c0.31,0,0.61,0,0.92-0.02l-0.02-0.01c0.85,1.71,0.87,3.6,1.22,5.42
			c-0.09,0.21-0.19,0.43-0.28,0.64C291.46,507.91,293.48,505.09,293.02,503.03z"/>
		<path class="st12" d="M295.93,508.99c-0.1,2.09-0.17,4.18,0.96,6.07c-3.46-1.05-1.3-4.01-2.02-5.99l0.07-0.09
			c0.35-0.44,0.67-0.41,0.99,0.04V508.99z"/>
		<path class="st5" d="M336.88,433.07c-0.03,0.37-0.05,0.73-0.08,1.1c-0.34,0.38-0.66,0.36-0.95-0.07
			c-0.02-2.32-0.05-4.64-0.07-6.96c0.31-0.02,0.63-0.03,0.94-0.02C336.77,429.1,336.83,431.08,336.88,433.07z"/>
		<path class="st35" d="M704.7,46.36c0.28,0.01,0.55,0.02,0.83,0.04c-0.01,1.73,0.13,3.43,1.07,4.96
			C703.53,50.62,704.98,48.16,704.7,46.36z"/>
		<path class="st29" d="M344.72,483.99c-0.61-1.67-1.23-3.34-1.84-5.01C345.85,479.79,344.55,482.16,344.72,483.99z"/>
		<path class="st28" d="M700.52,19.4c1.48,0.95,1.19,2.8,2.06,4.06C700.11,23.02,700.83,20.94,700.52,19.4z"/>
		<path class="st30" d="M266.87,487.06c1.35,0.65,2.7,1.31,4.05,1.96C269.34,488.84,267.31,489.59,266.87,487.06z"/>
		<path class="st18" d="M99.12,570.97c-1.36-0.66-2.71-1.33-4.07-1.99C96.63,569.19,98.67,568.45,99.12,570.97z"/>
		<path class="st19" d="M532.73,533.03c-0.68,1.33-1.35,2.66-2.03,3.98C531,535.49,530.11,533.37,532.73,533.03z"/>
		<path class="st38" d="M736.48,79.36c1.5,0.94,1.2,2.79,2.07,4.05C736.07,82.98,736.83,80.89,736.48,79.36z"/>
		<path class="st29" d="M346.83,489.05c-0.65-1.34-1.31-2.68-1.96-4.02C347.44,485.44,346.64,487.49,346.83,489.05z"/>
		<path class="st29" d="M348.82,493.05c-0.66-1.32-1.31-2.65-1.97-3.97C349.5,489.42,348.61,491.51,348.82,493.05z"/>
		<path class="st30" d="M270.94,489.04c1.33,0.66,2.65,1.32,3.98,1.98C273.38,490.8,271.29,491.68,270.94,489.04z"/>
		<path class="st35" d="M712.57,57.36c1.22,0.92,3.07,0.6,4,2.07C715.07,59.08,712.94,59.92,712.57,57.36z"/>
		<path class="st0" d="M614.63,800.8c-6.97-1.98-14.2-0.51-21.26-1.5c-2.36-0.33-2.96-1.14-3.11-3.37
			c-1.06-15.36-3.3-30.56-5.95-45.73c-0.85-4.84-1.78-9.76-2.02-14.73c-0.62-12.75-3.62-25.15-5.57-37.71
			c-0.2-1.3-0.24-2.63-0.4-3.94c-0.17-1.38,0.52-3.62-1.5-3.63c-2.48-0.02-1.53,2.41-1.72,3.9c-0.12,0.98-0.02,1.99-0.02,2.99
			c0,31.76,0,63.53,0,95.29c0,7.01-0.31,7.28-7.34,7.3c-10.8,0.04-21.61,0.15-32.41,0.11c-1.5-0.01-3.34,0.91-4.55-0.9
			c1.4-2.3,0.94-4.85,0.94-7.32c0.02-57.41,0.02-114.81,0.02-172.22c0-1.66,0.05-3.33,0.01-4.99c-0.08-2.85,1.12-4.36,4.1-4.36
			c18.64-0.03,37.27-0.05,55.91,0.01c2.7,0.01,3.8,1.42,3.93,4.05c0.32,6.14,1.12,12.19,3.77,17.85c0.14,0.29,0.19,0.66,0.15,0.98
			c-1.17,8.83,2.26,17.23,2.41,26.02c0.11,5.97,0.94,12.34,3.15,18.2c0.68,1.79,0.58,3.62,0.48,5.42c-0.2,3.72,0.23,7.25,2.32,10.41
			c0.25,0.4,0.03,1.29,0.89,1.09c0.34-0.08,0.35-0.72,0.39-1.17c-0.26-8.69,2.17-17.07,2.85-25.66c0.42-5.38,0.75-11.21,2.94-16.48
			c0.25-0.61,0.39-1.33,0.34-1.95c-0.61-8.19,2.78-15.97,2.36-24.16c-0.21-4.16,2.02-7.96,2.3-12.16c0.2-2.87,3.12-2.45,5.23-2.45
			c15.82-0.04,31.63-0.03,47.45-0.02c12.05,0.01,10.9-1,10.9,11.12c0.02,57.77,0.01,115.54,0.01,173.31c0,5.45,0,5.44-5.37,5.43
			c-10.82-0.01-21.64,0.02-32.46-0.01c-5.87-0.02-6.11-0.26-6.12-6.3c-0.02-28.3-0.03-56.61,0.01-84.91
			c0.01-4.32-0.37-8.61-0.92-12.98c-0.67,3.23-1.59,6.37-2.53,9.5c-2.36,13.01-3.98,26.11-4.55,39.32
			c-0.17,4.01-1.51,7.79-2.21,11.67c-1.3,7.17-1.21,14.5-2.87,21.57c-0.81,3.45-0.88,6.88-0.96,10.36
			C623.45,796.07,621.69,798.49,614.63,800.8z"/>
		<path class="st0" d="M214.89,800.75c-13.28,0-26.55,0-39.83,0c-3.27-1.53-6.77-2.39-10.17-3.56c-3.49-3-7.49-5.26-10.93-8.41
			c-8.25-7.55-12.8-16.95-15.43-27.54c0.02-35.51,0.02-71-0.02-106.5c0-4,0.11-7.93,1.4-11.74c0.12-0.54,0.3-1.07,0.53-1.57
			c4.86-12.87,13.65-22.34,25.39-29.25c1.88-0.58,3.73-1.09,5.55-1.98c5.21-2.56,10.68-4.01,16.64-3.78
			c8.69,0.33,17.47-0.66,25.97,2.05c8.88,3.88,17.98,7.36,24.52,15.14c3.52,4.19,6.46,8.69,8.92,13.56c0.26,0.51,0.45,1.04,0.59,1.6
			c3.86,8.64,3.49,17.78,3.47,26.93c-0.08,28.81-0.06,57.62,0,86.44c0.01,4.51-0.06,8.97-1.52,13.28
			c-3.34,12.23-10.44,21.75-20.93,28.78c-1.38,0.92-2.49,2.16-3.91,2.99C221.68,798.36,218.17,799.22,214.89,800.75z"/>
		<path class="st0" d="M346.79,800.75c-13.28-0.01-26.55-0.01-39.83-0.02c-1.5-1.5-3.64-0.51-5.31-1.35
			c-0.41-0.09-0.79-0.23-1.16-0.43c-1.19-0.87-2.71-1.03-3.97-1.79c-1.17-1.02-2.77-1.2-4.03-2.06
			c-5.4-5.55-11.15-10.75-16.32-16.53c-2.22-4.94-4.88-9.71-5.75-15.16c0.02-37.02,0.03-74.02-0.03-111.03
			c-0.01-3.84,0.22-7.6,1.37-11.25c0.12-0.53,0.29-1.06,0.5-1.57c1.35-2.88,2.89-5.69,4.12-8.65c5.27-5.51,10.72-10.86,16.12-16.24
			c1.3-0.86,2.93-1.08,4.14-2.13c1.42-0.73,3.03-1.04,4.38-1.94c0.48-0.14,0.95-0.3,1.42-0.48c7.5-3.08,15.29-4.29,23.37-3.62
			c8.09-0.68,15.9,0.5,23.4,3.59c0.45,0.18,0.92,0.33,1.39,0.46c1.36,0.89,2.98,1.22,4.42,1.95c1.2,1.04,2.8,1.32,4.13,2.13
			c5.35,5.31,10.72,10.6,16.01,15.97c0.85,1.34,1.12,2.97,2.18,4.21c0.7,1.55,1.19,3.18,2.01,4.68c0.17,0.54,0.35,1.06,0.55,1.58
			c1.63,8.92,3.61,17.74,3.48,26.93c-0.24,17.6-0.46,35.21,0.07,52.8c0.34,11.16-1.57,22.06-2.14,33.09
			c-0.03,5.16,0.5,10.38-1.59,15.32c-0.18,0.46-0.34,0.93-0.47,1.4c-0.9,1.36-1.22,2.99-1.96,4.43c-1.05,1.21-1.3,2.83-2.14,4.14
			c-5.43,5.4-10.7,10.95-16.29,16.19C354.85,797.17,351,799.35,346.79,800.75z"/>
		<path class="st0" d="M519.61,797.96c-0.04,0.22-0.05,0.45-0.03,0.67c-1.42,1.63-3.36,1.16-5.12,1.16
			c-12.92,0.04-25.84-0.13-38.76,0.11c-4.22,0.08-5.65-1.51-6.48-5.47c-2.25-10.77-5.42-21.34-7.72-32.11
			c-2.15-8.48-4.57-16.89-6.52-25.43c-0.61-2.93-1.26-5.84-2.27-8.66c-0.28-0.78-0.64-1.62-1.66-1.45s-1.12,1.11-1.2,1.92
			c-0.13,1.33-0.08,2.66-0.08,3.99c0,19.97,0.02,39.94-0.01,59.91c-0.01,6.4-0.82,7.18-7.2,7.2c-11.15,0.03-22.3,0.05-33.45-0.01
			c-5.9-0.03-7.28-1.42-7.28-7.45c-0.03-58.74-0.02-117.49,0-176.23c0-5.74,0.37-6.12,5.82-6.14c12.15-0.04,24.3-0.05,36.44,0
			c5.24,0.02,5.66,0.44,5.67,5.77c0.04,18.31,0.01,36.61,0.02,54.92c0,1.16-0.06,2.33,0.03,3.49c0.1,1.25-0.2,2.94,1.72,2.99
			c1.51,0.04,1.67-1.38,1.89-2.52c1.9-9.72,6.11-18.8,7.84-28.57c0.73-4.14,3.25-7.59,4.44-11.58c2.08-6.93,3.33-14.09,5.92-20.9
			c0.94-2.47,1.94-3.61,4.46-3.61c11.81-0.02,23.63-0.02,35.44,0c1.72,0,3.38,0.13,4.07,2.11c0,2.23-0.01,4.47-0.01,6.7
			c-7.31,22.35-14.77,44.65-22.28,66.93c-2.24,6.65-2.39,13.38-0.12,20c1.93,5.63,3.87,11.26,5.23,17.06
			c0.93,7.01,4.82,13.13,6.03,20.06c1.5,6.86,3.37,13.61,6.04,20.13c1.4,7.96,5.02,15.24,6.96,23.06
			C518.43,789.99,519.74,793.82,519.61,797.96z"/>
		<path class="st39" d="M515.6,612.09c-1.27-1.45-2.99-1.22-4.64-1.22c-11.32,0-22.64,0.08-33.95-0.06
			c-3.05-0.04-3.54,1.1-4.64,3.96c-3,7.87-3.66,16.36-7.08,24.07c-2.3,5.18-4.95,10.32-4.67,16.26c0.02,0.33,0.08,0.72-0.06,0.99
			c-3.29,6.6-5.28,13.56-6.16,20.87c-0.2,1.65-1.75,1.82-3.14,1.76c-1.63-0.07-2.34-1.07-2.35-2.63c-0.02-2.16-0.04-4.33-0.04-6.49
			c0-17.81-0.11-35.62,0.08-53.42c0.04-3.95-0.74-5.54-5.12-5.43c-12.31,0.3-24.63,0.21-36.94,0.04c-3.3-0.04-4.23,1.02-4.22,4.27
			c0.08,59.42,0.07,118.83,0.03,178.25c0,4.03,1.77,5.67,5.73,5.64c11.65-0.09,23.3-0.18,34.95,0.03c4.51,0.08,5.68-1.8,5.65-5.97
			c-0.14-21.14-0.08-42.27-0.04-63.41c0-1.55-0.67-3.66,1.56-4.21c1.57-0.39,2.92,0.43,3.28,2.25c0.69,3.4,1.38,6.79,2.07,10.19
			c-0.41,0.45-0.85,0.5-1.34,0.14c-1.93-3.46-1.42-7.72-3.66-11.07c-1.25,1.64-0.61,3.54-0.61,5.3
			c-0.05,20.13-0.02,40.26-0.05,60.39c0,1.81,0.37,3.66-0.37,5.43c0.03,0.27,0.01,0.53-0.05,0.79c-1.03,1.8-2.77,1.49-4.4,1.49
			c-12.72,0.01-25.45-0.03-38.17,0.04c-2.31,0.01-4.26-0.33-5.48-2.5l0.02,0.02c-0.79-1.4-0.44-2.93-0.44-4.41
			c-0.02-59.41-0.02-118.82,0-178.22c0-1.48-0.31-3,0.4-4.42c1.07-2.02,2.99-1.77,4.81-1.77c12.78,0,25.57,0.09,38.35-0.05
			c4.31-0.05,5.88,1.7,5.86,5.94c-0.11,20.25-0.05,40.5-0.05,62.15c3.09-5.55,2.72-10.8,4.84-15.21c1.07-2.65,2.65-5.08,3.23-7.93
			v-0.01c1.25-1.9-0.18-4.21,0.93-6.13c-0.22-2.23,0.27-4.24,1.83-5.92c1.06-2.66,2.69-5.1,3.21-7.98c0.61-2,0.45-4.25,1.95-5.96
			c1.43-1.82-0.18-4.17,1.04-6.02l-0.02,0.02c0.62-2.82,2.59-5.14,3.02-8.03c-0.15-1.7,0.06-3.23,1.88-4.01
			c14.33-0.66,28.66-0.78,42.99,0.06C515.62,610.67,515.61,611.38,515.6,612.09z"/>
		<path class="st39" d="M605.63,696.03c-2.01-4.87-2.3-10.04-3.17-15.14c-0.99-5.84-0.62-12.04-3.33-17.58
			c-0.21-0.43-0.33-0.99-0.27-1.45c1.2-9.14-2.82-17.88-2.08-26.97c0.31-3.73-1.69-6.97-2.46-10.4c-0.83-3.71-1.5-7.32-1.56-11.07
			c-0.03-1.99-1.04-2.55-2.82-2.54c-18.81,0.02-37.61,0.03-56.42-0.01c-2.16,0-3.02,0.9-2.92,2.98c0.06,1.33,0,2.66,0,3.99
			c0,58.25,0.01,116.51-0.03,174.76c0,2.2,0.87,4.79-1.8,6.28c0.01-61.05,0.02-122.1,0.02-183.16c0-6.5,0.15-6.68,6.75-6.68
			c17.47-0.02,34.93,0.08,52.4-0.07c4.46-0.04,6.39,1.14,6.9,6.08c0.5,4.96,0.21,10.27,2.84,14.9c1.32,3.91-0.34,8.05,0.95,11.96
			c0.3,1.36-0.3,2.95,1.05,4.03c1.34,4.58-0.36,9.37,0.95,13.96c0.3,1.36-0.3,2.95,1.05,4.03c1.29,2.54-0.31,5.42,0.94,7.96
			c0.31,1.35-0.31,2.95,1.05,4.02c1.34,3.23-0.37,6.75,0.96,9.98c0.29,1.35-0.32,2.94,1.04,4.01
			C607.29,691.96,607.39,694,605.63,696.03z"/>
		<path class="st40" d="M633.6,705.88c0.2-4.11,1.89-8.06,1.33-12.27c-0.13-1.01,0.34-2.08,1.56-2.16c1.57-0.1,1.86,1.12,1.92,2.34
			c0.06,1.33,0.04,2.66,0.04,3.99c0,31.95,0.1,63.9-0.11,95.85c-0.03,4.53,1.35,5.59,5.64,5.49c11.31-0.28,22.63-0.16,33.94,0.01
			c2.2,0.03,2.98-0.33,2.83-2.6c-0.18-2.65-0.05-5.32-0.05-7.98c0-57.24-0.06-114.49,0.11-171.73c0.01-4.78-1.13-6.17-6.01-6.08
			c-17.13,0.31-34.28,0.21-51.41,0.05c-3.52-0.03-4.09,1.07-5.13,4.5c-2.27,7.45-0.03,15.45-3.5,22.6c-0.46,0.96-0.2,2.29-0.19,3.46
			c0.03,8.37-1.47,16.49-3.84,24.49c-0.18,0.62-0.22,1.33-0.15,1.98c0.97,8.95-3.27,17.49-2.11,26.47c0.07,0.54-0.5,1.15-0.78,1.73
			c-1.97-5.4-0.15-10.83-0.11-16.25c0.12-1.35-0.47-2.87,0.98-3.88c1.62-3.93-0.29-8.16,1.02-12.11c0.12-1.34-0.48-2.87,0.99-3.87
			c1.53-2.54-0.25-5.5,1.05-8.07c0.14-1.36-0.42-2.9,1.03-3.91c1.42-3.96-0.32-8.16,0.94-12.13c0.11-1.35-0.49-2.87,0.98-3.87
			c1.6-3.93-0.29-8.16,1.02-12.12c0.1-1.35-0.48-2.87,0.98-3.87c1.37-1.51-0.05-3.57,1.02-5.13c0.31-0.31,0.61-0.61,0.92-0.92
			c4.11-0.93,8.27-0.36,12.4-0.39c14.97-0.09,29.95-0.05,44.92-0.02c1.64,0,3.33-0.36,4.92,0.4c0.31,0.31,0.61,0.61,0.92,0.92
			c0.79,1.75,0.4,3.61,0.4,5.42c0.02,58.56,0.01,117.13,0.06,175.69c0,2.02-0.95,4.43,1.49,5.89l-0.01-0.01
			c1.46,2.41-1.02,2.18-1.99,2.96c-1.02-0.01-2.04-0.02-3.06-0.04c-11.69-0.96-23.39-0.15-35.09-0.45
			c-1.95-0.05-3.96,0.48-5.84-0.46l0,0c-0.92-1.73-0.45-3.59-0.46-5.38c-0.03-29.09-0.02-58.18-0.03-87.26
			c0-1.66,0.11-3.33-0.13-4.98c-0.07-0.49-0.23-0.97-0.28-1.46c-0.7,0.23-0.5,1.08-1.01,1.44c0.15,1.38-0.39,2.56-1.06,3.71
			C634.32,706.26,633.96,706.24,633.6,705.88z"/>
		<path class="st41" d="M497.77,722.84c-2.28-7.38-5.12-14.63-6.69-22.16c-1.94-9.31,2.15-17.9,5-26.5
			c5.66-17.09,11.46-34.13,17.15-51.21c0.53-1.58,0.7-3.27,2.36-4.18c0.42,6.55-2.99,12.11-4.89,18.01
			c-5.41,16.82-11.19,33.53-16.79,50.29c-2.99,8.95-0.37,17.33,2.78,25.61c1.13,2.98,1.92,5.99,2.13,9.16
			C498.7,722.42,498.33,722.74,497.77,722.84z"/>
		<path class="st40" d="M633.6,705.88c0.36,0,0.73,0.01,1.09,0.01c-1.86,9.56-2.02,19.32-3.62,28.94
			c-1.13,6.77-0.85,13.83-2.45,20.62c-1.93,8.21-1.45,16.76-3.61,24.95c-1.15,4.33,0.03,8.9-1.2,13.33c-1.94,7-1.75,7.05-9.18,7.06
			c0.21-0.26,0.38-0.71,0.63-0.75c7.87-1.28,6.94-7.77,7.54-13.1c1.04-9.32,2.31-18.6,3.51-27.89c0.8-6.19,2.17-12.3,2.74-18.56
			C630.1,728.92,630.26,717.17,633.6,705.88z"/>
		<path class="st42" d="M6.18,799.74c-1.75-1.42-1-3.4-1.01-5.13c-0.04-59.83-0.04-119.65-0.01-179.48c0-1.75-0.63-3.69,0.93-5.2
			c0.22,0.24,0.45,0.49,0.67,0.73c0.96,1.87,0.75,3.89,0.75,5.87c0.02,58.84,0.02,117.69,0.01,176.53c0,1.66,0.08,3.33-0.33,4.96
			C6.97,798.67,6.63,799.24,6.18,799.74z"/>
		<path class="st43" d="M683.63,797.82c-3.31-0.79-1.95-3.49-1.95-5.35c-0.08-48.74-0.06-97.48-0.06-146.22
			c0-11.81,0.04-23.62,0.06-35.43c1.52,1.91,0.84,4.16,0.84,6.26c0.04,58,0.03,115.99,0.04,173.99
			C682.56,793.36,682.14,795.75,683.63,797.82z"/>
		<path class="st44" d="M6.18,799.74c0.01-0.31,0.03-0.62,0.05-0.92c0.44-0.41,0.94-0.73,1.49-0.98c2.44-0.72,4.95-0.47,7.44-0.48
			c22.8-0.02,45.6,0.38,68.38-0.16c13.3-0.32,25.3-4.36,31.78-17.65c0.66-1.35,1.52-2.59,3.06-3.13c0.62-0.11,1.18,0.03,1.67,0.42
			c-0.9,9.78-10.38,18.86-19.92,21.24c-9.57,2.39-19.08,1.78-28.64,1.82C49.72,800,27.95,799.81,6.18,799.74z"/>
		<path class="st40" d="M401.75,610.81c0.02,62.35,0.03,124.7,0.05,187.05c-1.49-1.53-0.89-3.47-0.89-5.23
			c-0.03-58.85-0.03-117.71-0.01-176.56C400.9,614.3,400.39,612.39,401.75,610.81z"/>
		<path class="st40" d="M461.9,761.81c2.75,8.72,4.99,17.58,6.72,26.55c0.58,3.01,2.52,5.62,2.22,8.94
			c-0.17,1.83,1.76,1.61,3.03,1.6c15.24-0.07,30.47-0.17,45.71-0.27c0.05,2.77-2.06,2.1-3.55,2.1c-13.94,0.04-27.88-0.02-41.81,0.06
			c-3.16,0.02-5.01-1.13-5.64-4.29c-2.35-11.61-6.22-22.87-7.9-34.63C461.07,761.49,461.47,761.47,461.9,761.81z"/>
		<path class="st45" d="M249.07,766.86c3.97-29.65,0.9-59.45,1.82-89.17c0.21-6.81-0.17-13.63,0.09-20.44
			c0.21-5.37-1.19-10.22-3.48-14.92c-0.85-1.74-0.37-3.59-0.56-5.38c0.35-0.36,0.7-0.39,1.07-0.03c2.19,4.28,4.04,8.64,4.04,13.59
			c-0.02,36.3,0,72.6-0.02,108.9c0,2.65,0.15,5.39-2.01,7.47C249.69,767.35,249.38,767.32,249.07,766.86z"/>
		<path class="st29" d="M380.93,754.86c-0.79-6.6,1.56-12.97,1.69-19.38c0.49-24.4,0.58-48.83-0.07-73.22
			c-0.16-6.02-0.84-12.48-3.32-18.39c-0.61-1.44-0.29-3.27-0.41-4.92c0.35-0.36,0.7-0.37,1.06-0.01c0.58,1,1.71,2.05,1.64,3
			c-0.48,6.21,2.49,11.9,2.46,18.05c-0.1,19.12-0.25,38.25,0.04,57.36c0.19,12.58-0.42,25.07-2.19,37.51
			C381.53,755.3,381.23,755.32,380.93,754.86z"/>
		<path class="st46" d="M267.01,485.98c-10.37,0.41-19.8-6-19.37-18.46c0.88-25.45,0.23-50.95,0.21-76.43
			c1.17-5.24,4.6-7.24,9.76-7.05c4.45,0.17,8.92,0.09,13.38,0.13c-4.14,1.82-8.49,0.63-12.73,0.82c-6.38,0.28-9.38,3.1-9.39,9.55
			c-0.03,24.09,0.32,48.19-0.16,72.28c-0.22,10.81,4.84,15.44,15.55,18.26C265.2,485.34,266.26,485.15,267.01,485.98z"/>
		<path class="st15" d="M272.92,638.94c-4.46,41.9-0.81,83.93-1.98,125.88c0.31,0.89-0.09,1.13-0.91,1
			c-0.07-14.6-0.19-29.2-0.21-43.8c-0.04-24.89-0.02-49.79,0.01-74.68c0-2.94-0.43-6.05,2.02-8.43
			C272.21,638.57,272.57,638.56,272.92,638.94z"/>
		<path class="st15" d="M141.01,640.94c-4.43,40.57-0.82,81.27-1.98,121.89c0.31,0.89-0.09,1.13-0.91,1
			c-0.07-16.09-0.19-32.18-0.21-48.27c-0.04-22.07-0.02-44.14,0.01-66.21c0-2.94-0.42-6.05,2.01-8.44
			C140.3,640.56,140.66,640.55,141.01,640.94z"/>
		<path class="st47" d="M176.04,549.97c-1.52-0.94-0.93-3.49-3.02-4c-3.3-4.02-6.96-7.69-10.98-10.98
			c-3.74-3.44-8.59-4.82-13.02-6.98c-5.4-3.68-11.04-7.15-12.82-14.11c2.98,0.73,4.65,3.21,6.35,5.31
			c5.81,7.17,14.01,10.55,21.74,14.86C170.38,537.47,175.36,542.28,176.04,549.97z"/>
		<path class="st48" d="M643.65,220.25c5.04-0.38,9.58,1.31,14.39,2.59c8.12,2.16,16.95,4.04,24.4-2.81
			c1.81-1.66,4.14-1.87,6.55-1.85c8.15,0.06,16.3,0.07,24.44,0.01c5.81-0.05,11.52-0.26,16.84,2.98c3.41,2.08,7.51,0.69,11.28,1.14
			c0.25,0.23,0.33,0.45,0.24,0.67s-0.17,0.33-0.25,0.33c-5.79-0.04-11.62,0.31-16.83-3.08c-1.54-1-3.45-1.03-5.31-1.02
			c-9.82,0.05-19.64,0.08-29.46-0.02c-2.48-0.02-4.57,0.41-6.2,2.42c-2.29,2.81-5.44,3.67-8.9,3.61c-7.72-0.13-15.62,1.17-22.79-3.2
			c-2.54-1.55-5.54-0.64-8.34-0.69c-0.14-0.17-0.28-0.34-0.42-0.51C643.41,220.62,643.53,220.43,643.65,220.25z"/>
		<path class="st40" d="M635.74,702.19c0.08-2.88-0.6-5.82,0.39-8.62c0.5,0.01,1.01,0.01,1.51,0.02c0,35.42,0,70.83,0,106.25
			c-1.65-1.68-0.92-3.79-0.92-5.7c-0.05-28.6-0.01-57.19-0.08-85.79C636.63,706.3,637.48,704.02,635.74,702.19z"/>
		<path class="st42" d="M92.11,612.88c10.77,2.18,17.41,9.25,21.98,18.69c7.11,14.7,4.62,30.45,4.71,45.89
			c0.01,0.95,0.87,4.15-2.44,3.48c-0.22-0.17-0.45-0.34-0.67-0.51c1.4-7.97,0.56-16.05,1.09-24.04c0.57-8.62-2.66-16.19-5.26-23.99
			c-3.85-7.21-9.41-12.68-16.7-16.39c-1.17-0.6-2.47-1.03-2.95-2.45C91.94,613.33,92.03,613.1,92.11,612.88z"/>
		<path class="st31" d="M214.94,608.97c-8.11-0.68-16.06-2.4-24.33-2.24c-6.74,0.13-12.86,1.74-18.64,4.56
			c-2.39,1.17-4.56,1.51-6.98,1.66c-1.98,1.53-3.67,3.63-6.56,3.42c-0.17-0.16-0.33-0.32-0.5-0.49c3.83-4.92,9.91-5.7,15.13-7.78
			c11.3-4.52,23.26-1.61,34.92-2.08c1.51,1.15,3.45,1.15,5.12,1.88c0.95,0.04,1.9,0.08,2.85,0.12c0.24,0.23,0.33,0.47,0.28,0.73
			s-0.11,0.39-0.19,0.39C215.64,609.38,215.26,609.33,214.94,608.97z"/>
		<path class="st15" d="M138.13,763.82c0.3-0.33,0.6-0.67,0.91-1c3.21,3.45,3.64,8.22,5.8,12.22c4.14,7.64,9.59,13.75,17.07,18.16
			c1.33,0.79,2.8,1.79,3.09,3.62c-3.18,0.98-4.66-2.05-7.03-2.97l0.03,0.02c-4.66-3.36-8.66-7.37-12.03-12.03l0.02,0.03
			c-0.94-1.21-0.88-2.92-2.02-4.02l0.02,0.03c-0.94-1.21-0.87-2.94-2.05-4.02C139.33,771.02,138.78,767.4,138.13,763.82z"/>
		<path class="st25" d="M346.79,800.75c3.55-2.94,7.43-5.21,12.08-5.91c5.59-4.83,10.51-10.35,15.84-15.45
			c0.5-0.06,0.9,0.11,1.23,0.48C372.33,789.63,356.73,800.81,346.79,800.75z"/>
		<path class="st42" d="M6.09,609.94c1.51-1.55,3.45-0.92,5.2-0.92c21.6-0.04,43.2-0.02,64.8-0.04c2.84,0,5.63,0.11,8.03,1.9
			c-0.24,0.22-0.48,0.44-0.72,0.66c-3.45,1.14-6.86-0.27-10.31-0.24c-20.05,0.16-40.1,0.1-60.15,0.06c-2.27,0-4.69,0.46-6.68-1.22
			L6.09,609.94z"/>
		<path class="st17" d="M249.07,766.86c0.31,0,0.63,0.01,0.94,0.02c0.34,4.27-1,7.92-3.99,10.98c-1.63,1.82-2.68,4.03-4.06,6.02
			l0.02-0.03c-2.74,3.95-6.08,7.29-10.03,10.03l0.03-0.02c-2.37,0.92-3.86,3.95-7.03,2.97c0.98-3.97,5.24-3.97,7.67-6.28
			C239.78,783.76,245.03,775.75,249.07,766.86z"/>
		<path class="st49" d="M39.06,526.08c0.47,3.08,1.7,5.8,3.96,8c0.09,1.86,1.47,2.9,2.66,3.99c8.04,7.4,14.58,16.49,24.4,21.91
			c-2.76,0.76-5.22-0.77-6.77-2.27c-7.77-7.52-16.55-14.16-22.31-23.52c-1.48-2.39-3.46-4.9-2.91-8.15
			C38.4,526.03,38.73,526.04,39.06,526.08z"/>
		<path class="st50" d="M120.05,776.85c-0.34,0-0.69,0-1.03,0c-1.62-1.59-1.79-3.73-1.19-5.57c2.8-8.61,1.46-17.44,1.59-26.18
			c0.1-6.58,0.92-13.27-1.42-19.72c-0.46-1.25-0.2-2.63,0.49-3.85c0.4-0.56,0.93-0.78,1.61-0.67c2.06,1.91,2.02,4.46,2.03,6.95
			c0.03,13.3-0.08,26.61,0.08,39.91C122.24,771.04,120.73,773.8,120.05,776.85z"/>
		<path class="st41" d="M519.61,797.96c-2.35-10.99-6.55-21.44-9.49-32.26c-0.25-0.93-0.25-1.92-0.36-2.88
			c-0.33-1.05,0.13-1.26,1.05-1c3.13,9.97,6.19,19.96,9.44,29.89C521.01,794.02,520.05,795.91,519.61,797.96z"/>
		<path class="st40" d="M449.88,798.02c-0.03-22.35-0.07-44.7-0.08-67.05c0-1.43-0.46-3.04,1.11-4.07
			c-0.05,21.78-0.1,43.56-0.19,65.34C450.72,794.19,451.29,796.26,449.88,798.02z"/>
		<path class="st43" d="M786.68,609.9c-23.41,0-46.81,0-70.22,0c1.23-1.18,2.79-0.86,4.25-0.86c20.57-0.01,41.14-0.01,61.71,0
			C783.88,609.04,785.44,608.72,786.68,609.9z"/>
		<path class="st51" d="M101.06,699.84c7.23,0.77,15.67,8.21,17.03,15c-0.17,0.17-0.35,0.33-0.52,0.5
			c-0.45,0.18-0.91,0.27-1.39,0.25c-4.98-2.77-8.28-7.31-12.04-11.37c-0.73-1.16-2.06-1.62-2.98-2.57
			c-0.12-0.19-0.24-0.38-0.36-0.57C100.69,700.63,100.77,700.21,101.06,699.84z"/>
		<path class="st52" d="M472.8,564.01c0.32-0.01,0.65-0.02,0.98-0.02c-2.3,11.16-14.72,23.48-24.01,23.81
			c0.66-1.91,3.04-1.38,4.03-2.82c5.89-1.82,9.11-6.8,12.97-11C468.78,570.66,470.79,567.34,472.8,564.01z"/>
		<path class="st43" d="M680.76,609.9c-20.75,0-41.49,0-62.24,0c1.08-1.04,2.44-0.87,3.76-0.87c18.24-0.01,36.49-0.01,54.73,0
			C678.32,609.03,679.68,608.85,680.76,609.9z"/>
		<path class="st37" d="M358.87,614.95c-1.54-0.28-3.64,0.55-4.01-2.04c-1.25-0.84-3.25-0.12-4.02-1.95l0.01,0.01
			c-0.33-0.24-0.44-0.48-0.33-0.71c0.11-0.23,0.23-0.35,0.34-0.35c5.12,0.01,9.11,3.04,12.8,5.79c4.16,3.11,8.02,6.86,11,11.29
			c-0.19,0.73-0.58,1.25-1.4,1.31C367.9,624.48,364,619.05,358.87,614.95z"/>
		<path class="st53" d="M527.7,516.06c-4.18,0.36-7.03-1.23-9.61-4.78c-3.1-4.25-6.92-7.98-10.12-12.25c-2.97-3.96-2.9-7.78-1.27-12
			c-0.78,6.67,1.94,11.86,6.78,16.21c1.35,1.21,2.91,2.42,3.72,3.96C519.52,511.65,522.76,514.81,527.7,516.06z"/>
		<path class="st40" d="M461.9,761.81c-0.41,0.02-0.81,0.05-1.22,0.07c-2.17-7.93-5.57-15.56-6.1-23.91
			c0.44-0.04,0.89-0.09,1.34-0.13C458.39,745.71,460.58,753.65,461.9,761.81z"/>
		<path class="st40" d="M401.78,797.84c1.69,0.99,3.22,2.06,5.43,2.04c12.77-0.12,25.55-0.07,38.33-0.04c1.55,0,2.95-0.33,4.29-1.03
			c-0.35,2.49-2.29,1.94-3.86,1.94c-13.12,0.03-26.24,0.01-39.36,0.04C404.37,800.8,402.15,800.86,401.78,797.84z"/>
		<path class="st40" d="M691.57,799.89c16-0.03,31.99-0.06,47.99-0.09c-0.81,1.1-2.01,0.98-3.16,0.98c-13.87,0-27.75,0-41.62,0
			C693.63,800.78,692.45,800.88,691.57,799.89z"/>
		<path class="st48" d="M552.79,337.25c1.12-2.14,0.91-4.46,0.95-6.76c0.03-1.63-0.38-3.7,0.44-4.83
			c5.12-7.08,3.17-15.13,3.56-22.86c0.08-1.58-0.56-3.34,1-4.61c-0.01,5.45-0.08,10.89-0.02,16.34c0.04,4.17-0.07,8.17-3.17,11.56
			c-1.7,1.85-0.6,4.45-0.85,6.71C554.51,334.47,555.4,336.61,552.79,337.25z"/>
		<path class="st40" d="M177.97,502.04c6.2,7.38,12.91,14.14,21.99,18c-4.3,0.35-7.94-2.06-10.69-4.4
			C184.83,511.87,178.92,508.87,177.97,502.04z"/>
		<path class="st37" d="M296.89,612.92c-0.37,2.58-2.47,1.76-4.01,2.04c-3.01,2.24-5.16,5.47-8.47,7.37
			c-0.78-0.09-1.2-0.57-1.36-1.31c4.28-6.37,10.52-9.59,17.82-11.1c0.34,0.23,0.46,0.46,0.35,0.7s-0.22,0.36-0.33,0.36l0.01-0.01
			C300.15,612.8,298.14,612.08,296.89,612.92z"/>
		<path class="st41" d="M497.77,722.84c0.35-0.33,0.7-0.66,1.05-0.99c1.54,6.8,5.53,12.86,6,19.99c-0.12,0.57-0.49,0.88-1.05,0.99
			C501.85,736.14,498.17,729.98,497.77,722.84z"/>
		<path class="st30" d="M350.87,609.92c-0.01,0.35-0.01,0.71-0.02,1.06c-3.62,1.01-6.83-1.1-9.66-2.35
			c-5.13-2.27-10.24-1.16-15.32-1.76c-0.33-0.2-0.44-0.4-0.33-0.59c0.11-0.2,0.22-0.3,0.33-0.3
			C334.47,605.63,343.08,605.19,350.87,609.92z"/>
		<path class="st30" d="M325.88,605.98c0,0.3,0,0.6,0,0.89c-7.14-0.22-14.11,0.28-20.59,3.83c-1.16,0.64-2.9,0.21-4.38,0.27
			c-0.01-0.35-0.01-0.71-0.02-1.06C308.68,605.19,317.29,605.63,325.88,605.98z"/>
		<path class="st53" d="M515.62,609.96c-14.33-0.02-28.66-0.04-42.99-0.06c0.91-0.9,2.08-0.87,3.24-0.87c12.2,0,24.4,0,36.59,0.01
			C513.6,609.04,514.81,608.85,515.62,609.96z"/>
		<path class="st41" d="M503.77,742.83c0.35-0.33,0.7-0.66,1.05-0.99c2,6.66,4,13.32,6,19.98c-0.35,0.33-0.7,0.67-1.05,1
			C506.46,756.55,504.85,749.76,503.77,742.83z"/>
		<path class="st40" d="M637.64,799.83c11.91,0,23.83-0.03,35.74,0.03c1.74,0.01,3.67-0.64,5.19,0.88
			c-12.25,0.01-24.5,0.04-36.75,0.03C640.38,800.77,638.8,801.17,637.64,799.83z"/>
		<path class="st40" d="M681.64,800.78c0.64-1,2.14-1.43,1.99-2.96c1.12-0.22,2.34-0.84,3.33-0.57c3.25,0.87,3.57-0.94,3.75-3.4
			c0.25-3.38-0.93-6.88,0.84-10.13c0.04,4.42,0.07,8.84,0.11,13.26c-0.34,0.92-0.69,1.84-1.03,2.75
			C687.84,801.82,684.62,800.32,681.64,800.78z"/>
		<path class="st37" d="M288.96,794.66c-4.96-4.4-10.68-8.13-13.09-14.78c0.36-0.36,0.78-0.44,1.25-0.24
			c4.5,4.41,9.32,8.5,13.14,13.56C290.23,794.04,289.71,794.45,288.96,794.66z"/>
		<path class="st15" d="M276.9,779.84c-0.35,0.01-0.69,0.02-1.04,0.03l0.02,0.01c-0.95-1.21-0.87-2.93-2.05-4.02
			c-2.61-2.84-3.15-6.46-3.81-10.04c0.3-0.33,0.6-0.67,0.91-1c2.73,4.36,4.67,9.05,5.98,14.02c0.25,0.23,0.34,0.45,0.25,0.67
			C277.08,779.73,276.99,779.84,276.9,779.84z"/>
		<path class="st31" d="M157.96,793.86c2.82-0.14,4.36,2.75,7.03,2.97c3.92-0.14,7.4,0.83,10.07,3.92
			C168.55,800.46,162.61,798.76,157.96,793.86z"/>
		<path class="st31" d="M224.96,796.83c2.67-0.22,4.21-3.11,7.03-2.97c-4.66,4.89-10.59,6.6-17.1,6.88
			C217.56,797.66,221.05,796.69,224.96,796.83z"/>
		<path class="st45" d="M116.35,680.94c-0.11,0.32-0.23,0.65-0.34,0.97c-1.02,1.17-1.03,2.82-1.94,4.04l0.02-0.02
			c-1.45,2.57-3.46,4.58-6.03,6.03l0.02-0.02c-1.21,0.93-2.92,0.87-4.02,2.02l0.02-0.02c-1.54,1.21-3.3,1.36-5.16,1.11
			c-0.27-0.4-0.38-0.84-0.37-1.32c0.47-1.69,2.05-2.09,3.35-2.66c4.36-1.92,7.9-4.71,10.16-8.98c0.57-1.08,1.32-1.9,2.67-1.83
			c0.48,0.1,0.89,0.33,1.24,0.67C115.97,680.93,116.35,680.94,116.35,680.94z"/>
		<path class="st47" d="M175.05,558.11c0.33-0.06,0.65-0.08,0.98-0.07c-0.62,7.12-6.05,13.45-12.01,13.99
			C168.28,567.85,173.83,564.7,175.05,558.11z"/>
		<path class="st31" d="M145.94,627.89c2.21-5.79,6.21-9.79,12-12.01l0.1,0.12c-2.4,5.42-7.15,8.62-11.49,12.21
			C146.35,628.11,146.14,628,145.94,627.89z"/>
		<path class="st31" d="M145.96,781.86c4.47,3.54,8.48,7.55,12.03,12.02C152.14,791.71,148.13,787.7,145.96,781.86z"/>
		<path class="st54" d="M339.88,450.07c1.79,2.14,2.04,4.7,2.04,7.35c-0.02,7.54-0.03,15.08-0.04,22.62
			c-1.86-2.38-0.82-5.13-0.89-7.69C340.81,464.91,341.33,457.45,339.88,450.07z"/>
		<path class="st40" d="M524.72,425.06c2.2-4.39,3.56-9.23,6.95-12.98c-0.5,6.12-4.4,10.76-6.94,16
			C524.06,427.08,524.05,426.07,524.72,425.06z"/>
		<path class="st37" d="M373.81,627.98c0.29-0.33,0.57-0.66,0.86-0.98c2.1,3.82,5.23,7.19,5.21,11.93c-0.35,0-0.7,0.01-1.06,0.01
			l0.01,0.01c-1.83-0.77-1.12-2.77-1.95-4.02c-2.59-0.37-1.76-2.46-2.04-4.01C373.87,630.17,372.76,629.46,373.81,627.98z"/>
		<path class="st55" d="M232.02,615.87c5.13,1.54,8.47,4.88,10.01,10.01c-0.21,0.11-0.41,0.23-0.62,0.34
			c-3.9-2.59-7.15-5.83-9.74-9.73C231.79,616.28,231.9,616.08,232.02,615.87z"/>
		<path class="st37" d="M288.96,794.66c0.33-0.28,0.66-0.57,0.98-0.85c1.47-1.06,2.19,0.05,2.95,1.03c1.54,0.28,3.64-0.55,4.01,2.04
			c1.25,0.83,3.25,0.11,4.02,1.95l-0.01-0.01c0.34,0.24,0.44,0.48,0.33,0.71c-0.11,0.23-0.23,0.35-0.34,0.35
			C296.15,799.88,292.77,796.76,288.96,794.66z"/>
		<path class="st31" d="M231.97,793.88c2.87-3.81,6.22-7.15,10.03-10.03C240.45,788.99,237.1,792.33,231.97,793.88z"/>
		<path class="st29" d="M380.93,754.86c0.3,0,0.6,0,0.89,0c-0.37,5.36,1.64,11.02-1.94,15.99c-0.36,0.35-0.71,0.35-1.06-0.01
			C378.82,765.42,381.97,760.41,380.93,754.86z"/>
		<path class="st46" d="M271.92,384.1c3.88-3,8.43-1.84,12.75-1.99c3.43-0.12,6.87,0.04,10.31,0.07c-2.08,1.6-4.5,0.78-6.75,0.82
			C282.76,383.1,277.29,382.87,271.92,384.1z"/>
		<path class="st56" d="M607.6,679.78c0.04,5.42,0.07,10.83,0.11,16.25c-0.69,0.87-1.38,0.86-2.07,0.01
			c0.01-2.04,0.03-4.09,0.04-6.13C608.19,686.89,605.32,682.84,607.6,679.78z"/>
		<path class="st37" d="M283.07,621.02c0.28,0.32,0.57,0.64,0.85,0.96c-0.61,3.87-4.62,5.15-6.25,8.25
			c-0.44,0.15-0.88,0.21-1.34,0.16c-0.16-0.16-0.32-0.32-0.48-0.49C276.72,625.69,279.79,623.27,283.07,621.02z"/>
		<path class="st40" d="M216.94,522.05c1.01,0.65,2.01,1.31,3.02,1.96c-6.45-2.43-13.27-2.99-20-3.97
			C205.68,520.21,211.56,519.01,216.94,522.05z"/>
		<path class="st40" d="M26.08,478.07c0.33-0.01,0.66,0.01,0.99,0.05c3.88,5.5,3.11,11.77,3.02,17.94
			C29.02,490,28.74,483.77,26.08,478.07z"/>
		<path class="st45" d="M101.06,699.84c-0.01,0.36-0.01,0.71-0.02,1.07c-1.93,1.63-3.97,1.61-5.89,0.14
			c-1.18-0.91-1.26-2.4-0.66-3.64c0.88-1.81,1.98-3.6,4.55-2.51l0.09,0.07c0.32,0.24,0.42,0.48,0.3,0.72
			c-0.11,0.23-0.22,0.35-0.33,0.35C97.51,698.45,100.32,698.61,101.06,699.84z"/>
		<path class="st43" d="M541.7,378.08c0.05-6.91-0.94-14.02,4.03-19.93C543.24,364.56,542.76,371.38,541.7,378.08z"/>
		<path class="st37" d="M378.83,770.84c0.35,0,0.7,0.01,1.06,0.01c0.1,3.62-1.59,6.46-3.94,9.01c-0.37-0.01-0.74-0.02-1.11-0.03
			c-0.34-0.23-0.45-0.45-0.33-0.66c0.12-0.21,0.23-0.32,0.35-0.32c0.27-1.54-0.55-3.64,2.04-4.01
			C377.71,773.6,377.01,771.6,378.83,770.84L378.83,770.84z"/>
		<path class="st40" d="M30.08,496.05c4.36,5.32,4.31,11.63,4,17.99C33.24,507.94,31.96,501.93,30.08,496.05z"/>
		<path class="st54" d="M335.85,434.1c0.32-0.01,0.63,0.02,0.95,0.07c3.47,4.83,3.39,10.35,3.08,15.91
			C339.32,444.55,337.47,439.35,335.85,434.1z"/>
		<path class="st9" d="M4.11,304.18c3.79,6.04,1.39,12.71,1.94,19.09C4.14,317.03,6.16,310.4,4.11,304.18z"/>
		<path class="st40" d="M705.54,673.79c-0.46,6.03,1.26,12.18-1.01,18.11C705.33,685.88,703.52,679.73,705.54,673.79z"/>
		<path class="st53" d="M800.47,703.87c-2.12-5.89-0.39-11.98-0.94-17.94C801.63,691.81,799.91,697.9,800.47,703.87z"/>
		<path class="st39" d="M547.73,352.16c-0.25-5.06,1.64-9.3,4.95-13C551.03,343.49,549.38,347.83,547.73,352.16z"/>
		<path class="st57" d="M695.54,749.73c-0.45,5.36,1.26,10.86-1.01,16.11C695.31,760.5,693.53,755,695.54,749.73z"/>
		<path class="st39" d="M515.79,453.13c-0.32-3.72,1.5-6.52,3.9-9.07C520.07,447.81,518.01,450.5,515.79,453.13z"/>
		<path class="st49" d="M35.06,514.09c1.89,3.76,3.94,7.48,3.02,11.95c-1.33-4-2.67-7.99-4-11.99
			C34.41,514.04,34.73,514.05,35.06,514.09z"/>
		<path class="st58" d="M108.06,691.96c1.55-2.47,3.56-4.48,6.03-6.03C113.81,689.67,111.8,691.68,108.06,691.96z"/>
		<path class="st53" d="M533.68,522.04c-2.33-1.64-4.32-3.64-5.97-5.97C531.6,516.16,533.59,518.15,533.68,522.04z"/>
		<path class="st59" d="M600.62,659.9c-1.99-4.54-0.48-9.32-0.95-13.96C601.64,650.49,600.14,655.26,600.62,659.9z"/>
		<path class="st6" d="M745.59,224.21c4.65,0,9.29,0,13.94,0C754.89,225.8,750.24,225.8,745.59,224.21z"/>
		<path class="st43" d="M533.74,397.12c0.99-2.52,1.65-5.22,3.93-7.02c0.56,3.23-1.49,5.49-2.97,7.95
			C534.31,397.81,533.98,397.5,533.74,397.12z"/>
		<path class="st59" d="M806.47,743.84c-1.98-4.54-0.48-9.32-0.95-13.96C807.49,734.43,805.99,739.2,806.47,743.84z"/>
		<path class="st46" d="M301.89,380.11c3.44-1.99,6.74-4.4,11.06-3.92C309.26,377.47,306.09,380.24,301.89,380.11z"/>
		<path class="st48" d="M637.7,223.32c0.31-0.06,0.61-0.1,0.93-0.14c1.73-0.47,2.55-3.19,4.95-2.01l0.13,0.14
			c-2.4,3.75-6.21,3.88-10.05,3.93C634.53,223.61,636.77,224.84,637.7,223.32z"/>
		<path class="st43" d="M709.53,643.81c-0.43,4.03,1.21,8.23-1.01,12.11C709.21,651.91,707.68,647.72,709.53,643.81z"/>
		<path class="st43" d="M713.53,617.83c-0.43,4.03,1.21,8.23-1.01,12.11C713.2,625.93,711.67,621.74,713.53,617.83z"/>
		<path class="st43" d="M615.6,619.82c-0.43,4.03,1.22,8.24-1.02,12.12C615.28,627.93,613.74,623.73,615.6,619.82z"/>
		<path class="st59" d="M598.63,641.92c-1.97-3.86-0.46-7.99-0.95-11.96C599.63,633.81,598.14,637.94,598.63,641.92z"/>
		<path class="st46" d="M313.88,376.11c3.43-2.3,7.08-2.74,10.96-1.31C321.19,375.24,317.54,375.67,313.88,376.11z"/>
		<path class="st43" d="M792.48,647.91c-1.97-3.86-0.46-7.99-0.95-11.96C793.49,639.81,791.99,643.94,792.48,647.91z"/>
		<path class="st43" d="M613.61,635.81c-0.39,4.04,1.13,8.22-0.94,12.13C613.22,643.91,611.78,639.73,613.61,635.81z"/>
		<path class="st43" d="M701.54,709.76c-0.43,4.03,1.21,8.23-1.01,12.11C701.21,717.86,699.68,713.67,701.54,709.76z"/>
		<path class="st56" d="M609.6,663.79c-0.42,4.03,1.24,8.23-1.02,12.11C609.27,671.89,607.73,667.7,609.6,663.79z"/>
		<path class="st39" d="M513.7,462.03c0.43-2.71-1.23-5.94,1.97-7.97C515.97,456.95,514.98,459.52,513.7,462.03z"/>
		<path class="st39" d="M521.7,438.05c0.44-2.72-1.24-5.96,1.99-7.98C523.95,432.96,522.98,435.54,521.7,438.05z"/>
		<path class="st29" d="M300.89,799.87c0-0.35,0.01-0.71,0.01-1.06c2.02,0.65,4.88-1.37,6.06,1.91
			C304.88,800.87,302.8,801.01,300.89,799.87z"/>
		<path class="st55" d="M242.03,625.88c2.14,1.46,4.01,3.1,4,6c-0.22,0.11-0.43,0.22-0.65,0.33c-2.53-1.3-4.3-3.04-3.5-6.22
			L242.03,625.88z"/>
		<path class="st53" d="M464.76,633.9c0.37,3.24-1.37,5.63-3.2,7.98C461.54,638.78,463.34,636.42,464.76,633.9z"/>
		<path class="st43" d="M703.54,695.77c-0.38,3.37,1.18,6.93-1.01,10.11C703.17,702.54,701.74,699,703.54,695.77z"/>
		<path class="st53" d="M470.75,613.91c0.47,3.23-1.52,5.54-3.02,8.03C467.33,618.74,469.42,616.47,470.75,613.91z"/>
		<path class="st46" d="M104.98,574.04c3.21-0.24,6.37-0.26,9.06,1.92C110.84,576.18,107.95,574.93,104.98,574.04z"/>
		<path class="st56" d="M604.63,685.89c-1.95-3.17-0.52-6.66-0.96-9.98C605.61,679.09,604.19,682.58,604.63,685.89z"/>
		<path class="st53" d="M458.78,653.94c0.3,3.2-1.35,5.61-3.23,7.93C455.55,658.78,457.29,656.41,458.78,653.94z"/>
		<path class="st31" d="M241.97,783.89c0.36-2.67,1.53-4.81,4.05-6.02C245.47,780.4,244.39,782.59,241.97,783.89z"/>
		<path class="st40" d="M707.54,659.8c-0.39,3.37,1.18,6.93-1.01,10.11C707.17,666.57,705.73,663.02,707.54,659.8z"/>
		<path class="st40" d="M693.55,769.72c-0.39,3.37,1.18,6.93-1.01,10.11C693.18,776.49,691.75,772.94,693.55,769.72z"/>
		<path class="st57" d="M697.54,735.74c-0.38,3.37,1.18,6.93-1.01,10.11C697.18,742.52,695.74,738.97,697.54,735.74z"/>
		<path class="st51" d="M120.1,720.86c-0.36,0.01-0.71,0.02-1.07,0.03c-0.24-0.1-0.48-0.2-0.72-0.3c-1.72-1.78-1.75-3.67-0.33-5.64
			l0.11-0.1C119.9,716.47,120.08,718.64,120.1,720.86z"/>
		<path class="st26" d="M295.93,509.02c-0.33,0.01-0.66-0.01-0.99-0.04c-1.28-1.83-1.06-3.92-1.01-5.98
			C295.77,504.62,295.95,506.79,295.93,509.02z"/>
		<path class="st48" d="M628.61,230.18c0.64-2.71,2.24-4.44,5.04-4.94C632.35,227.27,630.76,229.02,628.61,230.18z"/>
		<path class="st39" d="M509.67,473.94c0.26-2.11-0.59-4.6,2.03-5.9C511.87,470.3,511.74,472.45,509.67,473.94z"/>
		<path class="st39" d="M511.7,468.02c0.19-2.15-0.65-4.64,1.99-5.98C513.91,464.33,513.64,466.46,511.7,468.02z"/>
		<path class="st40" d="M788.48,619.93c-1.88-2.88-0.57-6.07-0.88-9.1C789.36,613.72,788.08,616.9,788.48,619.93z"/>
		<path class="st39" d="M519.7,444.04c0.19-2.15-0.65-4.64,1.99-5.98C521.91,440.35,521.63,442.47,519.7,444.04z"/>
		<path class="st42" d="M84.13,610.87c2.79,0.13,5.61,0.16,7.98,2l-0.13,0.19c-3.2,1.47-5.98,1.3-7.99-2L84.13,610.87z"/>
		<path class="st40" d="M533.74,397.12c0.32,0.31,0.64,0.63,0.96,0.94c-0.53,2.63,1.01,5.52-1.04,7.95
			C533.68,403.04,533.71,400.08,533.74,397.12z"/>
		<path class="st40" d="M796.47,671.89c-1.9-2.46-0.51-5.32-0.94-7.96C797.4,666.4,796.06,669.25,796.47,671.89z"/>
		<path class="st40" d="M602.62,671.89c-1.9-2.46-0.51-5.32-0.94-7.96C603.55,666.4,602.2,669.25,602.62,671.89z"/>
		<path class="st40" d="M794.48,659.9c-1.9-2.46-0.51-5.32-0.94-7.96C795.4,654.41,794.06,657.26,794.48,659.9z"/>
		<path class="st47" d="M176.03,558.03c0-2.68,0-5.36,0-8.05C177.46,552.66,177.46,555.34,176.03,558.03z"/>
		<path class="st43" d="M611.63,651.85c-0.42,2.68,1.12,5.61-1.05,8.07C611.23,657.27,609.8,654.35,611.63,651.85z"/>
		<path class="st40" d="M812.51,775.84c-1.99-2.46-0.56-5.34-0.99-7.98C813.41,770.33,811.99,773.21,812.51,775.84z"/>
		<path class="st40" d="M808.47,755.83c-1.9-2.46-0.51-5.32-0.94-7.96C809.39,750.34,808.05,753.19,808.47,755.83z"/>
		<path class="st43" d="M790.48,631.92c-1.91-2.46-0.51-5.32-0.95-7.96C791.41,626.43,790.07,629.28,790.48,631.92z"/>
		<path class="st46" d="M114.97,576.04c2.47-0.62,4.63,1.05,7.03,0.96c0.02,0.33,0.03,0.65,0.03,0.98
			C119.44,578.18,117.12,577.42,114.97,576.04z"/>
		<path class="st59" d="M804.47,725.86c-1.91-2.47-0.51-5.32-0.95-7.96C805.4,720.36,804.06,723.21,804.47,725.86z"/>
		<path class="st48" d="M566.66,282.15c0-2.22,0.11-4.4,2.05-5.95C568.58,278.38,568.32,280.51,566.66,282.15z"/>
		<path class="st31" d="M141.01,640.94c-0.36-0.01-0.72-0.02-1.07-0.03c0.15-1.88-0.23-3.98,2-5.03c0.17,0.17,0.34,0.34,0.5,0.5
			C142.71,638.13,142.28,639.66,141.01,640.94C141.01,640.93,141.01,640.94,141.01,640.94z"/>
		<path class="st53" d="M507.67,483.94c0.42-2.29-0.87-4.83,1.02-6.9C508.31,479.34,509.59,481.88,507.67,483.94z"/>
		<path class="st55" d="M213.11,607.9c-1.96,0.06-4.04,0.44-5.12-1.88C209.98,605.85,211.68,606.5,213.11,607.9z"/>
		<path class="st58" d="M99.1,696.03c0.01-0.35,0.02-0.71,0.03-1.06c1.65-0.34,3.31-0.69,4.96-1.03
			C103.11,696.26,100.96,695.79,99.1,696.03z"/>
		<path class="st6" d="M741.54,223.31c0.01-0.33,0.01-0.67,0.01-1c1.7-0.12,3.24,0.1,4.04,1.9
			C744.18,224.2,742.66,224.67,741.54,223.31z"/>
		<path class="st37" d="M272.92,638.94c-0.36-0.01-0.72-0.02-1.07-0.03c0.16-1.88-0.24-3.98,2.01-5.02c0.17,0.17,0.33,0.34,0.5,0.51
			C274.61,636.14,274.18,637.67,272.92,638.94L272.92,638.94z"/>
		<path class="st39" d="M545.73,358.16c0.07-2.2,0.5-4.28,2-6C547.87,354.42,547.55,356.54,545.73,358.16z"/>
		<path class="st55" d="M248.01,636.91c-0.36,0.01-0.72,0.02-1.07,0.03l0,0c-1.17-1.47-2.11-3-1.06-4.95l0.15-0.11
			C248.24,632.94,247.88,635.02,248.01,636.91z"/>
		<path class="st31" d="M141.94,635.88c0.09-1.62,0.21-3.23,2-4c0.17,0.18,0.34,0.36,0.51,0.54c-0.01,1.71,0.36,3.68-2.39,3.56
			L141.94,635.88z"/>
		<path class="st37" d="M273.85,633.89c0.09-1.62,0.2-3.23,2-3.99l0.12,0.11c0.63,1.98,0.88,3.77-2,3.98L273.85,633.89z"/>
		<path class="st31" d="M143.94,631.88c0.1-1.62,0.21-3.22,2-3.99l0.12,0.09c0.68,2,0.87,3.77-2,4L143.94,631.88z"/>
		<path class="st55" d="M228.02,613.87c1.62,0.09,3.22,0.23,4,2l-0.11,0.15c-1.88,0.88-3.36,0.6-4.2-1.47
			C227.8,614.32,227.91,614.1,228.02,613.87z"/>
		<path class="st40" d="M699.54,725.75c-0.26,2.05,0.94,4.34-1.01,6.12C699,729.85,697.98,727.58,699.54,725.75z"/>
		<path class="st53" d="M467.75,621.92c-0.31,2.01,0.9,4.29-1.04,6.02C467.21,625.96,466.09,623.7,467.75,621.92z"/>
		<path class="st40" d="M802.47,713.86c-1.72-1.76-0.63-3.97-0.94-5.96C803.22,709.67,802.17,711.87,802.47,713.86z"/>
		<path class="st55" d="M224.02,611.87c1.62,0.09,3.22,0.23,4,2l-0.11,0.15c-1.89,0.9-3.34,0.55-4.21-1.47
			C223.81,612.32,223.91,612.1,224.02,611.87z"/>
		<path class="st58" d="M114.07,685.95c-0.14-1.72,0.11-3.26,1.94-4.04C116.08,683.61,115.92,685.19,114.07,685.95z"/>
		<path class="st53" d="M798.47,681.88c-1.72-1.76-0.63-3.97-0.94-5.95C799.22,677.7,798.17,679.9,798.47,681.88z"/>
		<path class="st48" d="M624.66,234.23c0.64-1.35,1.66-2.32,2.96-3.01C627.93,233.5,626.91,234.47,624.66,234.23z"/>
		<path class="st55" d="M215.96,608.96c0-0.31,0-0.62,0-0.94c1.69-0.12,3.25,0.07,4.08,1.85c-0.16,0.17-0.33,0.34-0.49,0.51
			C218.11,610.52,216.66,610.68,215.96,608.96z"/>
		<path class="st53" d="M459.72,647.8c-0.23,2.05,0.87,4.31-0.93,6.13C459.12,651.89,458.18,649.66,459.72,647.8z"/>
		<path class="st58" d="M104.06,693.96c0.71-1.92,2.28-2.14,4.02-2.02C107.34,693.8,105.71,693.9,104.06,693.96z"/>
		<path class="st55" d="M220.04,609.87c1.61,0.11,3.21,0.23,3.98,2l-0.11,0.15c-2,0.66-3.76,0.85-4-2L220.04,609.87z"/>
		<path class="st43" d="M711.53,633.81c-0.26,2.05,0.94,4.34-1.01,6.12C710.99,637.91,709.97,635.65,711.53,633.81z"/>
		<path class="st46" d="M295.9,382.11c1.43-1.36,3.26-1.66,5.11-1.89C299.84,382.29,297.88,382.24,295.9,382.11z"/>
		<path class="st31" d="M141.93,773.86c1.95,0.7,2.18,2.27,2.05,4.02C142.11,777.15,142.05,775.49,141.93,773.86z"/>
		<path class="st37" d="M273.84,775.86c1.94,0.7,2.17,2.27,2.05,4.02C274.02,779.15,273.96,777.49,273.84,775.86z"/>
		<path class="st31" d="M143.96,777.86c1.91,0.72,2.15,2.28,2.02,4.02C144.12,781.14,144.03,779.51,143.96,777.86z"/>
		<path class="st39" d="M524.72,425.06c0,1.01,0.01,2.02,0.01,3.02c-0.05,0.81-0.21,1.56-1.03,1.97
			C523.9,428.36,523.17,426.48,524.72,425.06z"/>
		<path class="st43" d="M617.6,610.82c-0.17,1.74,0.8,3.71-1.02,5.13C616.98,614.25,616.17,612.31,617.6,610.82z"/>
		<path class="st60" d="M752.99,658.24c0.88,3.38,2.27,6.72,2.55,10.15c0.8,9.85,0.61,19.7,1.78,29.61
			c1.15,9.73,3.55,19.51,2.55,29.54c-0.34,3.36-1.05,4.68-4.59,4.59c-11.83-0.32-9.27,1.31-10.02-9.63
			c-0.72-10.53,1.67-20.74,2.7-31.03c0.59-5.87,1.04-11.75,1.49-17.65c0.39-5.19,2.77-10.09,1.98-15.52
			C751.95,658.28,752.47,658.26,752.99,658.24z"/>
		<path class="st40" d="M585.69,16.39c-0.13,6.86-1.27,8-8.21,8c-23.24,0.01-46.49,0-69.73-0.01c1.51-1.56,3.45-0.91,5.2-0.91
			c20.59-0.05,41.18-0.24,61.76,0.1C580.51,23.68,584.3,22.28,585.69,16.39z"/>
		<path class="st40" d="M507.73,25.37c-3.61,2.72-7.68,3.2-12.11,3.14c-12.91-0.2-25.82-0.05-38.73-0.04
			c-0.38-0.04-0.76-0.07-1.14-0.11c1.52-1.5,3.45-0.88,5.2-0.89c10.43-0.06,20.9-0.54,31.28,0.18c5.75,0.4,10.34-2.29,15.51-3.26
			C507.75,24.71,507.75,25.04,507.73,25.37z"/>
		<path class="st40" d="M597.68,4.4c-5.33,2.66-9.33,6.66-11.99,11.99C585.68,9.93,591.22,4.39,597.68,4.4z"/>
		<path class="st40" d="M613.66,6.4c-1.27-0.27-2.73-0.24-3.78-0.88c-3.93-2.4-7.98-2.4-12.2-1.12
			C603.67-0.2,608.63,3.37,613.66,6.4z"/>
		<path class="st14" d="M628.75,24.33c-3.91,0.55-5.59-1.13-5.04-5.04C625.08,21.28,626.76,22.96,628.75,24.33z"/>
		<path class="st61" d="M22.02,147.11c-0.05,3.57-2.69,5.52-4.92,7.64c-2.6,2.48-2.41,4.56,0.03,7.13c6.53,6.88,6.41,6.91,0.81,14.2
			c-1.47,1.92-2.57,4.12-3.84,6.2c-0.38-3.91,2.06-6.49,4.45-8.95c2.71-2.79,2.74-5.14,0.05-8.05c-6.36-6.89-6.26-7.08-0.06-14.01
			C19.75,149.92,20.86,148.49,22.02,147.11z"/>
		<path class="st37" d="M40.02,109.14c-2,7.66-6.38,14.22-9.92,21.16c0.46-6.16,4.65-10.75,6.95-16.14
			C37.79,112.45,37.97,110.17,40.02,109.14z"/>
		<path class="st61" d="M30.04,131.18c0.35,2.6-0.26,4.98-2.16,6.76c-2.56,2.39-3.95,5.51-5.78,8.36c-0.6-3.12,1.28-5.43,3.04-7.39
			C27.25,136.56,28.8,134.01,30.04,131.18z"/>
		<path class="st36" d="M14.04,183.09c-1.71,5.54-5.44,10.02-7.92,15.16C6.73,192.14,10.3,187.57,14.04,183.09z"/>
		<path class="st36" d="M142.01,22.39c-3.86,3.1-7.67,6.3-13.09,5.94C133.66,27.19,137.11,23.19,142.01,22.39z"/>
		<path class="st7" d="M191,11.43c-2.16,1.32-4.57,1.74-7.04,1.93C185.65,10.31,188.56,11.73,191,11.43z"/>
		<path class="st36" d="M6.05,199.08c-0.25,1.87-0.58,3.7-1.92,5.17C4,202.24,4.07,200.31,6.05,199.08z"/>
		<path class="st36" d="M148,20.4c-1.46,1.34-3.3,1.67-5.16,1.92C144.06,20.34,146,20.27,148,20.4z"/>
		<path class="st1" d="M705.74,46.28c-0.03-5.64,0.04-11.28-0.17-16.91c-0.07-1.75-0.57-3.59-1.81-5.04
			c0.22-4.68-2.42-8.27-5.29-11.29c-3.59-3.79-6.67-8.31-11.86-10.4c-1.21-0.49-1.98-1.76-2.01-3.23
			c8.31,3.89,14.49,10.06,18.94,17.97c3.82,6.78,3.25,14.28,2.98,21.64c-0.14,3.79,1.18,6.37,3.73,9.16
			c6.61,7.24,15.26,12.1,21.76,19.46c6.84,7.75,13.3,15.8,19.71,23.89c1.42,1.79,0.6,3.84,0.85,5.77c-0.36,0.49-0.67,0.46-0.92-0.1
			c-0.22-2.97-1.37-5.39-4.07-6.89c-0.85-2.74-2.21-5.18-4.54-6.91c-4.33-3.22-6.47-8.23-10.01-12.11
			C724.67,62.13,714.03,55.49,705.74,46.28z"/>
		<path class="st57" d="M779.57,143.29c-5.9-7.99-12.44-15.41-19.7-22.2c-1.4-1.31-3.26-2.43-3.33-4.73
			c-0.54-0.68-0.54-1.36,0.02-2.03c10.65,9.69,19.55,20.92,28.56,32.09c5.25,6.51,11.68,12.01,15.72,19.56
			c2.31,4.31,7.51,5.74,10.72,9.27l-0.11,0.07c-0.99,0.67-1.97,0.81-2.95-0.02c-6.35-3.03-9.94-8.47-13.32-14.36
			c-1.67-2.92-4.48-5.31-7.13-7.5C784.56,150.54,782.65,146.45,779.57,143.29z"/>
		<path class="st3" d="M751.65,97.21c0.31,0.06,0.61,0.09,0.92,0.1c0.87,1.57,1.18,3.25,0.96,5.02
			C751.22,101.24,751.56,99.18,751.65,97.21z"/>
		<path class="st3" d="M755.53,108.32c-2.31-1.08-1.97-3.14-1.89-5.1C755.74,104.38,755.67,106.34,755.53,108.32z"/>
		<path class="st3" d="M756.56,114.33c-0.01,0.68-0.01,1.35-0.02,2.03c-0.34-0.67-0.68-1.35-1.02-2.02c0.03-1.7,0.06-3.39,0.1-5.09
			C757.06,110.73,756.26,112.63,756.56,114.33z"/>
		<path class="st62" d="M808.49,175.29c0.98,0.01,1.97,0.02,2.95,0.02c-1.23,2.07-2.88,3.72-4.98,4.92
			C807.14,178.59,807.82,176.94,808.49,175.29z"/>
		<path class="st10" d="M643.58,221.17c-1.94-0.04-2.94,2.24-4.95,2.01c1.09-1.99,2.64-3.18,5.03-2.93
			C643.64,220.56,643.61,220.86,643.58,221.17z"/>
		<path class="st63" d="M476.73,277.13c1.49-4.32,4-5.22,8.36-3.42c4.94,2.04,9.19,5.64,14.63,6.52c5.37,1.09,10.8,0.17,16.19,0.5
			c1.2,0.07,3.04-0.51,3.1,1.42c0.06,1.95-1.77,1.41-2.98,1.53c-2.74,0.28-5.57-0.59-8.25,0.57l0,0c-2.44,1.58-5.45,0.86-7.99,1.99
			l0,0c-3.88,1.67-7.72,3.48-11.99,3.99l0,0c-2.3,1.17-4.78,1.45-7.32,1.44c-1.31,0.12-2.48,0.85-3.82,0.86
			c-1.56,0.01-3.17-0.96-2.28-2.19C477.39,286.23,475.5,281.44,476.73,277.13z"/>
		<path class="st64" d="M476.73,277.13c-0.26,4.7,1.34,9.62-2.61,14.1c2.84,0,4.77,0,6.71,0c0.29,0.23,0.38,0.45,0.26,0.65
			c-0.11,0.19-0.22,0.29-0.33,0.29c-0.31,0.04-0.61,0.07-0.92,0.09c-2.62,0.77-4.25,3.06-6.53,4.31c-2.93,1.59-3.47,0.27-2.58-2.41
			C475.11,289.32,475.83,283.19,476.73,277.13z"/>
		<path class="st65" d="M507.78,284.24c3.12-2.5,7.15,0.26,10.89-1.97c-2.29-1.78-4.64-0.86-6.74-1.11c-4.06-0.49-8.27,1-12.22-0.93
			c6.36-0.02,12.71-0.05,19.07-0.07c1.8,2.41,1.36,3.94-1.79,4.07C513.92,284.35,510.85,284.25,507.78,284.24z"/>
		<path class="st65" d="M470.73,294.16c-0.2,3.2,1.35,2.65,3.06,1.36c1.86-1.4,3.11-3.87,6.04-3.26c-1.87,1.57-3.61,3.32-5.63,4.66
			c-3.18,2.12-4.91,1.34-4.43-2.74C470.09,294.18,470.41,294.17,470.73,294.16z"/>
		<path class="st65" d="M487.79,290.24c4.03-1.22,7.51-4.13,11.99-3.99C496.46,289.6,492.36,290.62,487.79,290.24z"/>
		<path class="st65" d="M499.79,286.24c2.46-1.49,5.11-2.21,7.99-1.99C505.73,287.38,502.52,285.85,499.79,286.24z"/>
		<path class="st65" d="M480.75,292.17c0.01-0.32,0.03-0.63,0.07-0.94c2.39,0.16,4.51-1.62,6.97-0.98
			C486.06,293.12,483.23,291.99,480.75,292.17z"/>
		<path class="st66" d="M188.92,639.84c2.51-3.45,5.98-3.3,9.42-2.15c3.47,1.16,4.54,4.11,4.54,7.54c0,39.73,0.01,79.47-0.01,119.2
			c0,1.99-0.07,4.02-1.79,5.48c-1.41,0.53-2.32,1.88-3.82,2.3c-6.66,1.86-9.76-0.48-9.76-7.42c0-39.43,0.01-78.85-0.02-118.28
			C187.48,644.16,187.44,641.85,188.92,639.84z"/>
		<path class="st45" d="M188.92,639.84c-0.81,3.07-1,6.18-1,9.36c0.04,37.96,0.02,75.92,0.03,113.88c0,9.13,3.35,11.15,11.67,7.08
			c0.43-0.21,0.97-0.17,1.46-0.24c-2.85,4.74-7.43,3.1-11.25,2.48c-3.75-0.61-2.82-4.39-2.82-7.08
			c-0.05-39.74-0.05-79.49,0.01-119.23C187.02,643.89,186.24,641.29,188.92,639.84z"/>
		<path class="st45" d="M219.91,610.02c0.81,1.72,2.33,2,4,2c0.81,1.72,2.33,2,4,2c0.81,1.72,2.33,2,4,2
			c3.01,3.64,6.33,6.98,9.98,9.98c0.5,2.55,1.69,4.65,3.99,6c0.35,1.65,0.71,3.3,1.06,4.95c-2.68-1.47-3.9-4.41-5.17-6.69
			c-4.75-8.47-12.08-13.42-20.5-17.37c-2.22-1.04-5.04-1.3-6.32-3.91c0.34,0,0.68-0.01,1.02-0.01
			C217.28,609.31,218.59,609.67,219.91,610.02z"/>
		<path class="st15" d="M144.07,631.98c1.73-0.8,2.02-2.32,2-4c4.32-3.66,8.32-7.65,11.98-11.98c2.74-0.06,4.3-2.8,6.95-3.05
			c-1.62,4.41-6.54,4.89-9.45,7.96c-5.28,5.58-10.27,11.18-12.7,18.62c-0.31,0.96-1.01,1.2-1.83,1.39c0.35-1.65,0.7-3.3,1.05-4.95
			C143.8,635.18,144.09,633.66,144.07,631.98z"/>
		<path class="st67" d="M327.79,772.57c-8.81,0.65-10.87-1.17-10.87-9.77c-0.01-38.05-0.01-76.11,0.02-114.16
			c0-2.13-0.06-4.4,0.6-6.38c1.68-4.99,5.55-6.09,10.33-5.02c0.55,0.91,0.51,1.69-0.51,2.25c-5.62,1.8-7.47,6.23-7.87,11.53
			c-0.3,3.98-0.1,7.98-0.1,11.97c-0.01,31.43,0.07,62.87-0.07,94.3c-0.03,5.91,1.66,10.4,7.08,13.13
			C327.14,770.95,327.84,771.52,327.79,772.57z"/>
		<path class="st67" d="M327.88,638.77c0-0.51,0-1.02-0.01-1.53c5.06-0.44,5.56,3.72,6.8,6.95c0.45,1.17,0.16,2.63,0.16,3.96
			c0.01,37.24,0.01,74.49-0.01,111.73c0,1.32-0.16,2.65-0.25,3.97c-0.99,0.49-1.83,0.54-2.19-0.77
			c-0.19-23.61-0.03-47.22-0.08-70.84c-0.02-8.82-0.07-17.63,0.02-26.45C332.42,656.52,333.09,647.17,327.88,638.77z"/>
		<path class="st68" d="M292.89,794.83c-0.98-0.34-1.97-0.69-2.95-1.03c-4.35-4.65-8.69-9.31-13.04-13.96c0-0.33,0.01-0.67,0.01-1
			C282.97,783.44,288.32,788.75,292.89,794.83z"/>
		<path class="st68" d="M374.85,778.85c0,0.33,0,0.65-0.02,0.98c-5.01,5.33-9.43,11.28-15.96,15
			C363.44,788.76,368.77,783.43,374.85,778.85z"/>
		<path class="st68" d="M276.92,629.95c2.33-2.66,4.66-5.32,7-7.98c3.26-1.99,5.13-5.76,8.97-7.02
			c-4.57,6.08-9.92,11.39-15.97,15.99c-0.29-0.22-0.38-0.45-0.28-0.67C276.73,630.06,276.83,629.95,276.92,629.95z"/>
		<path class="st68" d="M373.81,627.98c0.34,0.98,0.69,1.97,1.03,2.95c-6.07-4.58-11.4-9.9-15.98-15.98
			C365.07,617.9,368.35,624.19,373.81,627.98z"/>
		<path class="st67" d="M333.05,763.86c0.51,0,1.02,0,1.53-0.01c-0.09,5.5-2.2,8.22-6.79,8.72c-0.36-0.27-0.72-0.53-1.08-0.8
			C328.36,768.75,330.32,766,333.05,763.86z"/>
		<path class="st15" d="M276.92,629.95c-0.01,0.33-0.01,0.66-0.01,0.99c-0.32,3.17-1.34,5.99-4,7.99c0.35-1.65,0.7-3.31,1.05-4.96
			c1.72-0.8,2.02-2.31,2-3.98C276.29,629.97,276.61,629.95,276.92,629.95z"/>
		<path class="st29" d="M378.83,770.83c-0.65,1.34-1.3,2.68-1.95,4.02C377.06,773.28,376.26,771.24,378.83,770.83z"/>
		<path class="st30" d="M296.89,612.92c1.34-0.65,2.68-1.3,4.02-1.95C300.51,613.54,298.46,612.74,296.89,612.92z"/>
		<path class="st30" d="M350.84,610.97c1.34,0.65,2.68,1.3,4.02,1.95C353.29,612.74,351.25,613.54,350.84,610.97z"/>
		<path class="st29" d="M376.88,634.94c0.65,1.34,1.3,2.68,1.95,4.02C376.26,638.55,377.06,636.51,376.88,634.94z"/>
		<path class="st29" d="M300.91,798.82c-1.34-0.65-2.68-1.3-4.02-1.95C298.46,797.05,300.51,796.25,300.91,798.82z"/>
		<path class="st25" d="M83.99,611.07c2.5,1.34,5.21,1.8,7.99,2c8.51,3.92,15.49,9.56,20.14,17.84c-0.49,0.44-1.06,0.68-1.72,0.72
			c-3.63-0.6-5.65-3.51-7.73-5.96c-8.4-9.9-19.95-12.52-31.82-12.96c-18.28-0.67-36.61-0.19-54.92-0.17
			c-7.01,0.01-7.24,0.22-7.25,7.33c-0.02,56.75,0,113.51-0.04,170.26c0,2.94,0.62,6.04-1.44,8.67c-0.33,0.02-0.66,0.03-0.99,0.03
			c0.02-62.9,0.03-125.8,0.05-188.69c23.46-0.05,46.91-0.13,70.36-0.1C79.09,610.03,81.54,610.7,83.99,611.07z"/>
		<path class="st0" d="M7.21,798.79c-0.04-61.2-0.05-122.4-0.16-183.6c-0.01-3.19,0.83-4.32,4.17-4.3
			c21.29,0.13,42.62-0.74,63.84,0.44c9.44,0.52,19.57,2.6,26.65,10.97c2.7,3.19,5.42,6.66,9.36,8.64
			c7.77,16.15,8.88,32.83,3.97,49.99c-2.8,0.15-1.83,3.05-3.18,4.43c-3.21,3.28-6.52,6.24-10.97,7.6c-1.12,0.34-1.68,0.88-1.86,1.95
			c-2.17,0.74-4.23,2.23-3.61,4.47c0.75,2.72,3.69,1.03,5.61,1.54v-0.01c0.72,1.92,2.74,1.17,4.01,1.95
			c3.29,4.71,7.35,8.66,11.98,12.04c1.35,1.77-0.72,4.69,2,6l0,0c3.43,13.57,1.3,27.42,2.11,41.12c0.31,5.21-3.33,9.64-2.11,14.84
			c-3.58,3.96-4.69,9.6-9.31,12.96c-4.66,3.39-9.52,5.69-15.14,7.33c-10.67,3.12-21.35,1.37-32,1.6
			C44.13,799.12,25.67,798.81,7.21,798.79z"/>
		<path class="st30" d="M115.05,680.92c3.02-7.92,1.49-16.19,2.03-24.31c0.54-8.09-2.79-15.07-5.47-22.3
			c-0.39-1.05-0.36-2.25-0.53-3.38c0.35-0.01,0.69-0.02,1.04-0.02c7.61,16.19,7.63,32.96,3.86,50.02
			C115.67,680.92,115.36,680.92,115.05,680.92z"/>
		<path class="st50" d="M119.03,720.89c-3.47-1.07-1.29-4.01-2-6c0.32,0,0.63,0.02,0.95,0.05
			C118.04,716.97,117.85,719.05,119.03,720.89z"/>
		<path class="st45" d="M105.05,702.85c-1.57-0.18-3.6,0.62-4.01-1.95C102.37,701.55,103.71,702.2,105.05,702.85z"/>
		<path class="st69" d="M753.21,665.6c0.49,1.61,1.35,3.03,1.28,4.41c-0.53,11.3,1.12,22.44,1.94,33.65
			c0.55,7.58,2.75,14.9,2.37,22.66c-0.27,5.57-3.39,4.41-6.56,4.6c-3.49,0.21-5.81,0.09-5.83-4.76c-0.07-12.79,1.49-25.35,3.8-37.87
			c0.39-2.1,0.41-4.31,0.3-6.45C750.22,676.31,750.82,670.96,753.21,665.6z"/>
		<path class="st70" d="M188.89,705.59c0-18.31,0-36.63,0-54.94c0-1-0.02-2,0-3c0.13-4.46,3.11-8.55,6.17-8.47s5.97,4.15,5.97,8.65
			c0.03,37.96,0.01,75.92,0.02,113.87c0,1.68-0.01,3.31-0.94,4.82c-1.68,2.72-3.87,4.89-7.25,4.11c-3.27-0.75-4.02-3.49-4.01-6.62
			C188.92,744.55,188.89,725.07,188.89,705.59z"/>
		<path class="st71" d="M333.05,763.86c-1.18,3.38-3.16,6.12-6.33,7.91c-6.2-2.11-8.7-5.2-8.7-11.07
			c-0.02-36.52,0.03-73.04-0.07-109.56c-0.01-3.34,1.06-6.29,2.58-8.93c1.45-2.51,3.7-4.89,7.35-3.44
			c4.22,3.11,5.86,7.43,5.86,12.51c0,35.73,0.01,71.46-0.03,107.19C333.71,760.26,333.28,762.06,333.05,763.86z"/>
		<path class="st72" d="M55.3,663.74c0-5.14,0.11-10.29-0.04-15.43c-0.1-3.47,1.03-5.19,4.81-5.2c9.04-0.04,11.77,0.65,12.67,11.95
			c0.53,6.6,0.22,13.27,0.06,19.91c-0.18,7.75-8.56,12.74-15.55,9.42c-1.85-0.88-1.95-2.5-1.95-4.2
			C55.3,674.69,55.3,669.22,55.3,663.74z"/>
		<path class="st28" d="M55.09,740.36c0-6.81,0.18-13.63-0.07-20.43c-0.15-4.02,1.44-5.43,5.26-5.06c1.98,0.19,3.99-0.05,5.98,0.1
			c4.05,0.31,6.62,2.61,6.68,6.61c0.18,12.46,0.18,24.92-0.01,37.38c-0.08,5.04-3.22,7.75-8.18,7.87c-1.16,0.03-2.34-0.12-3.49,0.04
			c-4.73,0.64-6.54-1.17-6.27-6.08C55.37,754,55.09,747.17,55.09,740.36z"/>
		<path class="st73" d="M57.05,664.02c0-4.49-0.1-8.98,0.05-13.46c0.06-1.83-1.09-4.57,1.29-5.28c2.58-0.77,5.6-1.19,8.13,0.7
			c3.14,2.36,4.55,5.61,4.56,9.48c0.02,5.98-0.27,11.98,0.1,17.95c0.28,4.45-2.31,6.91-5.35,8.84c-4.52,2.87-8.77,0.38-8.78-4.77
			C57.04,673,57.05,668.51,57.05,664.02z"/>
		<path class="st69" d="M56.2,740.66c0-6.15-0.09-12.31,0.05-18.46c0.04-2.01-1.16-4.97,1.47-5.74c2.9-0.85,6.3-1.45,9.07,0.74
			c3.18,2.52,5.51,5.26,5.28,10c-0.44,8.96-0.05,17.95-0.15,26.93c-0.09,7.42-4.78,11.82-11.69,11.65c-3.04-0.08-4.11-1.2-4.06-4.17
			C56.29,754.63,56.2,747.65,56.2,740.66z"/>
	</g>
</g>
</svg>
