<?xml version="1.0" encoding="utf-8"?>
<!-- Generator: Adobe Illustrator 23.1.1, SVG Export Plug-In . SVG Version: 6.00 Build 0)  -->
<svg version="1.1" id="レイヤー_1" xmlns="http://www.w3.org/2000/svg" xmlns:xlink="http://www.w3.org/1999/xlink" x="0px"
	 y="0px" viewBox="0 0 513.34 483" style="enable-background:new 0 0 513.34 483;" xml:space="preserve">
<style type="text/css">
	.st0{fill:#FFFFFF;}
	.st1{fill:#2C6C75;}
	.st2{fill:#2578B0;}
</style>
<g>
	<polygon class="st0" points="31.42,458 124.4,111 336.63,111 243.65,458 	"/>
	<path class="st1" d="M304.05,136l-79.58,297H64l79.58-297H304.05 M364.21,86h-254c-2.76,0-5.6,2.24-6.34,5L0.18,478
		c-0.74,2.76,0.9,5,3.66,5h254c2.76,0,5.6-2.24,6.34-5l103.7-387C368.61,88.24,366.98,86,364.21,86L364.21,86z"/>
</g>
<g>
	<polygon class="st0" points="176.7,372 269.68,25 481.92,25 388.94,372 	"/>
	<path class="st2" d="M449.34,50l-79.58,297H209.28l79.58-297H449.34 M509.5,0h-254c-2.76,0-5.6,2.24-6.34,5l-103.7,387
		c-0.74,2.76,0.9,5,3.66,5h254c2.76,0,5.6-2.24,6.34-5L513.16,5C513.9,2.24,512.26,0,509.5,0L509.5,0z"/>
</g>
</svg>
